<svg width="751" height="125" viewBox="0 0 751 125" fill="none" xmlns="http://www.w3.org/2000/svg">
<path d="M168.429 46.9283C172.709 44.2567 170.817 37.649 165.771 37.649H113.512C110.74 37.649 108.492 39.8967 108.492 42.6694V75.2872C108.492 79.229 112.827 81.6332 116.171 79.5461L168.429 46.9283Z" fill="#1C1E2C"/>
<path d="M71.843 6.02041C71.843 3.24771 74.0907 1 76.8634 1H94.9369C97.7096 1 99.9573 3.24771 99.9573 6.02041V94.8816C99.9573 97.6543 97.7096 99.902 94.9369 99.902H76.8634C74.0907 99.902 71.843 97.6543 71.843 94.8816V6.02041Z" fill="#1C1E2C"/>
<path d="M63.3083 42.6694C63.3083 39.8967 61.0606 37.649 58.2879 37.649H6.02932C0.983785 37.649 -0.909141 44.2567 3.37108 46.9283L55.6297 79.5461C58.9736 81.6332 63.3083 79.229 63.3083 75.2872V42.6694Z" fill="#1C1E2C"/>
<path d="M76.8634 108.939C74.0907 108.939 71.843 111.186 71.843 113.959V118.98C71.843 121.752 74.0907 124 76.8634 124H94.9369C97.7096 124 99.9573 121.752 99.9573 118.98V113.959C99.9573 111.186 97.7096 108.939 94.9369 108.939H76.8634Z" fill="#1C1E2C"/>
<path d="M168.429 46.9283C172.709 44.2567 170.817 37.649 165.771 37.649H113.512C110.74 37.649 108.492 39.8967 108.492 42.6694V75.2872C108.492 79.229 112.827 81.6332 116.171 79.5461L168.429 46.9283Z" stroke="#1C1E2C"/>
<path d="M71.843 6.02041C71.843 3.24771 74.0907 1 76.8634 1H94.9369C97.7096 1 99.9573 3.24771 99.9573 6.02041V94.8816C99.9573 97.6543 97.7096 99.902 94.9369 99.902H76.8634C74.0907 99.902 71.843 97.6543 71.843 94.8816V6.02041Z" stroke="#1C1E2C"/>
<path d="M63.3083 42.6694C63.3083 39.8967 61.0606 37.649 58.2879 37.649H6.02932C0.983785 37.649 -0.909141 44.2567 3.37108 46.9283L55.6297 79.5461C58.9736 81.6332 63.3083 79.229 63.3083 75.2872V42.6694Z" stroke="#1C1E2C"/>
<path d="M76.8634 108.939C74.0907 108.939 71.843 111.186 71.843 113.959V118.98C71.843 121.752 74.0907 124 76.8634 124H94.9369C97.7096 124 99.9573 121.752 99.9573 118.98V113.959C99.9573 111.186 97.7096 108.939 94.9369 108.939H76.8634Z" stroke="#1C1E2C"/>
<path d="M261.971 95.2584H251.751L221.02 48.7616V95.2584H210.8V32.8868H221.02L251.751 79.293V32.8868H261.971V95.2584Z" fill="#1C1E2C"/>
<path d="M320.305 74.3835H282.591C282.882 78.3295 284.355 81.4935 286.974 83.8755C289.611 86.2578 292.829 87.4578 296.648 87.4578C302.139 87.4578 306.031 85.1667 308.304 80.5661H319.323C317.832 85.1121 315.123 88.8218 311.213 91.713C307.304 94.6044 302.449 96.059 296.648 96.059C291.938 96.059 287.701 95.0044 283.973 92.8767C280.246 90.7492 277.318 87.767 275.19 83.9118C273.063 80.057 272.008 75.6018 272.008 70.5101C272.008 65.4187 273.045 60.9635 275.099 57.1084C277.154 53.2535 280.064 50.2895 283.791 48.1984C287.519 46.107 291.811 45.0707 296.648 45.0707C301.485 45.0707 305.467 46.089 309.104 48.1255C312.741 50.1621 315.577 53.017 317.614 56.6904C319.651 60.3635 320.669 64.5821 320.669 69.3647C320.669 71.2195 320.542 72.8924 320.305 74.3835ZM309.995 66.1461C309.94 62.3818 308.595 59.3632 305.958 57.0904C303.321 54.8172 300.066 53.6898 296.193 53.6898C292.665 53.6898 289.647 54.8172 287.137 57.0538C284.628 59.2907 283.137 62.3273 282.664 66.1461H309.995Z" fill="#1C1E2C"/>
<path d="M339.472 92.8767C335.708 90.7492 332.744 87.767 330.598 83.9118C328.452 80.057 327.379 75.6018 327.379 70.5101C327.379 65.4187 328.489 61.0364 330.689 57.163C332.889 53.2898 335.908 50.2895 339.745 48.1984C343.563 46.107 347.837 45.0707 352.565 45.0707C357.293 45.0707 361.548 46.1252 365.385 48.1984C369.202 50.2895 372.222 53.2715 374.439 57.163C376.639 61.0544 377.751 65.4915 377.751 70.5101C377.751 75.529 376.622 79.9841 374.351 83.8575C372.076 87.7487 368.985 90.7492 365.076 92.8587C361.165 94.9678 356.839 96.0407 352.128 96.0407C347.419 96.0407 343.254 94.9861 339.49 92.8587L339.472 92.8767ZM359.493 85.3121C361.785 84.0575 363.656 82.1844 365.093 79.675C366.531 77.1655 367.239 74.1107 367.239 70.5284C367.239 66.9461 366.548 63.9092 365.185 61.4364C363.802 58.9632 361.985 57.0904 359.711 55.8355C357.439 54.581 355.002 53.9444 352.365 53.9444C349.728 53.9444 347.309 54.581 345.055 55.8355C342.818 57.0904 341.036 58.9632 339.727 61.4364C338.417 63.9092 337.763 66.9461 337.763 70.5284C337.763 75.8381 339.127 79.9478 341.836 82.8573C344.545 85.7487 347.982 87.2032 352.091 87.2032C354.728 87.2032 357.182 86.585 359.493 85.3121Z" fill="#1C1E2C"/>
<path d="M442.959 95.2585H427.628L402.008 56.4536V95.2585H386.679V32.3595H402.008L427.628 71.3282V32.3595H442.959V95.2585Z" fill="#1C1E2C"/>
<path d="M463.616 92.8405C459.705 90.7493 456.633 87.767 454.379 83.8756C452.142 80.0025 451.013 75.4565 451.013 70.2556C451.013 65.055 452.142 60.5999 454.413 56.6722C456.687 52.7625 459.796 49.7622 463.725 47.6711C467.67 45.5796 472.09 44.5433 476.982 44.5433C481.873 44.5433 486.29 45.5796 490.236 47.6711C494.182 49.7622 497.293 52.7625 499.547 56.6722C501.819 60.5816 502.947 65.1096 502.947 70.2556C502.947 75.4019 501.802 79.9113 499.493 83.821C497.182 87.7308 494.056 90.731 490.09 92.8222C486.127 94.9133 481.69 95.9499 476.782 95.9499C471.87 95.9499 467.47 94.9133 463.562 92.8222L463.616 92.8405ZM484.307 79.4933C486.365 77.3476 487.399 74.2745 487.399 70.2556C487.399 66.237 486.399 63.1819 484.399 61.0182C482.399 58.8542 479.927 57.7996 476.999 57.7996C474.07 57.7996 471.525 58.8542 469.562 60.9816C467.596 63.1093 466.596 66.2005 466.596 70.2556C466.596 74.3108 467.562 77.3293 469.507 79.4933C471.453 81.657 473.89 82.7119 476.816 82.7119C479.745 82.7119 482.236 81.639 484.29 79.4933H484.307Z" fill="#1C1E2C"/>
<path d="M589.776 50.362C593.45 54.126 595.285 59.3449 595.285 66.0369V95.2406H580.047V68.0915C580.047 64.8729 579.193 62.3635 577.485 60.5997C575.773 58.8357 573.427 57.9629 570.447 57.9629C567.465 57.9629 565.119 58.854 563.408 60.5997C561.699 62.3635 560.862 64.8549 560.862 68.0915V95.2406H545.625V68.0915C545.625 64.8729 544.77 62.3635 543.079 60.5997C541.37 58.8357 539.025 57.9629 536.042 57.9629C533.059 57.9629 530.713 58.854 529.005 60.5997C527.296 62.3635 526.459 64.8549 526.459 68.0915V95.2406H511.13V45.234H526.459V51.5077C528.005 49.4163 530.042 47.7617 532.55 46.5435C535.059 45.3249 537.896 44.7066 541.062 44.7066C544.825 44.7066 548.187 45.5069 551.133 47.1252C554.079 48.7437 556.408 51.0349 558.082 54.0169C559.808 51.2712 562.173 49.0346 565.153 47.2889C568.136 45.5615 571.39 44.6886 574.919 44.6886C581.139 44.6886 586.067 46.5797 589.759 50.3257L589.776 50.362Z" fill="#1C1E2C"/>
<path d="M605.905 56.6356C607.85 52.7625 610.487 49.7622 613.833 47.6711C617.179 45.5796 620.907 44.5433 625.036 44.5433C628.562 44.5433 631.653 45.2525 634.31 46.6891C636.965 48.1256 639.019 49.9985 640.456 52.3262V45.2525H655.785V95.2588H640.456V88.1853C638.965 90.5128 636.89 92.4039 634.236 93.8225C631.582 95.2588 628.49 95.9682 624.962 95.9682C620.907 95.9682 617.199 94.9133 613.853 92.7859C610.505 90.6582 607.87 87.6579 605.925 83.7302C603.979 79.8205 603.013 75.2928 603.013 70.1648C603.013 65.0368 603.979 60.5271 605.925 56.6356H605.905ZM637.273 61.1999C635.145 58.9996 632.565 57.8905 629.527 57.8905C626.49 57.8905 623.89 58.9816 621.779 61.1636C619.653 63.3456 618.599 66.3462 618.599 70.1648C618.599 73.9833 619.653 77.0202 621.779 79.2568C623.907 81.4936 626.49 82.6208 629.527 82.6208C632.565 82.6208 635.165 81.5116 637.273 79.3113C639.402 77.1111 640.456 74.0925 640.456 70.2556C640.456 66.4188 639.402 63.4185 637.273 61.1999Z" fill="#1C1E2C"/>
<path d="M666.731 56.6356C668.677 52.7624 671.314 49.7619 674.659 47.6707C678.005 45.5796 681.734 44.543 685.862 44.543C689.154 44.543 692.154 45.2342 694.862 46.5979C697.571 47.9799 699.717 49.8164 701.262 52.1442V28.941H716.594V95.2587H701.262V88.0942C699.828 90.4762 697.791 92.4039 695.117 93.8222C692.462 95.2587 689.371 95.9679 685.842 95.9679C681.717 95.9679 677.988 94.9133 674.642 92.7856C671.297 90.6582 668.659 87.6579 666.714 83.7299C664.768 79.8204 663.805 75.2924 663.805 70.1644C663.805 65.0367 664.768 60.527 666.714 56.6356H666.731ZM698.099 61.1999C695.971 58.9996 693.391 57.8902 690.354 57.8902C687.317 57.8902 684.717 58.9813 682.608 61.1633C680.479 63.3456 679.425 66.3459 679.425 70.1644C679.425 73.9833 680.479 77.0199 682.608 79.2567C684.734 81.4933 687.317 82.6207 690.354 82.6207C693.391 82.6207 695.991 81.5116 698.099 79.3113C700.228 77.111 701.282 74.0924 701.282 70.2556C701.282 66.4187 700.228 63.4182 698.099 61.1999Z" fill="#1C1E2C"/>
<path d="M738.85 95.2588C745.116 95.2588 750.196 90.1785 750.196 83.912C750.196 77.6451 745.116 72.5648 738.85 72.5648C732.584 72.5648 727.504 77.6451 727.504 83.912C727.504 90.1785 732.584 95.2588 738.85 95.2588Z" fill="#1C1E2C"/>
<path d="M738.85 74.4015C744.104 74.4015 748.379 78.6746 748.379 83.9297C748.379 89.1852 744.104 93.4583 738.85 93.4583C733.596 93.4583 729.322 89.1852 729.322 83.9297C729.322 78.6746 733.596 74.4015 738.85 74.4015ZM738.85 72.5829C732.596 72.5829 727.504 77.6563 727.504 83.9297C727.504 90.2035 732.576 95.2769 738.85 95.2769C745.124 95.2769 750.196 90.2035 750.196 83.9297C750.196 77.6563 745.124 72.5829 738.85 72.5829Z" fill="#1C1E2C"/>
</svg>
