<svg width="138" height="138" viewBox="0 0 138 138" fill="none" xmlns="http://www.w3.org/2000/svg">
<rect width="138" height="138" rx="16" fill="#1C1E2C"/>
<path d="M116.285 60.138C118.721 58.6177 117.644 54.8571 114.772 54.8571H85.0314C83.4535 54.8571 82.1743 56.1363 82.1743 57.7143V76.2772C82.1743 78.5206 84.6412 79.8888 86.5443 78.701L116.285 60.138Z" fill="white"/>
<path d="M61.3172 36.8571C61.3172 35.2792 62.5963 34 64.1743 34H74.46C76.038 34 77.3172 35.2792 77.3172 36.8571V87.4286C77.3172 89.0065 76.038 90.2857 74.46 90.2857H64.1743C62.5963 90.2857 61.3172 89.0065 61.3172 87.4286V36.8571Z" fill="white"/>
<path d="M56.46 57.7143C56.46 56.1363 55.1808 54.8571 53.6029 54.8571H23.8622C20.9908 54.8571 19.9135 58.6177 22.3494 60.138L52.09 78.701C53.9931 79.8888 56.46 78.5206 56.46 76.2772V57.7143Z" fill="white"/>
<path d="M64.1743 95.4286C62.5963 95.4286 61.3172 96.7078 61.3172 98.2857V101.143C61.3172 102.721 62.5963 104 64.1743 104H74.46C76.038 104 77.3172 102.721 77.3172 101.143V98.2857C77.3172 96.7078 76.038 95.4286 74.46 95.4286H64.1743Z" fill="white"/>
<path d="M116.285 60.138C118.721 58.6177 117.644 54.8571 114.772 54.8571H85.0314C83.4535 54.8571 82.1743 56.1363 82.1743 57.7143V76.2772C82.1743 78.5206 84.6412 79.8888 86.5443 78.701L116.285 60.138Z" stroke="white"/>
<path d="M61.3172 36.8571C61.3172 35.2792 62.5963 34 64.1743 34H74.46C76.038 34 77.3172 35.2792 77.3172 36.8571V87.4286C77.3172 89.0065 76.038 90.2857 74.46 90.2857H64.1743C62.5963 90.2857 61.3172 89.0065 61.3172 87.4286V36.8571Z" stroke="white"/>
<path d="M56.46 57.7143C56.46 56.1363 55.1808 54.8571 53.6029 54.8571H23.8622C20.9908 54.8571 19.9135 58.6177 22.3494 60.138L52.09 78.701C53.9931 79.8888 56.46 78.5206 56.46 76.2772V57.7143Z" stroke="white"/>
<path d="M64.1743 95.4286C62.5963 95.4286 61.3172 96.7078 61.3172 98.2857V101.143C61.3172 102.721 62.5963 104 64.1743 104H74.46C76.038 104 77.3172 102.721 77.3172 101.143V98.2857C77.3172 96.7078 76.038 95.4286 74.46 95.4286H64.1743Z" stroke="white"/>
</svg>
