<svg width="540" height="379" viewBox="0 0 540 379" fill="none" xmlns="http://www.w3.org/2000/svg">
<path d="M437.44 94.3502C446.139 88.9202 442.292 75.4898 432.037 75.4898H325.82C320.185 75.4898 315.616 80.0583 315.616 85.6939V151.99C315.616 160.002 324.426 164.889 331.223 160.646L437.44 94.3502Z" fill="white"/>
<path d="M241.126 11.2041C241.126 5.56852 245.695 1 251.33 1H288.065C293.701 1 298.269 5.56852 298.269 11.2041V191.816C298.269 197.452 293.701 202.02 288.065 202.02H251.33C245.695 202.02 241.126 197.452 241.126 191.816V11.2041Z" fill="white"/>
<path d="M223.779 85.6939C223.779 80.0583 219.211 75.4898 213.575 75.4898H107.359C97.1035 75.4898 93.2561 88.9202 101.956 94.3502L208.172 160.646C214.969 164.889 223.779 160.002 223.779 151.99V85.6939Z" fill="white"/>
<path d="M251.33 220.388C245.695 220.388 241.126 224.956 241.126 230.592V240.796C241.126 246.431 245.695 251 251.33 251H288.065C293.701 251 298.269 246.431 298.269 240.796V230.592C298.269 224.956 293.701 220.388 288.065 220.388H251.33Z" fill="white"/>
<path d="M437.44 94.3502C446.139 88.9202 442.292 75.4898 432.037 75.4898H325.82C320.185 75.4898 315.616 80.0583 315.616 85.6939V151.99C315.616 160.002 324.426 164.889 331.223 160.646L437.44 94.3502Z" stroke="white"/>
<path d="M241.126 11.2041C241.126 5.56852 245.695 1 251.33 1H288.065C293.701 1 298.269 5.56852 298.269 11.2041V191.816C298.269 197.452 293.701 202.02 288.065 202.02H251.33C245.695 202.02 241.126 197.452 241.126 191.816V11.2041Z" stroke="white"/>
<path d="M223.779 85.6939C223.779 80.0583 219.211 75.4898 213.575 75.4898H107.359C97.1035 75.4898 93.2561 88.9202 101.956 94.3502L208.172 160.646C214.969 164.889 223.779 160.002 223.779 151.99V85.6939Z" stroke="white"/>
<path d="M251.33 220.388C245.695 220.388 241.126 224.956 241.126 230.592V240.796C241.126 246.431 245.695 251 251.33 251H288.065C293.701 251 298.269 246.431 298.269 240.796V230.592C298.269 224.956 293.701 220.388 288.065 220.388H251.33Z" stroke="white"/>
<path d="M51.1703 377.317H40.9509L10.2194 330.821V377.317H0V314.946H10.2194L40.9509 361.352V314.946H51.1703V377.317Z" fill="white"/>
<path d="M109.505 356.442H71.7911C72.082 360.388 73.5549 363.552 76.1734 365.934C78.8103 368.317 82.0288 369.517 85.8474 369.517C91.3391 369.517 95.2306 367.226 97.5034 362.625H108.523C107.032 367.171 104.323 370.881 100.413 373.772C96.5034 376.663 91.6483 378.118 85.8474 378.118C81.1377 378.118 76.9009 377.063 73.1731 374.936C69.4454 372.808 66.5177 369.826 64.39 365.971C62.2626 362.116 61.208 357.661 61.208 352.569C61.208 347.478 62.2443 343.022 64.2991 339.167C66.354 335.312 69.2634 332.348 72.9911 330.257C76.7189 328.166 81.0106 327.13 85.8474 327.13C90.6843 327.13 94.6669 328.148 98.3037 330.184C101.941 332.221 104.777 335.076 106.814 338.749C108.85 342.422 109.869 346.641 109.869 351.424C109.869 353.278 109.741 354.951 109.505 356.442ZM99.1946 348.205C99.14 344.441 97.7943 341.422 95.1577 339.149C92.5211 336.876 89.266 335.749 85.3929 335.749C81.8651 335.749 78.8466 336.876 76.3371 339.113C73.8277 341.35 72.3366 344.386 71.8637 348.205H99.1946Z" fill="white"/>
<path d="M128.672 374.936C124.908 372.808 121.944 369.826 119.798 365.971C117.652 362.116 116.579 357.661 116.579 352.569C116.579 347.478 117.689 343.095 119.889 339.222C122.089 335.349 125.108 332.348 128.945 330.257C132.763 328.166 137.037 327.13 141.765 327.13C146.493 327.13 150.747 328.184 154.585 330.257C158.402 332.348 161.422 335.33 163.639 339.222C165.839 343.113 166.95 347.55 166.95 352.569C166.95 357.588 165.822 362.043 163.55 365.916C161.276 369.808 158.185 372.808 154.276 374.918C150.365 377.027 146.039 378.1 141.327 378.1C136.618 378.1 132.454 377.045 128.69 374.918L128.672 374.936ZM148.693 367.371C150.985 366.116 152.856 364.243 154.293 361.734C155.73 359.224 156.439 356.17 156.439 352.587C156.439 349.005 155.747 345.968 154.385 343.495C153.002 341.022 151.185 339.149 148.91 337.894C146.639 336.64 144.202 336.003 141.565 336.003C138.928 336.003 136.509 336.64 134.254 337.894C132.018 339.149 130.236 341.022 128.926 343.495C127.617 345.968 126.963 349.005 126.963 352.587C126.963 357.897 128.326 362.007 131.036 364.916C133.745 367.808 137.182 369.262 141.29 369.262C143.927 369.262 146.382 368.644 148.693 367.371Z" fill="white"/>
<path d="M232.159 377.317H216.827L191.207 338.513V377.317H175.879V314.418H191.207L216.827 353.387V314.418H232.159V377.317Z" fill="white"/>
<path d="M252.816 374.899C248.904 372.808 245.833 369.826 243.579 365.935C241.341 362.061 240.213 357.515 240.213 352.315C240.213 347.114 241.341 342.659 243.613 338.731C245.887 334.821 248.996 331.821 252.924 329.73C256.87 327.639 261.29 326.602 266.181 326.602C271.073 326.602 275.49 327.639 279.436 329.73C283.381 331.821 286.493 334.821 288.747 338.731C291.019 342.641 292.147 347.169 292.147 352.315C292.147 357.461 291.001 361.97 288.693 365.88C286.381 369.79 283.256 372.79 279.29 374.881C275.327 376.972 270.89 378.009 265.981 378.009C261.07 378.009 256.67 376.972 252.761 374.881L252.816 374.899ZM273.507 361.552C275.564 359.407 276.599 356.333 276.599 352.315C276.599 348.296 275.599 345.241 273.599 343.077C271.599 340.913 269.127 339.859 266.199 339.859C263.27 339.859 260.724 340.913 258.761 343.041C256.796 345.168 255.796 348.259 255.796 352.315C255.796 356.37 256.761 359.388 258.707 361.552C260.653 363.716 263.09 364.771 266.016 364.771C268.944 364.771 271.436 363.698 273.49 361.552H273.507Z" fill="white"/>
<path d="M378.976 332.421C382.65 336.185 384.484 341.404 384.484 348.096V377.3H369.247V350.15C369.247 346.932 368.393 344.422 366.684 342.659C364.973 340.895 362.627 340.022 359.647 340.022C356.664 340.022 354.319 340.913 352.607 342.659C350.899 344.422 350.061 346.914 350.061 350.15V377.3H334.824V350.15C334.824 346.932 333.97 344.422 332.279 342.659C330.57 340.895 328.224 340.022 325.241 340.022C322.259 340.022 319.913 340.913 318.204 342.659C316.496 344.422 315.659 346.914 315.659 350.15V377.3H300.33V327.293H315.659V333.567C317.204 331.475 319.241 329.821 321.75 328.602C324.259 327.384 327.096 326.766 330.262 326.766C334.024 326.766 337.387 327.566 340.333 329.184C343.279 330.803 345.607 333.094 347.282 336.076C349.007 333.33 351.373 331.094 354.353 329.348C357.336 327.62 360.59 326.748 364.119 326.748C370.339 326.748 375.267 328.639 378.959 332.385L378.976 332.421Z" fill="white"/>
<path d="M395.104 338.695C397.05 334.821 399.687 331.821 403.033 329.73C406.379 327.639 410.107 326.602 414.236 326.602C417.761 326.602 420.853 327.311 423.51 328.748C426.164 330.185 428.219 332.057 429.656 334.385V327.311H444.984V377.318H429.656V370.244C428.164 372.572 426.09 374.463 423.436 375.881C420.781 377.318 417.69 378.027 414.161 378.027C410.107 378.027 406.399 376.972 403.053 374.845C399.704 372.717 397.07 369.717 395.124 365.789C393.179 361.879 392.213 357.352 392.213 352.224C392.213 347.096 393.179 342.586 395.124 338.695H395.104ZM426.473 343.259C424.344 341.059 421.764 339.949 418.727 339.949C415.69 339.949 413.09 341.041 410.979 343.223C408.853 345.405 407.799 348.405 407.799 352.224C407.799 356.042 408.853 359.079 410.979 361.316C413.107 363.553 415.69 364.68 418.727 364.68C421.764 364.68 424.364 363.571 426.473 361.37C428.601 359.17 429.656 356.151 429.656 352.315C429.656 348.478 428.601 345.477 426.473 343.259Z" fill="white"/>
<path d="M455.931 338.695C457.876 334.821 460.513 331.821 463.859 329.73C467.205 327.639 470.933 326.602 475.062 326.602C478.353 326.602 481.353 327.293 484.062 328.657C486.771 330.039 488.916 331.875 490.462 334.203V311H505.793V377.318H490.462V370.153C489.028 372.535 486.991 374.463 484.316 375.881C481.662 377.318 478.571 378.027 475.042 378.027C470.916 378.027 467.188 376.972 463.842 374.845C460.496 372.717 457.859 369.717 455.913 365.789C453.968 361.879 453.005 357.351 453.005 352.223C453.005 347.096 453.968 342.586 455.913 338.695H455.931ZM487.299 343.259C485.171 341.059 482.591 339.949 479.553 339.949C476.516 339.949 473.916 341.04 471.808 343.222C469.679 345.405 468.625 348.405 468.625 352.223C468.625 356.042 469.679 359.079 471.808 361.316C473.933 363.552 476.516 364.68 479.553 364.68C482.591 364.68 485.191 363.571 487.299 361.37C489.428 359.17 490.482 356.151 490.482 352.315C490.482 348.478 489.428 345.477 487.299 343.259Z" fill="white"/>
<path d="M528.05 377.318C534.316 377.318 539.396 372.237 539.396 365.971C539.396 359.704 534.316 354.624 528.05 354.624C521.784 354.624 516.704 359.704 516.704 365.971C516.704 372.237 521.784 377.318 528.05 377.318Z" fill="white"/>
<path d="M528.05 356.46C533.304 356.46 537.578 360.734 537.578 365.989C537.578 371.244 533.304 375.517 528.05 375.517C522.796 375.517 518.521 371.244 518.521 365.989C518.521 360.734 522.796 356.46 528.05 356.46ZM528.05 354.642C521.796 354.642 516.704 359.715 516.704 365.989C516.704 372.262 521.776 377.336 528.05 377.336C534.324 377.336 539.396 372.262 539.396 365.989C539.396 359.715 534.324 354.642 528.05 354.642Z" fill="white"/>
</svg>
