<svg width="200" height="51" viewBox="0 0 200 51" fill="none" xmlns="http://www.w3.org/2000/svg">
<path fill-rule="evenodd" clip-rule="evenodd" d="M25.2492 50.4984C39.1939 50.4984 50.4984 39.1939 50.4984 25.2492C50.4984 11.3044 39.1939 0 25.2492 0C11.3044 0 0 11.3044 0 25.2492C0 39.1939 11.3044 50.4984 25.2492 50.4984ZM25.2554 48.9308C38.3315 48.9308 48.9317 38.3305 48.9317 25.2545C48.9317 12.1784 38.3315 1.57819 25.2554 1.57819C12.1793 1.57819 1.5791 12.1784 1.5791 25.2545C1.5791 38.3305 12.1793 48.9308 25.2554 48.9308Z" fill="white"/>
<path d="M24.8438 11.1445C26.905 11.1445 28.664 11.5132 30.1211 12.2506C31.5869 12.9791 32.7019 14.0141 33.466 15.3556C34.2389 16.6883 34.6253 18.2563 34.6253 20.0598C34.6253 21.8722 34.2344 23.4314 33.4526 24.7374C32.6708 26.0345 31.5381 27.0295 30.0544 27.7225C29.9228 27.7843 29.8677 27.944 29.9374 28.0717L34.9293 37.2122C35.2306 37.7638 34.8314 38.4368 34.2028 38.4368H29.7245C29.419 38.4368 29.1383 38.2686 28.9943 37.9991L24.0586 28.7619L22.2303 25.3425C21.9355 24.7911 22.335 24.1244 22.9604 24.1244H23.7644C24.866 24.1244 25.7811 23.9733 26.5096 23.6713C27.2381 23.3692 27.7801 22.9161 28.1354 22.312C28.4997 21.7079 28.6818 20.9571 28.6818 20.0598C28.6818 19.1536 28.4997 18.3896 28.1354 17.7677C27.7801 17.1458 27.2337 16.6749 26.4963 16.3551C25.7678 16.0264 24.8483 15.862 23.7377 15.862H17.6575C17.3521 15.862 17.0715 15.6939 16.9275 15.4245L15.2904 12.3627C14.9955 11.8112 15.3951 11.1445 16.0204 11.1445H24.8438Z" fill="white"/>
<path d="M19.7432 26.1148C19.8109 26.2374 19.8465 26.3752 19.8465 26.5153V32.2175C19.8465 32.6768 19.4725 33.0483 19.0132 33.0453L14.8986 33.0182C14.4435 33.0152 14.0762 32.6455 14.0762 32.1904V19.0711C14.0762 18.2159 15.2149 17.9222 15.6285 18.6706L19.7432 26.1148Z" fill="white"/>
<path d="M117.133 20.1535C118.195 18.3422 119.638 16.928 121.461 15.9101C123.283 14.8927 125.279 14.3839 127.448 14.3839C129.931 14.3839 132.139 14.9934 134.073 16.2121C136.007 17.4311 137.411 19.1586 138.283 21.3946H133.688C133.084 20.165 132.245 19.2478 131.172 18.6439C130.098 18.0402 128.857 17.7383 127.448 17.7383C125.905 17.7383 124.53 18.0853 123.322 18.7781C122.115 19.4715 121.17 20.4669 120.488 21.7637C119.806 23.0609 119.465 24.5704 119.465 26.2921C119.465 28.0144 119.806 29.524 120.488 30.8207C121.17 32.1179 122.115 33.1185 123.322 33.8229C124.53 34.5274 125.905 34.8796 127.448 34.8796C128.857 34.8796 130.098 34.5777 131.172 33.9738C132.245 33.37 133.084 32.4533 133.688 31.2232H138.283C137.411 33.4597 136.007 35.1814 134.073 36.3891C132.139 37.5967 129.931 38.2004 127.448 38.2004C125.256 38.2004 123.255 37.6921 121.444 36.6742C119.633 35.6569 118.195 34.2422 117.133 32.4308C116.071 30.6194 115.54 28.5732 115.54 26.2921C115.54 24.0111 116.071 21.9649 117.133 20.1535Z" fill="white"/>
<path d="M153.521 34.2492C154.382 33.7796 155.081 33.0751 155.617 32.1359C156.154 31.1967 156.422 30.0563 156.422 28.7144C156.422 27.3726 156.165 26.2379 155.651 25.3097C155.136 24.3819 154.454 23.6827 153.605 23.2131C152.755 22.7436 151.838 22.5087 150.854 22.5087C149.87 22.5087 148.959 22.7436 148.12 23.2131C147.282 23.6827 146.616 24.3819 146.124 25.3097C145.632 26.2379 145.386 27.3726 145.386 28.7144C145.386 30.7051 145.895 32.2423 146.913 33.3268C147.93 34.4118 149.21 34.9537 150.753 34.9537C151.737 34.9537 152.66 34.7189 153.521 34.2492ZM146.024 37.0838C144.615 36.2903 143.508 35.1717 142.703 33.7294C141.898 32.2869 141.495 30.6155 141.495 28.7144C141.495 26.836 141.909 25.1702 142.736 23.7162C143.563 22.2629 144.693 21.1448 146.124 20.3619C147.555 19.5793 149.154 19.1878 150.921 19.1878C152.687 19.1878 154.286 19.5793 155.718 20.3619C157.149 21.1448 158.278 22.2629 159.106 23.7162C159.933 25.1702 160.347 26.836 160.347 28.7144C160.347 30.5929 159.922 32.2591 159.072 33.7126C158.222 35.1665 157.065 36.2903 155.601 37.0838C154.136 37.8778 152.52 38.2747 150.753 38.2747C149.009 38.2747 147.433 37.8778 146.024 37.0838Z" fill="white"/>
<path d="M167.963 37.9778H164.139V19.4947H167.963V37.9778ZM164.34 16.3415C163.871 15.872 163.636 15.2906 163.636 14.5972C163.636 13.9044 163.871 13.3225 164.34 12.8529C164.81 12.3833 165.391 12.1484 166.084 12.1484C166.755 12.1484 167.325 12.3833 167.795 12.8529C168.265 13.3225 168.5 13.9044 168.5 14.5972C168.5 15.2906 168.265 15.872 167.795 16.3415C167.325 16.8112 166.755 17.046 166.084 17.046C165.391 17.046 164.81 16.8112 164.34 16.3415Z" fill="white"/>
<path d="M186.229 20.0947C187.381 20.6986 188.281 21.5932 188.93 22.7782C189.578 23.9639 189.903 25.3948 189.903 27.072V37.9739H186.112V27.6422C186.112 25.9876 185.698 24.7187 184.871 23.8349C184.043 22.9517 182.914 22.5099 181.483 22.5099C180.051 22.5099 178.917 22.9517 178.078 23.8349C177.24 24.7187 176.82 25.9876 176.82 27.6422V37.9739H172.996V19.4908H176.82V21.6042C177.446 20.8442 178.246 20.2514 179.219 19.8263C180.191 19.4018 181.226 19.189 182.321 19.189C183.775 19.189 185.077 19.4908 186.229 20.0947Z" fill="white"/>
<path d="M65.2898 32.9983H75.4203V37.6946H58.7822V33.3337L68.8456 18.8425H58.7822V14.1463H75.4203V18.5071L65.2898 32.9983Z" fill="white"/>
<path d="M90.8767 24.9117C90.0826 24.0846 89.1156 23.6706 87.975 23.6706C86.8346 23.6706 85.867 24.0789 85.0735 24.895C84.2794 25.7115 83.8826 26.8352 83.8826 28.2662C83.8826 29.6975 84.2794 30.8324 85.0735 31.6708C85.867 32.5095 86.8346 32.9288 87.975 32.9288C89.1156 32.9288 90.0826 32.5153 90.8767 31.6877C91.6702 30.8606 92.0676 29.7311 92.0676 28.2996C92.0676 26.8688 91.6702 25.7393 90.8767 24.9117ZM79.1361 23.2009C79.8625 21.7474 80.8522 20.6295 82.1049 19.8464C83.357 19.0639 84.7548 18.6725 86.2979 18.6725C87.6171 18.6725 88.7744 18.9407 89.7697 19.4775C90.7645 20.0141 91.5308 20.7186 92.0676 21.5908V18.9407H97.8036V37.6586H92.0676V35.0086C91.5083 35.8808 90.731 36.5852 89.7361 37.1219C88.7408 37.6586 87.5836 37.927 86.2643 37.927C84.7434 37.927 83.357 37.5302 82.1049 36.7361C80.8522 35.9426 79.8625 34.8131 79.1361 33.3481C78.4092 31.8838 78.0459 30.1897 78.0459 28.2662C78.0459 26.3432 78.4092 24.6549 79.1361 23.2009Z" fill="white"/>
<path d="M110.206 19.6527C111.212 19.0604 112.33 18.7637 113.561 18.7637V24.8353H111.984C110.553 24.8353 109.479 25.1429 108.764 25.7578C108.048 26.3731 107.69 27.4517 107.69 28.9948V37.6829H101.954V18.965H107.69V22.0845C108.361 21.0563 109.2 20.2454 110.206 19.6527Z" fill="white"/>
<circle cx="196.296" cy="34.8806" r="3.39415" fill="white"/>
<circle cx="196.289" cy="34.8937" r="2.89745" fill="white"/>
</svg>
