<svg width="587" height="587" viewBox="0 0 587 587" fill="none" xmlns="http://www.w3.org/2000/svg">
<circle cx="293.5" cy="293.5" r="293.5" fill="#D9D9D9"/>
<circle cx="293.5" cy="293.5" r="293.5" fill="url(#paint0_linear_597_24)"/>
<circle cx="293.506" cy="293.502" r="275.216" fill="#2735D5"/>
<path d="M288.746 129.906C312.704 129.906 333.152 134.192 350.089 142.764C367.128 151.232 380.089 163.263 388.97 178.857C397.955 194.348 402.447 212.575 402.447 233.539C402.447 254.606 397.903 272.73 388.815 287.911C379.727 302.989 366.56 314.555 349.314 322.611C347.784 323.33 347.143 325.186 347.954 326.67L405.981 432.92C409.483 439.333 404.842 447.156 397.535 447.156H345.479C341.927 447.156 338.665 445.2 336.991 442.068L279.617 334.693L258.366 294.946C254.938 288.536 259.583 280.786 266.852 280.786H276.198C289.004 280.786 299.641 279.03 308.109 275.519C316.577 272.008 322.877 266.741 327.008 259.718C331.242 252.696 333.359 243.969 333.359 233.539C333.359 223.005 331.242 214.124 327.008 206.895C322.877 199.666 316.526 194.193 307.954 190.475C299.486 186.654 288.797 184.743 275.888 184.743H205.211C201.661 184.743 198.399 182.789 196.725 179.658L177.695 144.066C174.268 137.656 178.912 129.906 186.181 129.906H288.746Z" fill="white"/>
<path d="M229.455 303.923C230.242 305.348 230.656 306.95 230.656 308.578V374.861C230.656 380.201 226.309 384.519 220.969 384.484L173.141 384.169C167.851 384.134 163.581 379.836 163.581 374.546V222.046C163.581 212.105 176.817 208.69 181.626 217.391L229.455 303.923Z" fill="white"/>
<defs>
<linearGradient id="paint0_linear_597_24" x1="0.000845478" y1="293.5" x2="587.001" y2="293.5" gradientUnits="userSpaceOnUse">
<stop stop-color="#2735D5"/>
<stop offset="0.0132365" stop-color="#2735D5"/>
<stop offset="0.375879" stop-color="#8573FE"/>
<stop offset="0.387556" stop-color="#8573FE"/>
<stop offset="0.707473" stop-color="#EDAEFD"/>
<stop offset="1" stop-color="#32EDFF"/>
</linearGradient>
</defs>
</svg>
