<svg width="142" height="84" viewBox="0 0 142 84" fill="none" xmlns="http://www.w3.org/2000/svg">
<circle cx="71.1553" cy="25.4418" r="24.9434" fill="#D9D9D9"/>
<circle cx="71.1553" cy="25.4418" r="24.9434" fill="url(#paint0_linear_597_90)"/>
<ellipse cx="71.1572" cy="25.4426" rx="23.3896" ry="23.3896" fill="#2735D5"/>
<path d="M70.7515 11.5392C72.7877 11.5392 74.5255 11.9034 75.9648 12.6319C77.413 13.3516 78.5145 14.374 79.2692 15.6993C80.0328 17.0158 80.4146 18.5649 80.4146 20.3465C80.4146 22.137 80.0284 23.6773 79.2561 24.9674C78.4837 26.2488 77.3647 27.2318 75.899 27.9164C75.769 27.9775 75.7145 28.1353 75.7834 28.2614L80.7149 37.2912C81.0125 37.8362 80.6181 38.501 79.9972 38.501H75.5731C75.2713 38.501 74.994 38.3348 74.8517 38.0686L69.9758 28.9432L68.1697 25.5653C67.8784 25.0205 68.2731 24.3618 68.8909 24.3618H69.6852C70.7735 24.3618 71.6775 24.2126 72.3971 23.9142C73.1168 23.6158 73.6522 23.1682 74.0033 22.5714C74.3631 21.9746 74.543 21.233 74.543 20.3465C74.543 19.4513 74.3631 18.6965 74.0033 18.0822C73.6522 17.4678 73.1124 17.0026 72.384 16.6867C71.6643 16.3619 70.7559 16.1996 69.6588 16.1996H63.6522C63.3505 16.1996 63.0733 16.0334 62.931 15.7674L61.3138 12.7426C61.0225 12.1978 61.4172 11.5392 62.035 11.5392H70.7515Z" fill="white"/>
<path d="M65.7126 26.3282C65.7796 26.4493 65.8147 26.5854 65.8147 26.7238V32.3569C65.8147 32.8107 65.4452 33.1777 64.9915 33.1747L60.9267 33.148C60.4771 33.145 60.1143 32.7798 60.1143 32.3302V19.3698C60.1143 18.5249 61.2392 18.2347 61.6478 18.9741L65.7126 26.3282Z" fill="white"/>
<path d="M58.915 65.3295C59.9639 63.5402 61.3889 62.1431 63.1897 61.1375C64.9901 60.1325 66.9618 59.6298 69.105 59.6298C71.5572 59.6298 73.7386 60.2319 75.6498 61.4359C77.5604 62.6401 78.947 64.3467 79.8087 66.5556H75.2688C74.6722 65.3409 73.8437 64.4348 72.7834 63.8383C71.723 63.2418 70.4968 62.9436 69.105 62.9436C67.5807 62.9436 66.222 63.2864 65.029 63.9709C63.836 64.6559 62.9024 65.6392 62.2289 66.9202C61.5547 68.2017 61.218 69.693 61.218 71.3938C61.218 73.0953 61.5547 74.5866 62.2289 75.8676C62.9024 77.1491 63.836 78.1375 65.029 78.8334C66.222 79.5294 67.5807 79.8773 69.105 79.8773C70.4968 79.8773 71.723 79.5791 72.7834 78.9825C73.8437 78.386 74.6722 77.4805 75.2688 76.2652H79.8087C78.947 78.4746 77.5604 80.1754 75.6498 81.3686C73.7386 82.5615 71.5572 83.158 69.105 83.158C66.9396 83.158 64.9627 82.6558 63.1733 81.6502C61.3838 80.6452 59.9639 79.2477 58.915 77.4582C57.8654 75.6687 57.3408 73.6473 57.3408 71.3938C57.3408 69.1405 57.8654 67.119 58.915 65.3295Z" fill="white"/>
<path d="M94.8703 79.2769C95.7206 78.8129 96.4113 78.117 96.9414 77.1892C97.4716 76.2613 97.7368 75.1347 97.7368 73.8091C97.7368 72.4835 97.4825 71.3626 96.9746 70.4455C96.4662 69.529 95.7925 68.8383 94.9532 68.3744C94.1134 67.9105 93.2077 67.6785 92.2358 67.6785C91.2635 67.6785 90.3636 67.9105 89.5351 68.3744C88.7067 68.8383 88.049 69.529 87.5634 70.4455C87.0771 71.3626 86.8343 72.4835 86.8343 73.8091C86.8343 75.7756 87.3366 77.2943 88.3421 78.3656C89.3472 79.4375 90.6121 79.9728 92.1365 79.9728C93.1084 79.9728 94.0195 79.7409 94.8703 79.2769ZM87.4639 82.0771C86.0721 81.2932 84.9785 80.1881 84.1833 78.7633C83.3879 77.3383 82.9902 75.6871 82.9902 73.8091C82.9902 71.9534 83.3988 70.3078 84.2164 68.8714C85.0335 67.4356 86.1492 66.3312 87.5634 65.5577C88.9769 64.7846 90.5566 64.3978 92.3021 64.3978C94.047 64.3978 95.6267 64.7846 97.0409 65.5577C98.4544 66.3312 99.5703 67.4356 100.388 68.8714C101.205 70.3078 101.614 71.9534 101.614 73.8091C101.614 75.6648 101.194 77.3108 100.355 78.7467C99.5149 80.183 98.3715 81.2932 96.925 82.0771C95.4777 82.8615 93.8814 83.2535 92.1365 83.2535C90.4133 83.2535 88.8557 82.8615 87.4639 82.0771Z" fill="white"/>
<path d="M109.136 82.9583H105.358V64.699H109.136V82.9583ZM105.557 61.584C105.093 61.1201 104.861 60.5458 104.861 59.8608C104.861 59.1763 105.093 58.6016 105.557 58.1376C106.021 57.6737 106.595 57.4417 107.28 57.4417C107.943 57.4417 108.506 57.6737 108.97 58.1376C109.434 58.6016 109.666 59.1763 109.666 59.8608C109.666 60.5458 109.434 61.1201 108.97 61.584C108.506 62.048 107.943 62.2799 107.28 62.2799C106.595 62.2799 106.021 62.048 105.557 61.584Z" fill="white"/>
<path d="M127.179 65.2967C128.316 65.8932 129.205 66.777 129.846 67.9477C130.487 69.119 130.807 70.5326 130.807 72.1895V82.9594H127.063V72.7528C127.063 71.1182 126.654 69.8647 125.836 68.9916C125.019 68.1191 123.903 67.6826 122.489 67.6826C121.075 67.6826 119.954 68.1191 119.126 68.9916C118.297 69.8647 117.883 71.1182 117.883 72.7528V82.9594H114.105V64.7001H117.883V66.7879C118.502 66.0371 119.292 65.4515 120.253 65.0315C121.214 64.6122 122.235 64.402 123.318 64.402C124.754 64.402 126.04 64.7001 127.179 65.2967Z" fill="white"/>
<path d="M7.69834 78.0216H17.7061V82.661H1.26953V78.353L11.211 64.0372H1.26953V59.3979H17.7061V63.7059L7.69834 78.0216Z" fill="white"/>
<path d="M32.9664 70.0702C32.182 69.2532 31.2267 68.8442 30.0999 68.8442C28.9733 68.8442 28.0174 69.2475 27.2335 70.0538C26.4491 70.8604 26.0571 71.9705 26.0571 73.3842C26.0571 74.7981 26.4491 75.9193 27.2335 76.7476C28.0174 77.5761 28.9733 77.9903 30.0999 77.9903C31.2267 77.9903 32.182 77.5818 32.9664 76.7643C33.7503 75.9472 34.1429 74.8314 34.1429 73.4172C34.1429 72.0037 33.7503 70.8878 32.9664 70.0702ZM21.368 68.3802C22.0856 66.9443 23.0633 65.84 24.3008 65.0663C25.5378 64.2933 26.9187 63.9066 28.4431 63.9066C29.7463 63.9066 30.8896 64.1716 31.8728 64.7019C32.8556 65.232 33.6126 65.9279 34.1429 66.7896V64.1716H39.8095V82.6628H34.1429V80.0449C33.5904 80.9066 32.8225 81.6025 31.8397 82.1326C30.8565 82.6628 29.7133 82.928 28.4099 82.928C26.9074 82.928 25.5378 82.536 24.3008 81.7515C23.0633 80.9676 22.0856 79.8518 21.368 78.4046C20.6499 76.9579 20.291 75.2843 20.291 73.3842C20.291 71.4844 20.6499 69.8166 21.368 68.3802Z" fill="white"/>
<path d="M52.0711 64.8492C53.0651 64.264 54.1696 63.9709 55.3849 63.9709V69.969H53.8273C52.4133 69.969 51.3528 70.2729 50.6461 70.8804C49.9387 71.4882 49.5857 72.5538 49.5857 74.0782V82.661H43.9189V64.1698H49.5857V67.2516C50.2484 66.2357 51.0769 65.4347 52.0711 64.8492Z" fill="white"/>
<ellipse cx="137.688" cy="79.9005" rx="3.35305" ry="3.35305" fill="white"/>
<circle cx="137.689" cy="79.9008" r="2.86236" fill="white"/>
<defs>
<linearGradient id="paint0_linear_597_90" x1="46.212" y1="25.4419" x2="96.0989" y2="25.4419" gradientUnits="userSpaceOnUse">
<stop stop-color="#2735D5"/>
<stop offset="0.0132365" stop-color="#2735D5"/>
<stop offset="0.375879" stop-color="#8573FE"/>
<stop offset="0.387556" stop-color="#8573FE"/>
<stop offset="0.707473" stop-color="#EDAEFD"/>
<stop offset="1" stop-color="#32EDFF"/>
</linearGradient>
</defs>
</svg>
