<svg width="126" height="126" viewBox="0 0 126 126" fill="none" xmlns="http://www.w3.org/2000/svg">
<g opacity="0.9">
<path fill-rule="evenodd" clip-rule="evenodd" d="M10 0C4.47715 0 0 4.47715 0 10V116C0 121.523 4.47715 126 10 126H116C121.523 126 126 121.523 126 116V10C126 4.47715 121.523 0 116 0H10ZM13 3C7.47715 3 3 7.47715 3 13V113C3 118.523 7.47715 123 13 123H113C118.523 123 123 118.523 123 113V13C123 7.47715 118.523 3 113 3H13Z" fill="white"/>
<path d="M63.8667 29C69.0095 29 73.3986 29.9199 77.0341 31.7598C80.6917 33.5775 83.4737 36.16 85.38 39.5073C87.3086 42.8324 88.2729 46.7449 88.2729 51.2448C88.2729 55.767 87.2975 59.6573 85.3468 62.9159C83.3961 66.1523 80.5698 68.635 76.8678 70.3641C76.5393 70.5185 76.4018 70.9169 76.5758 71.2355L89.0314 94.0422C89.7831 95.4186 88.7869 97.0978 87.2185 97.0978H76.0445C75.2822 97.0978 74.5819 96.678 74.2227 96.0057L61.9073 72.9577L57.3456 64.4259C56.61 63.0499 57.6069 61.3864 59.1672 61.3864H61.1734C63.9221 61.3864 66.2054 61.0095 68.0231 60.2558C69.8408 59.5021 71.193 58.3716 72.0797 56.8642C72.9885 55.3569 73.443 53.4837 73.443 51.2448C73.443 48.9838 72.9885 47.0774 72.0797 45.5257C71.193 43.974 69.8297 42.7991 67.9898 42.0011C66.1721 41.1809 63.8778 40.7708 61.1069 40.7708H45.9359C45.1738 40.7708 44.4737 40.3512 44.1143 39.6792L40.0296 32.0395C39.294 30.6635 40.2909 29 41.8512 29H63.8667Z" fill="white"/>
<path d="M51.1399 66.3528C51.3089 66.6587 51.3976 67.0025 51.3976 67.352V81.5797C51.3976 82.7258 50.4645 83.6528 49.3185 83.6452L39.052 83.5777C37.9165 83.5702 37 82.6476 37 81.5121V48.7778C37 46.644 39.8412 45.9111 40.8734 47.7786L51.1399 66.3528Z" fill="white"/>
</g>
</svg>
