<svg width="141" height="83" viewBox="0 0 141 83" fill="none" xmlns="http://www.w3.org/2000/svg">
<path fill-rule="evenodd" clip-rule="evenodd" d="M70.4552 49.8869C84.231 49.8869 95.3986 38.7193 95.3986 24.9434C95.3986 11.1676 84.231 0 70.4552 0C56.6793 0 45.5117 11.1676 45.5117 24.9434C45.5117 38.7193 56.6793 49.8869 70.4552 49.8869ZM70.457 48.3337C83.3747 48.3337 93.8465 37.8619 93.8465 24.9441C93.8465 12.0264 83.3747 1.55457 70.457 1.55457C57.5393 1.55457 47.0674 12.0264 47.0674 24.9441C47.0674 37.8619 57.5393 48.3337 70.457 48.3337Z" fill="#1C1E2C"/>
<path d="M70.0513 11.0408C72.0875 11.0408 73.8253 11.405 75.2646 12.1335C76.7128 12.8531 77.8143 13.8756 78.569 15.2009C79.3326 16.5174 79.7144 18.0665 79.7144 19.8481C79.7144 21.6385 79.3282 23.1788 78.5559 24.469C77.7835 25.7504 76.6645 26.7334 75.1988 27.418C75.0688 27.4791 75.0143 27.6368 75.0832 27.763L80.0147 36.7928C80.3124 37.3377 79.9179 38.0026 79.297 38.0026H74.8729C74.5711 38.0026 74.2938 37.8364 74.1516 37.5702L69.2756 28.4448L67.4695 25.0668C67.1782 24.5221 67.5729 23.8634 68.1907 23.8634H68.985C70.0733 23.8634 70.9773 23.7142 71.697 23.4158C72.4166 23.1174 72.952 22.6698 73.3031 22.073C73.6629 21.4762 73.8428 20.7346 73.8428 19.8481C73.8428 18.9529 73.6629 18.1981 73.3031 17.5837C72.952 16.9694 72.4122 16.5042 71.6838 16.1883C70.9641 15.8635 70.0557 15.7012 68.9586 15.7012H62.952C62.6503 15.7012 62.3731 15.535 62.2308 15.2689L60.6136 12.2442C60.3223 11.6994 60.717 11.0408 61.3348 11.0408H70.0513Z" fill="#1C1E2C"/>
<path d="M65.0124 25.8298C65.0794 25.9509 65.1145 26.087 65.1145 26.2254V31.8585C65.1145 32.3123 64.745 32.6793 64.2913 32.6763L60.2265 32.6496C59.7769 32.6466 59.4141 32.2813 59.4141 31.8318V18.8713C59.4141 18.0265 60.539 17.7363 60.9476 18.4757L65.0124 25.8298Z" fill="#1C1E2C"/>
<path d="M58.2148 64.8311C59.2637 63.0417 60.6887 61.6447 62.4895 60.6391C64.2899 59.6341 66.2616 59.1314 68.4048 59.1314C70.857 59.1314 73.0384 59.7335 74.9496 60.9374C76.8602 62.1417 78.2468 63.8483 79.1085 66.0572H74.5686C73.972 64.8425 73.1435 63.9364 72.0832 63.3399C71.0228 62.7434 69.7966 62.4452 68.4048 62.4452C66.8805 62.4452 65.5218 62.788 64.3288 63.4725C63.1358 64.1575 62.2022 65.1408 61.5287 66.4218C60.8545 67.7033 60.5178 69.1946 60.5178 70.8954C60.5178 72.5969 60.8545 74.0882 61.5287 75.3692C62.2022 76.6507 63.1358 77.6391 64.3288 78.335C65.5218 79.0309 66.8805 79.3789 68.4048 79.3789C69.7966 79.3789 71.0228 79.0807 72.0832 78.4841C73.1435 77.8876 73.972 76.982 74.5686 75.7668H79.1085C78.2468 77.9762 76.8602 79.677 74.9496 80.8702C73.0384 82.0631 70.857 82.6595 68.4048 82.6595C66.2394 82.6595 64.2625 82.1574 62.4731 81.1518C60.6836 80.1468 59.2637 78.7493 58.2148 76.9598C57.1652 75.1703 56.6406 73.1489 56.6406 70.8954C56.6406 68.642 57.1652 66.6206 58.2148 64.8311Z" fill="#1C1E2C"/>
<path d="M94.1701 78.7785C95.0204 78.3145 95.7111 77.6186 96.2412 76.6907C96.7714 75.7629 97.0366 74.6363 97.0366 73.3106C97.0366 71.9851 96.7823 70.8642 96.2744 69.9471C95.766 69.0306 95.0923 68.3398 94.253 67.876C93.4132 67.4121 92.5075 67.1801 91.5356 67.1801C90.5633 67.1801 89.6634 67.4121 88.8349 67.876C88.0065 68.3398 87.3488 69.0306 86.8632 69.9471C86.3769 70.8642 86.1341 71.9851 86.1341 73.3106C86.1341 75.2772 86.6364 76.7959 87.6419 77.8672C88.647 78.9391 89.9119 79.4744 91.4363 79.4744C92.4082 79.4744 93.3193 79.2424 94.1701 78.7785ZM86.7637 81.5787C85.3719 80.7948 84.2783 79.6897 83.4831 78.2649C82.6877 76.8399 82.29 75.1887 82.29 73.3106C82.29 71.455 82.6986 69.8094 83.5162 68.373C84.3333 66.9372 85.449 65.8327 86.8632 65.0593C88.2767 64.2862 89.8564 63.8994 91.6019 63.8994C93.3468 63.8994 94.9265 64.2862 96.3407 65.0593C97.7542 65.8327 98.8701 66.9372 99.6877 68.373C100.505 69.8094 100.914 71.455 100.914 73.3106C100.914 75.1664 100.494 76.8124 99.6545 78.2483C98.8148 79.6846 97.6713 80.7948 96.2248 81.5787C94.7775 82.3631 93.1812 82.7551 91.4363 82.7551C89.7131 82.7551 88.1555 82.3631 86.7637 81.5787Z" fill="#1C1E2C"/>
<path d="M108.436 82.4598H104.658V64.2006H108.436V82.4598ZM104.857 61.0856C104.393 60.6217 104.161 60.0474 104.161 59.3624C104.161 58.6779 104.393 58.1032 104.857 57.6392C105.321 57.1753 105.895 56.9433 106.58 56.9433C107.243 56.9433 107.806 57.1753 108.27 57.6392C108.734 58.1032 108.966 58.6779 108.966 59.3624C108.966 60.0474 108.734 60.6217 108.27 61.0856C107.806 61.5496 107.243 61.7815 106.58 61.7815C105.895 61.7815 105.321 61.5496 104.857 61.0856Z" fill="#1C1E2C"/>
<path d="M126.478 64.7983C127.616 65.3948 128.505 66.2786 129.146 67.4493C129.786 68.6206 130.107 70.0341 130.107 71.691V82.4609H126.362V72.2544C126.362 70.6198 125.953 69.3663 125.136 68.4932C124.319 67.6207 123.203 67.1842 121.789 67.1842C120.375 67.1842 119.254 67.6207 118.426 68.4932C117.597 69.3663 117.183 70.6198 117.183 72.2544V82.4609H113.405V64.2017H117.183V66.2895C117.801 65.5387 118.591 64.9531 119.552 64.5331C120.513 64.1138 121.535 63.9036 122.618 63.9036C124.054 63.9036 125.34 64.2017 126.478 64.7983Z" fill="#1C1E2C"/>
<path d="M6.99815 77.5232H17.0059V82.1626H0.569336V77.8546L10.5108 63.5388H0.569336V58.8995H17.0059V63.2074L6.99815 77.5232Z" fill="#1C1E2C"/>
<path d="M32.2662 69.5718C31.4818 68.7548 30.5265 68.3458 29.3997 68.3458C28.2731 68.3458 27.3172 68.7491 26.5333 69.5554C25.7489 70.362 25.3569 71.4721 25.3569 72.8857C25.3569 74.2997 25.7489 75.4209 26.5333 76.2492C27.3172 77.0777 28.2731 77.4919 29.3997 77.4919C30.5265 77.4919 31.4818 77.0834 32.2662 76.2658C33.0501 75.4488 33.4427 74.333 33.4427 72.9188C33.4427 71.5053 33.0501 70.3894 32.2662 69.5718ZM20.6678 67.8818C21.3854 66.4459 22.3631 65.3415 23.6006 64.5679C24.8376 63.7949 26.2185 63.4082 27.7429 63.4082C29.0461 63.4082 30.1894 63.6732 31.1726 64.2035C32.1554 64.7336 32.9124 65.4295 33.4427 66.2912V63.6732H39.1093V82.1644H33.4427V79.5465C32.8902 80.4081 32.1223 81.104 31.1395 81.6342C30.1563 82.1644 29.0131 82.4296 27.7097 82.4296C26.2072 82.4296 24.8376 82.0376 23.6006 81.2531C22.3631 80.4692 21.3854 79.3534 20.6678 77.9062C19.9497 76.4595 19.5908 74.7859 19.5908 72.8857C19.5908 70.986 19.9497 69.3182 20.6678 67.8818Z" fill="#1C1E2C"/>
<path d="M51.3709 64.3507C52.3649 63.7656 53.4694 63.4725 54.6847 63.4725V69.4706H53.1271C51.7131 69.4706 50.6526 69.7745 49.9459 70.382C49.2385 70.9898 48.8855 72.0554 48.8855 73.5798V82.1626H43.2188V63.6714H48.8855V66.7532C49.5482 65.7373 50.3767 64.9363 51.3709 64.3507Z" fill="#1C1E2C"/>
<ellipse cx="136.988" cy="79.4021" rx="3.35305" ry="3.35305" fill="#1C1E2C"/>
<circle cx="136.988" cy="79.4024" r="2.86236" fill="#1C1E2C"/>
</svg>
