<svg width="2325" height="587" viewBox="0 0 2325 587" fill="none" xmlns="http://www.w3.org/2000/svg">
<circle cx="293.5" cy="293.5" r="293.5" fill="#D9D9D9"/>
<circle cx="293.5" cy="293.5" r="293.5" fill="url(#paint0_linear_133_2)"/>
<circle cx="293.506" cy="293.502" r="275.216" fill="#2735D5"/>
<path d="M288.746 129.906C312.704 129.906 333.152 134.192 350.089 142.764C367.128 151.232 380.089 163.263 388.97 178.857C397.955 194.348 402.447 212.575 402.447 233.539C402.447 254.606 397.903 272.73 388.815 287.911C379.727 302.989 366.56 314.555 349.314 322.611C347.784 323.33 347.143 325.186 347.954 326.67L405.981 432.92C409.483 439.333 404.842 447.156 397.535 447.156H345.479C341.927 447.156 338.665 445.2 336.991 442.068L279.617 334.693L258.366 294.946C254.938 288.536 259.583 280.786 266.852 280.786H276.198C289.004 280.786 299.641 279.03 308.109 275.519C316.577 272.008 322.877 266.741 327.008 259.718C331.242 252.696 333.359 243.969 333.359 233.539C333.359 223.005 331.242 214.124 327.008 206.895C322.877 199.666 316.526 194.193 307.954 190.475C299.486 186.654 288.797 184.743 275.888 184.743H205.211C201.661 184.743 198.399 182.789 196.725 179.658L177.695 144.066C174.268 137.656 178.912 129.906 186.181 129.906H288.746Z" fill="white"/>
<path d="M229.455 303.923C230.242 305.348 230.656 306.95 230.656 308.578V374.861C230.656 380.201 226.309 384.519 220.969 384.484L173.141 384.169C167.851 384.134 163.581 379.836 163.581 374.546V222.046C163.581 212.105 176.817 208.69 181.626 217.391L229.455 303.923Z" fill="white"/>
<path d="M1361.53 234.417C1373.87 213.362 1390.64 196.924 1411.83 185.091C1433.02 173.265 1456.22 167.35 1481.43 167.35C1510.29 167.35 1535.96 174.436 1558.44 188.602C1580.93 202.772 1597.24 222.853 1607.38 248.844H1553.96C1546.94 234.551 1537.19 223.89 1524.72 216.87C1512.24 209.852 1497.81 206.343 1481.43 206.343C1463.5 206.343 1447.51 210.377 1433.47 218.43C1419.44 226.49 1408.45 238.061 1400.53 253.134C1392.59 268.213 1388.63 285.76 1388.63 305.773C1388.63 325.794 1392.59 343.341 1400.53 358.415C1408.45 373.493 1419.44 385.124 1433.47 393.313C1447.51 401.501 1463.5 405.595 1481.43 405.595C1497.81 405.595 1512.24 402.086 1524.72 395.066C1537.19 388.048 1546.94 377.392 1553.96 363.093H1607.38C1597.24 389.09 1580.93 409.103 1558.44 423.142C1535.96 437.179 1510.29 444.197 1481.43 444.197C1455.95 444.197 1432.69 438.289 1411.64 426.456C1390.58 414.631 1373.87 398.187 1361.53 377.131C1349.18 356.074 1343.01 332.289 1343.01 305.773C1343.01 279.259 1349.18 255.474 1361.53 234.417Z" fill="#1C1E2C"/>
<path d="M1784.58 398.587C1794.59 393.128 1802.71 384.939 1808.95 374.022C1815.19 363.104 1818.31 349.848 1818.31 334.249C1818.31 318.652 1815.32 305.463 1809.34 294.672C1803.36 283.888 1795.43 275.76 1785.56 270.302C1775.68 264.843 1765.02 262.113 1753.58 262.113C1742.14 262.113 1731.55 264.843 1721.8 270.302C1712.06 275.76 1704.32 283.888 1698.6 294.672C1692.88 305.463 1690.02 318.652 1690.02 334.249C1690.02 357.389 1695.93 375.259 1707.77 387.865C1719.59 400.477 1734.48 406.776 1752.41 406.776C1763.85 406.776 1774.57 404.047 1784.58 398.587ZM1697.43 431.536C1681.06 422.312 1668.19 409.31 1658.83 392.544C1649.47 375.777 1644.79 356.348 1644.79 334.249C1644.79 312.414 1649.6 293.052 1659.22 276.15C1668.83 259.256 1681.96 246.26 1698.6 237.159C1715.24 228.062 1733.82 223.511 1754.36 223.511C1774.89 223.511 1793.48 228.062 1810.12 237.159C1826.75 246.26 1839.88 259.256 1849.5 276.15C1859.12 293.052 1863.93 312.414 1863.93 334.249C1863.93 356.086 1858.99 375.454 1849.11 392.349C1839.23 409.249 1825.78 422.312 1808.76 431.536C1791.73 440.767 1772.94 445.379 1752.41 445.379C1732.14 445.379 1713.81 440.767 1697.43 431.536Z" fill="#1C1E2C"/>
<path d="M1952.44 441.859H1907.99V227.01H1952.44V441.859ZM1910.33 190.356C1904.87 184.898 1902.14 178.14 1902.14 170.08C1902.14 162.027 1904.87 155.263 1910.33 149.804C1915.79 144.346 1922.55 141.616 1930.61 141.616C1938.41 141.616 1945.03 144.346 1950.49 149.804C1955.95 155.263 1958.68 162.027 1958.68 170.08C1958.68 178.14 1955.95 184.898 1950.49 190.356C1945.03 195.816 1938.41 198.545 1930.61 198.545C1922.55 198.545 1915.79 195.816 1910.33 190.356Z" fill="#1C1E2C"/>
<path d="M2164.76 234.029C2178.14 241.048 2188.6 251.448 2196.15 265.223C2203.68 279.005 2207.45 295.638 2207.45 315.134V441.859H2163.39V321.762C2163.39 302.529 2158.58 287.779 2148.97 277.505C2139.35 267.24 2126.22 262.103 2109.58 262.103C2092.94 262.103 2079.75 267.24 2070.01 277.505C2060.26 287.779 2055.38 302.529 2055.38 321.762V441.859H2010.93V227.009H2055.38V251.576C2062.66 242.741 2071.96 235.851 2083.26 230.908C2094.57 225.975 2106.59 223.501 2119.33 223.501C2136.23 223.501 2151.37 227.009 2164.76 234.029Z" fill="#1C1E2C"/>
<path d="M758.883 383.755H876.641V438.345H683.238V387.654L800.216 219.206H683.238V164.617H876.641V215.307L758.883 383.755Z" fill="#1C1E2C"/>
<path d="M1056.21 290.167C1046.98 280.553 1035.74 275.741 1022.48 275.741C1009.23 275.741 997.978 280.487 988.754 289.974C979.524 299.464 974.911 312.527 974.911 329.161C974.911 345.798 979.524 358.991 988.754 368.737C997.978 378.485 1009.23 383.36 1022.48 383.36C1035.74 383.36 1046.98 378.553 1056.21 368.933C1065.43 359.319 1070.05 346.19 1070.05 329.55C1070.05 312.917 1065.43 299.788 1056.21 290.167ZM919.737 270.281C928.181 253.386 939.685 240.391 954.246 231.288C968.801 222.192 985.05 217.642 1002.99 217.642C1018.32 217.642 1031.77 220.76 1043.34 227C1054.91 233.238 1063.81 241.426 1070.05 251.565V220.76H1136.73V438.339H1070.05V407.535C1063.55 417.674 1054.52 425.862 1042.95 432.101C1031.38 438.339 1017.93 441.459 1002.6 441.459C984.916 441.459 968.801 436.847 954.246 427.616C939.685 418.392 928.181 405.263 919.737 388.234C911.287 371.212 907.064 351.519 907.064 329.161C907.064 306.807 911.287 287.183 919.737 270.281Z" fill="#1C1E2C"/>
<path d="M1280.97 228.76C1292.67 221.875 1305.66 218.426 1319.96 218.426V289.003H1301.63C1285 289.003 1272.52 292.579 1264.2 299.727C1255.88 306.879 1251.72 319.417 1251.72 337.354V438.345H1185.05V220.766H1251.72V257.028C1259.52 245.075 1269.27 235.65 1280.97 228.76Z" fill="#1C1E2C"/>
<ellipse cx="2285.4" cy="405.923" rx="39.454" ry="39.4542" fill="#1C1E2C"/>
<ellipse cx="2285.39" cy="405.922" rx="33.6803" ry="33.6803" fill="#1C1E2C"/>
<defs>
<linearGradient id="paint0_linear_133_2" x1="0.000845478" y1="293.5" x2="587.001" y2="293.5" gradientUnits="userSpaceOnUse">
<stop stop-color="#2735D5"/>
<stop offset="0.0132365" stop-color="#2735D5"/>
<stop offset="0.375879" stop-color="#8573FE"/>
<stop offset="0.387556" stop-color="#8573FE"/>
<stop offset="0.707473" stop-color="#EDAEFD"/>
<stop offset="1" stop-color="#32EDFF"/>
</linearGradient>
</defs>
</svg>
