<svg width="126" height="126" viewBox="0 0 126 126" fill="none" xmlns="http://www.w3.org/2000/svg">
<circle cx="63" cy="63" r="63" fill="#F2F2F2"/>
<circle cx="63" cy="63" r="63" fill="url(#paint0_linear_597_224)"/>
<circle cx="63.01" cy="63.009" r="59.0754" fill="#2735D5"/>
<path d="M61.9761 27.8867C67.1189 27.8867 71.508 28.8067 75.1434 30.6465C78.801 32.4643 81.583 35.0467 83.4894 38.394C85.418 41.7191 86.3822 45.6316 86.3822 50.1316C86.3822 54.6537 85.4069 58.544 83.4562 61.8026C81.5055 65.039 78.6791 67.5218 74.9772 69.2508C74.6487 69.4052 74.5112 69.8037 74.6852 70.1222L87.1408 92.9289C87.8925 94.3054 86.8963 95.9845 85.3279 95.9845H74.1539C73.3916 95.9845 72.6913 95.5647 72.3321 94.8924L60.0167 71.8444L55.455 63.3126C54.7193 61.9366 55.7163 60.2731 57.2766 60.2731H59.2828C62.0315 60.2731 64.3147 59.8962 66.1325 59.1425C67.9502 58.3889 69.3024 57.2583 70.1891 55.751C71.0979 54.2436 71.5523 52.3704 71.5523 50.1316C71.5523 47.8705 71.0979 45.9641 70.1891 44.4124C69.3024 42.8607 67.9391 41.6858 66.0992 40.8878C64.2815 40.0676 61.9872 39.6575 59.2163 39.6575H44.0453C43.2832 39.6575 42.583 39.2379 42.2237 38.5659L38.139 30.9262C37.4033 29.5503 38.4003 27.8867 39.9606 27.8867H61.9761Z" fill="white"/>
<path d="M49.2492 65.2395C49.4183 65.5454 49.507 65.8892 49.507 66.2387V80.4664C49.507 81.6125 48.5739 82.5395 47.4278 82.532L37.1614 82.4644C36.0259 82.4569 35.1094 81.5343 35.1094 80.3989V47.6645C35.1094 45.5307 37.9505 44.7978 38.9828 46.6653L49.2492 65.2395Z" fill="white"/>
<defs>
<linearGradient id="paint0_linear_597_224" x1="0.000181482" y1="63.0001" x2="126" y2="63.0001" gradientUnits="userSpaceOnUse">
<stop stop-color="#2735D5"/>
<stop offset="0.0132365" stop-color="#2735D5"/>
<stop offset="0.375879" stop-color="#8573FE"/>
<stop offset="0.387556" stop-color="#8573FE"/>
<stop offset="0.707473" stop-color="#EDAEFD"/>
<stop offset="1" stop-color="#32EDFF"/>
</linearGradient>
</defs>
</svg>
