<svg width="142" height="84" viewBox="0 0 142 84" fill="none" xmlns="http://www.w3.org/2000/svg">
<path fill-rule="evenodd" clip-rule="evenodd" d="M70.8458 50.3853C84.6217 50.3853 95.7892 39.2177 95.7892 25.4418C95.7892 11.666 84.6217 0.498413 70.8458 0.498413C57.0699 0.498413 45.9023 11.666 45.9023 25.4418C45.9023 39.2177 57.0699 50.3853 70.8458 50.3853ZM70.8476 48.8321C83.7653 48.8321 94.2372 38.3603 94.2372 25.4426C94.2372 12.5249 83.7653 2.05298 70.8476 2.05298C57.9299 2.05298 47.458 12.5249 47.458 25.4426C47.458 38.3603 57.9299 48.8321 70.8476 48.8321Z" fill="white"/>
<path d="M70.442 11.5392C72.4781 11.5392 74.2159 11.9034 75.6553 12.6319C77.1034 13.3516 78.2049 14.374 78.9597 15.6993C79.7232 17.0158 80.105 18.5649 80.105 20.3465C80.105 22.137 79.7189 23.6773 78.9465 24.9674C78.1742 26.2488 77.0551 27.2318 75.5895 27.9164C75.4594 27.9775 75.405 28.1353 75.4738 28.2614L80.4053 37.2912C80.703 37.8362 80.3086 38.501 79.6876 38.501H75.2635C74.9617 38.501 74.6844 38.3348 74.5422 38.0686L69.6662 28.9432L67.8601 25.5653C67.5688 25.0205 67.9635 24.3618 68.5813 24.3618H69.3756C70.4639 24.3618 71.3679 24.2126 72.0876 23.9142C72.8073 23.6158 73.3426 23.1682 73.6937 22.5714C74.0535 21.9746 74.2335 21.233 74.2335 20.3465C74.2335 19.4513 74.0535 18.6965 73.6937 18.0822C73.3426 17.4678 72.8029 17.0026 72.0744 16.6867C71.3547 16.3619 70.4463 16.1996 69.3493 16.1996H63.3427C63.0409 16.1996 62.7637 16.0334 62.6215 15.7674L61.0042 12.7426C60.7129 12.1978 61.1076 11.5392 61.7254 11.5392H70.442Z" fill="white"/>
<path d="M65.403 26.3282C65.47 26.4493 65.5051 26.5854 65.5051 26.7238V32.3569C65.5051 32.8107 65.1357 33.1777 64.6819 33.1747L60.6171 33.148C60.1676 33.145 59.8047 32.7798 59.8047 32.3302V19.3698C59.8047 18.5249 60.9296 18.2347 61.3383 18.9741L65.403 26.3282Z" fill="white"/>
<path d="M58.6054 65.3295C59.6544 63.5402 61.0793 62.1431 62.8802 61.1375C64.6806 60.1325 66.6523 59.6298 68.7954 59.6298C71.2476 59.6298 73.429 60.2319 75.3402 61.4359C77.2509 62.6401 78.6374 64.3467 79.4991 66.5556H74.9592C74.3627 65.3409 73.5342 64.4348 72.4738 63.8383C71.4134 63.2418 70.1872 62.9436 68.7954 62.9436C67.2711 62.9436 65.9124 63.2864 64.7194 63.9709C63.5265 64.6559 62.5928 65.6392 61.9193 66.9202C61.2451 68.2017 60.9085 69.693 60.9085 71.3938C60.9085 73.0953 61.2451 74.5866 61.9193 75.8676C62.5928 77.1491 63.5265 78.1375 64.7194 78.8334C65.9124 79.5294 67.2711 79.8773 68.7954 79.8773C70.1872 79.8773 71.4134 79.5791 72.4738 78.9825C73.5342 78.386 74.3627 77.4805 74.9592 76.2652H79.4991C78.6374 78.4746 77.2509 80.1754 75.3402 81.3686C73.429 82.5615 71.2476 83.158 68.7954 83.158C66.63 83.158 64.6531 82.6558 62.8637 81.6502C61.0742 80.6452 59.6544 79.2477 58.6054 77.4582C57.5559 75.6687 57.0312 73.6473 57.0312 71.3938C57.0312 69.1405 57.5559 67.119 58.6054 65.3295Z" fill="white"/>
<path d="M94.5607 79.2769C95.411 78.8129 96.1017 78.117 96.6319 77.1892C97.162 76.2613 97.4272 75.1347 97.4272 73.8091C97.4272 72.4835 97.1729 71.3626 96.665 70.4455C96.1567 69.529 95.4829 68.8383 94.6436 68.3744C93.8039 67.9105 92.8982 67.6785 91.9263 67.6785C90.9539 67.6785 90.054 67.9105 89.2255 68.3744C88.3971 68.8383 87.7395 69.529 87.2538 70.4455C86.7676 71.3626 86.5247 72.4835 86.5247 73.8091C86.5247 75.7756 87.027 77.2943 88.0326 78.3656C89.0376 79.4375 90.3025 79.9728 91.8269 79.9728C92.7988 79.9728 93.71 79.7409 94.5607 79.2769ZM87.1543 82.0771C85.7625 81.2932 84.6689 80.1881 83.8737 78.7633C83.0783 77.3383 82.6807 75.6871 82.6807 73.8091C82.6807 71.9534 83.0892 70.3078 83.9068 68.8714C84.7239 67.4356 85.8396 66.3312 87.2538 65.5577C88.6673 64.7846 90.247 64.3978 91.9926 64.3978C93.7374 64.3978 95.3171 64.7846 96.7313 65.5577C98.1448 66.3312 99.2608 67.4356 100.078 68.8714C100.895 70.3078 101.304 71.9534 101.304 73.8091C101.304 75.6648 100.884 77.3108 100.045 78.7467C99.2054 80.183 98.062 81.2932 96.6154 82.0771C95.1681 82.8615 93.5718 83.2535 91.8269 83.2535C90.1037 83.2535 88.5462 82.8615 87.1543 82.0771Z" fill="white"/>
<path d="M108.827 82.9583H105.049V64.699H108.827V82.9583ZM105.248 61.584C104.784 61.1201 104.552 60.5458 104.552 59.8608C104.552 59.1763 104.784 58.6016 105.248 58.1376C105.712 57.6737 106.286 57.4417 106.971 57.4417C107.634 57.4417 108.197 57.6737 108.661 58.1376C109.125 58.6016 109.357 59.1763 109.357 59.8608C109.357 60.5458 109.125 61.1201 108.661 61.584C108.197 62.048 107.634 62.2799 106.971 62.2799C106.286 62.2799 105.712 62.048 105.248 61.584Z" fill="white"/>
<path d="M126.869 65.2967C128.007 65.8932 128.896 66.777 129.537 67.9477C130.177 69.119 130.498 70.5326 130.498 72.1895V82.9594H126.753V72.7528C126.753 71.1182 126.344 69.8647 125.527 68.9916C124.709 68.1191 123.593 67.6826 122.18 67.6826C120.766 67.6826 119.645 68.1191 118.816 68.9916C117.988 69.8647 117.574 71.1182 117.574 72.7528V82.9594H113.796V64.7001H117.574V66.7879C118.192 66.0371 118.982 65.4515 119.943 65.0315C120.904 64.6122 121.926 64.402 123.008 64.402C124.444 64.402 125.731 64.7001 126.869 65.2967Z" fill="white"/>
<path d="M7.38877 78.0216H17.3966V82.661H0.959961V78.353L10.9015 64.0372H0.959961V59.3979H17.3966V63.7059L7.38877 78.0216Z" fill="white"/>
<path d="M32.6569 70.0702C31.8724 69.2532 30.9171 68.8442 29.7903 68.8442C28.6637 68.8442 27.7079 69.2475 26.924 70.0538C26.1395 70.8604 25.7475 71.9705 25.7475 73.3842C25.7475 74.7981 26.1395 75.9193 26.924 76.7476C27.7079 77.5761 28.6637 77.9903 29.7903 77.9903C30.9171 77.9903 31.8724 77.5818 32.6569 76.7643C33.4408 75.9472 33.8333 74.8314 33.8333 73.4172C33.8333 72.0037 33.4408 70.8878 32.6569 70.0702ZM21.0585 68.3802C21.7761 66.9443 22.7537 65.84 23.9913 65.0663C25.2282 64.2933 26.6091 63.9066 28.1336 63.9066C29.4367 63.9066 30.58 64.1716 31.5633 64.7019C32.5461 65.232 33.303 65.9279 33.8333 66.7896V64.1716H39.4999V82.6628H33.8333V80.0449C33.2808 80.9066 32.5129 81.6025 31.5301 82.1326C30.5469 82.6628 29.4037 82.928 28.1003 82.928C26.5978 82.928 25.2282 82.536 23.9913 81.7515C22.7537 80.9676 21.7761 79.8518 21.0585 78.4046C20.3403 76.9579 19.9814 75.2843 19.9814 73.3842C19.9814 71.4844 20.3403 69.8166 21.0585 68.3802Z" fill="white"/>
<path d="M51.7615 64.8492C52.7555 64.264 53.86 63.9709 55.0753 63.9709V69.969H53.5177C52.1038 69.969 51.0432 70.2729 50.3365 70.8804C49.6292 71.4882 49.2761 72.5538 49.2761 74.0782V82.661H43.6094V64.1698H49.2761V67.2516C49.9388 66.2357 50.7674 65.4347 51.7615 64.8492Z" fill="white"/>
<ellipse cx="137.378" cy="79.9005" rx="3.35305" ry="3.35305" fill="white"/>
<circle cx="137.379" cy="79.9008" r="2.86236" fill="white"/>
</svg>
