<?xml version="1.0" encoding="UTF-8"?><svg id="Layer_1" xmlns="http://www.w3.org/2000/svg" xmlns:xlink="http://www.w3.org/1999/xlink" viewBox="0 0 341.37 268.01"><defs><style>.cls-1{fill:#fff;}.cls-2{fill:url(#New_Gradient_Swatch_2);}.cls-3{fill:url(#New_Gradient_Swatch_2-2);}</style><linearGradient id="New_Gradient_Swatch_2" x1="81.05" y1="101.51" x2="256.11" y2="101.51" gradientTransform="matrix(1, 0, 0, 1, 0, 0)" gradientUnits="userSpaceOnUse"><stop offset="0" stop-color="#2735d5"/><stop offset=".3" stop-color="#7266f5"/><stop offset=".38" stop-color="#8573fe"/><stop offset=".62" stop-color="#d09dfd"/><stop offset=".71" stop-color="#edaefd"/><stop offset="1" stop-color="#32edff"/></linearGradient><linearGradient id="New_Gradient_Swatch_2-2" x1="325.55" y1="260.24" x2="339.77" y2="260.24" xlink:href="#New_Gradient_Swatch_2"/></defs><g><path class="cls-2" d="M254.53,64.69c-.16-.7-.33-1.53-.5-2.4-1.1-5.52-2.47-12.4-8.09-16.14l-.51-.34c-24.41-16.25-38.33-25.3-41.36-26.89C183.24,7.98,159.46,1.69,133.38,.21c-.57-.03-1.14-.05-1.7-.05-7.76,0-14.18,3.34-18.56,9.65-4.61,6.63-8.12,13.76-10.45,18.48-.52,1.06-1.15,2.34-1.51,3-11.11,12.39-21.11,26.66-20.05,46.7,.14,2.58,.59,4.81,1.38,6.75l4.04,17.04,2.18,9.2,.14-.03c8.14,30.23,20.06,54.93,36.28,75.3,6.59,8.27,16.08,13.92,27.43,16.32,.91,.19,1.85,.29,2.79,.29,6.73,0,11.85-4.66,16.8-9.17,1.92-1.75,5.46-4.97,7.02-5.51,1.12,.02,2.28,.02,3.43,.02,.86,0,1.72,0,2.58,.01,.22,0,.44,0,.66,0,17.87,0,32.69-6.9,44.07-20.49,2.96-3.54,10.19-16.17,15.88-28.72,6.41-12.1,8.52-22.84,9.22-26.44h0l.02-.1c2.08-10.7,.68-42.58-.52-47.76Z"/><path class="cls-1" d="M131.69,1.22c.53,0,1.08,.02,1.64,.05,25.93,1.47,49.56,7.72,70.24,18.58,3,1.58,16.89,10.6,41.27,26.84l.51,.34c5.26,3.5,6.58,10.13,7.64,15.47,.17,.84,.34,1.71,.51,2.43,1.19,5.13,2.57,36.72,.51,47.32l-.02,.1c-.68,3.5-2.75,14.15-9.11,26.15l-.02,.03v.03c-5.67,12.46-12.84,25.01-15.74,28.48-11.16,13.35-25.72,20.12-43.26,20.12-.22,0-.43,0-.65,0-.83,0-1.67,0-2.5-.01h-.09c-1.15,0-2.3,0-3.42-.02h-.19l-.18,.06c-1.63,.57-4.54,3.14-7.39,5.73-4.8,4.37-9.77,8.89-16.09,8.89-.87,0-1.74-.09-2.57-.27-11.11-2.35-20.38-7.86-26.82-15.95-16.17-20.3-27.98-44.8-36.09-74.91l-.27-1-.11,.03-1.93-8.16-4.04-17.04-.02-.08-.03-.07c-.75-1.84-1.17-3.94-1.3-6.41-1.05-19.81,8.88-33.79,19.78-45.94l.09-.09,.06-.11c.36-.68,1.01-1.98,1.52-3.03,2.31-4.69,5.8-11.77,10.37-18.34,4.18-6.01,10.3-9.19,17.7-9.19m0-1.06c-7.76,0-14.18,3.34-18.56,9.65-4.61,6.63-8.12,13.76-10.45,18.48-.52,1.06-1.15,2.34-1.51,3-11.11,12.39-21.11,26.66-20.05,46.7,.14,2.58,.59,4.81,1.38,6.75l4.04,17.04,2.18,9.2,.14-.03c8.14,30.23,20.06,54.93,36.28,75.3,6.59,8.27,16.08,13.92,27.43,16.32,.91,.19,1.85,.29,2.79,.29,6.73,0,11.85-4.66,16.8-9.17,1.92-1.75,5.46-4.97,7.02-5.51,1.12,.02,2.28,.02,3.43,.02,.86,0,1.72,0,2.58,.01,.22,0,.44,0,.66,0,17.87,0,32.69-6.9,44.07-20.49,2.96-3.54,10.19-16.17,15.88-28.72,6.41-12.1,8.52-22.84,9.22-26.44h0l.02-.1c2.08-10.7,.68-42.58-.52-47.76-.16-.7-.33-1.53-.5-2.4-1.1-5.52-2.47-12.4-8.09-16.14l-.51-.34c-24.41-16.25-38.33-25.3-41.36-26.89C183.24,7.98,159.46,1.69,133.38,.21c-.57-.03-1.14-.05-1.7-.05h0Z"/></g><g><path class="cls-1" d="M241.12,114.2c-5.22,15.35-11.45,30.19-22.8,42.22-12.21,12.95-27.77,16.77-44.11,9.87-7.41-3.13-14.6-7.37-20.97-12.3-20.58-15.91-35.92-36.5-49.73-58.27-2.37-3.74-9.64-4.1-9.64-4.1,0,0,.19,1.09,.29,1.56,6.83,31.7,17.84,61.63,38.28,87.29,5.49,6.89,13.28,11.14,22.03,12.99,6.67,1.41,15.92-14.74,24.53-14.6,2.08,.03,4.16,.01,6.25,.03,15.16,.15,27.73-5.51,37.45-17.13,3.79-4.53,24.15-40.67,23.9-58.43-.01-1.03-.31-2.05-.68-4.36-1.89,6.01-3.25,10.65-4.8,15.22Z"/><path class="cls-1" d="M97.29,84.21c7.1-.21,14.26-.12,21.26-1.09,12.39-1.72,24.65-4.37,36.99-6.49-17.7-3.62-34.5-11.41-54.25-9.71,3.59-5.81,7.8-8.61,13.77-7.84,3.42,.44,6.8,1.29,10.15,2.13,24.2,6.08,48.26,12.81,72.64,18.06,13.63,2.94,27.6,5.77,41.72,4.97,4.57-.26,5.5-1.46,6.49-6.66,.71-3.76,.27-7.4-.53-10.88-1.02-4.4-3.06-8.57-4.65-12.85-.86,4.66-.52,8.83-.94,12.91-.7,6.84-4.41,10.38-11.25,10.58-3.94,.12-8.07-.16-11.85-1.22-16.34-4.6-32.59-9.55-48.86-14.4-1.15-.34,.61-1.74,2.46-1.75,20.96-.2,24.84,.18,24.84,.18,1.83,.05,5.29,.13,7.22-2.11,.65-.76,.95-1.57,1.1-2.09,.05-.67,.04-1.76-.45-2.9-1.23-2.85-19.65-11.78-26.94-14.97-7.3-3.18-14.82-5.86-23.32-9.1-.7-.27-.63-.84,.13-.84,7.2-.04,15.81,.51,25.35,2.36,14.95,2.9,26.9,7.97,35.35,12.38-.51-2.4-9.58-13.5-13.89-15.76-20.88-10.96-43.38-16.31-66.85-17.64-4.86-.28-8.91,1.09-12.02,5.58-6.5,9.36-6.14,11.56,4.97,14.87,10.62,3.17,21.51,5.45,32.16,8.53,7.91,2.29,15.62,5.24,23.43,7.89,.75,.37,.58,1.41-.4,1.24-9.58-2.22-19.1-4.78-28.76-6.58-12.42-2.32-24.93-4.15-37.45-5.88-1.97-.27-4.89,.41-6.13,1.78-10.37,11.48-19.04,23.7-18.14,40.47,.27,5.12,2.15,6.94,6.67,6.81Z"/><path class="cls-1" d="M165.44,133.12c1.09-.09,2.79-2.63,2.83-4.08,.26-8.81,.13-17.64,.13-27.42-2.5,1.2-4.22,1.91-5.83,2.82-8.77,4.98-17.68,6.74-27.18,1.84-1.9-.98-4.43-1.42-6.52-1.12-1.98,.29-4.49,1.45-5.43,3.02-.74,1.24,0,4.06,1.01,5.54,7.74,11.38,18.1,19.92,29.94,26.74,1.87,1.08,4.06,1.58,6.45,2.48,.16-1.46,.49-2.34,.3-3.11-.92-3.79-.47-6.31,4.3-6.71Z"/><path class="cls-1" d="M210.66,153.87c3.52-3.27,6.77-7.01,9.41-11.02,8.68-13.18,11.98-22.93,11.3-38.71-9.84,29.03-25.24,46.83-57.34,54.55,13.67,6.49,26.18,4.88,36.63-4.81Z"/><path class="cls-1" d="M203.24,112.09c.66-2.48,.6-5.44-3.22-4.66-5.01,1.03-9.89,2.67-15.71,4.3,2.65,4.75,5.85,7.98,10.73,7.91,4.47-.06,7.1-3.4,8.21-7.55Z"/></g><g><g><path class="cls-1" d="M33.67,267.35h-6.4l-19.27-29.16v29.16H1.6v-39.1h6.4l19.27,29.1v-29.1h6.4v39.1Z"/><path class="cls-1" d="M70.24,254.26h-23.65c.19,2.47,1.1,4.46,2.75,5.95,1.65,1.5,3.67,2.25,6.07,2.25,3.45,0,5.88-1.44,7.3-4.32h6.91c-.94,2.85-2.63,5.18-5.08,6.99-2.45,1.82-5.5,2.72-9.13,2.72-2.96,0-5.61-.66-7.95-1.99-2.34-1.33-4.18-3.2-5.51-5.62s-1.99-5.21-1.99-8.4,.65-5.98,1.94-8.4,3.11-4.28,5.45-5.59c2.34-1.31,5.03-1.97,8.06-1.97s5.52,.64,7.81,1.91,4.06,3.06,5.34,5.37c1.27,2.3,1.91,4.95,1.91,7.95,0,1.16-.08,2.21-.22,3.15Zm-6.46-5.17c-.04-2.36-.88-4.25-2.53-5.67-1.65-1.42-3.69-2.14-6.12-2.14-2.21,0-4.1,.7-5.67,2.11-1.57,1.4-2.51,3.31-2.81,5.7h17.13Z"/><path class="cls-1" d="M82.27,265.86c-2.36-1.33-4.21-3.2-5.56-5.62s-2.02-5.21-2.02-8.4,.69-5.94,2.08-8.37c1.38-2.43,3.28-4.31,5.67-5.62,2.4-1.31,5.07-1.97,8.03-1.97s5.64,.66,8.03,1.97c2.4,1.31,4.29,3.18,5.67,5.62,1.39,2.44,2.08,5.22,2.08,8.37s-.71,5.94-2.13,8.37c-1.42,2.44-3.36,4.32-5.81,5.65-2.45,1.33-5.16,1.99-8.12,1.99s-5.56-.66-7.92-1.99Zm12.56-4.75c1.44-.79,2.61-1.97,3.51-3.54,.9-1.57,1.35-3.48,1.35-5.73s-.43-4.15-1.29-5.7c-.86-1.55-2-2.72-3.43-3.51-1.42-.79-2.96-1.18-4.61-1.18s-3.17,.39-4.58,1.18-2.52,1.96-3.34,3.51c-.82,1.55-1.24,3.46-1.24,5.7,0,3.33,.85,5.91,2.56,7.72,1.7,1.82,3.85,2.72,6.43,2.72,1.65,0,3.19-.39,4.64-1.18Z"/><path class="cls-1" d="M147.15,267.35h-9.61l-16.07-24.32v24.32h-9.61v-39.44h9.61l16.07,24.44v-24.44h9.61v39.44Z"/><path class="cls-1" d="M160.1,265.83c-2.45-1.31-4.38-3.18-5.79-5.62-1.4-2.43-2.11-5.28-2.11-8.54s.71-6.06,2.13-8.51c1.42-2.45,3.37-4.34,5.84-5.65,2.47-1.31,5.24-1.97,8.31-1.97s5.84,.66,8.31,1.97c2.47,1.31,4.42,3.19,5.84,5.65,1.42,2.45,2.13,5.29,2.13,8.51s-.72,6.06-2.16,8.51-3.41,4.34-5.9,5.65c-2.49,1.31-5.27,1.97-8.34,1.97s-5.83-.65-8.29-1.97Zm12.98-8.37c1.29-1.35,1.94-3.28,1.94-5.79s-.63-4.44-1.88-5.79c-1.26-1.35-2.8-2.02-4.64-2.02s-3.43,.66-4.66,1.99c-1.24,1.33-1.85,3.27-1.85,5.81s.61,4.44,1.83,5.79c1.22,1.35,2.74,2.02,4.58,2.02s3.4-.67,4.69-2.02Z"/><path class="cls-1" d="M239.19,239.2c2.3,2.36,3.45,5.64,3.45,9.83v18.31h-9.55v-17.02c0-2.02-.53-3.59-1.6-4.69-1.07-1.1-2.54-1.66-4.41-1.66s-3.34,.55-4.41,1.66c-1.07,1.11-1.6,2.67-1.6,4.69v17.02h-9.55v-17.02c0-2.02-.53-3.59-1.6-4.69-1.07-1.1-2.54-1.66-4.41-1.66s-3.34,.55-4.41,1.66c-1.07,1.11-1.6,2.67-1.6,4.69v17.02h-9.61v-31.35h9.61v3.93c.97-1.31,2.25-2.35,3.82-3.12,1.57-.77,3.35-1.15,5.34-1.15,2.36,0,4.47,.51,6.32,1.52,1.85,1.01,3.3,2.45,4.35,4.32,1.09-1.72,2.57-3.13,4.44-4.21,1.87-1.09,3.91-1.63,6.12-1.63,3.89,0,6.99,1.18,9.3,3.54Z"/><path class="cls-1" d="M249.3,243.13c1.22-2.43,2.87-4.31,4.97-5.62,2.1-1.31,4.44-1.97,7.02-1.97,2.21,0,4.15,.45,5.81,1.35,1.67,.9,2.95,2.08,3.85,3.54v-4.44h9.61v31.35h-9.61v-4.44c-.94,1.46-2.24,2.64-3.9,3.54-1.67,.9-3.61,1.35-5.81,1.35-2.55,0-4.87-.66-6.97-1.99-2.1-1.33-3.75-3.22-4.97-5.67-1.22-2.45-1.83-5.29-1.83-8.51s.61-6.05,1.83-8.48Zm19.66,2.87c-1.33-1.38-2.95-2.08-4.86-2.08s-3.53,.68-4.86,2.05c-1.33,1.37-1.99,3.25-1.99,5.65s.66,4.3,1.99,5.7c1.33,1.4,2.95,2.11,4.86,2.11s3.53-.69,4.86-2.08c1.33-1.38,1.99-3.28,1.99-5.67s-.66-4.29-1.99-5.67Z"/><path class="cls-1" d="M287.45,243.13c1.22-2.43,2.87-4.31,4.97-5.62,2.1-1.31,4.44-1.97,7.02-1.97,2.06,0,3.94,.43,5.65,1.29s3.04,2.02,4.02,3.48v-14.55h9.61v41.57h-9.61v-4.49c-.9,1.5-2.18,2.7-3.85,3.59-1.67,.9-3.61,1.35-5.81,1.35-2.58,0-4.92-.66-7.02-1.99-2.1-1.33-3.75-3.22-4.97-5.67-1.22-2.45-1.83-5.29-1.83-8.51s.61-6.05,1.83-8.48Zm19.66,2.87c-1.33-1.38-2.95-2.08-4.86-2.08s-3.53,.68-4.86,2.05c-1.33,1.37-1.99,3.25-1.99,5.65s.66,4.3,1.99,5.7c1.33,1.4,2.95,2.11,4.86,2.11s3.53-.69,4.86-2.08c1.33-1.38,1.99-3.28,1.99-5.67s-.66-4.29-1.99-5.67Z"/></g><g><circle class="cls-3" cx="332.66" cy="260.24" r="7.11"/><path class="cls-1" d="M332.66,254.18c3.34,0,6.05,2.72,6.05,6.05s-2.72,6.05-6.05,6.05-6.05-2.72-6.05-6.05,2.72-6.05,6.05-6.05m0-1.06c-3.93,0-7.11,3.18-7.11,7.11s3.18,7.11,7.11,7.11,7.11-3.18,7.11-7.11-3.18-7.11-7.11-7.11h0Z"/></g></g></svg>