<?xml version="1.0" encoding="UTF-8"?><svg id="Layer_1" xmlns="http://www.w3.org/2000/svg" xmlns:xlink="http://www.w3.org/1999/xlink" viewBox="0 0 341.37 268.01"><defs><style>.cls-1{fill:#231f20;}.cls-2{fill:url(#New_Gradient_Swatch_2);}.cls-3{fill:url(#New_Gradient_Swatch_2-6);}.cls-4{fill:url(#New_Gradient_Swatch_2-5);}.cls-5{fill:url(#New_Gradient_Swatch_2-2);}.cls-6{fill:url(#New_Gradient_Swatch_2-4);}.cls-7{fill:url(#New_Gradient_Swatch_2-3);}</style><linearGradient id="New_Gradient_Swatch_2" x1="92.39" y1="142.6" x2="245.3" y2="142.6" gradientTransform="matrix(1, 0, 0, 1, 0, 0)" gradientUnits="userSpaceOnUse"><stop offset="0" stop-color="#2735d5"/><stop offset=".3" stop-color="#7266f5"/><stop offset=".38" stop-color="#8573fe"/><stop offset=".62" stop-color="#d09dfd"/><stop offset=".71" stop-color="#edaefd"/><stop offset="1" stop-color="#32edff"/></linearGradient><linearGradient id="New_Gradient_Swatch_2-2" x1="89.06" y1="46.82" x2="245.11" y2="46.82" xlink:href="#New_Gradient_Swatch_2"/><linearGradient id="New_Gradient_Swatch_2-3" x1="121.68" y1="122.26" x2="167.04" y2="122.26" xlink:href="#New_Gradient_Swatch_2"/><linearGradient id="New_Gradient_Swatch_2-4" x1="172.64" y1="133.36" x2="230.14" y2="133.36" xlink:href="#New_Gradient_Swatch_2"/><linearGradient id="New_Gradient_Swatch_2-5" x1="182.93" y1="113.45" x2="202.2" y2="113.45" xlink:href="#New_Gradient_Swatch_2"/><linearGradient id="New_Gradient_Swatch_2-6" x1="324.35" y1="260.39" x2="338.58" y2="260.39" xlink:href="#New_Gradient_Swatch_2"/></defs><path class="cls-1" d="M253.24,64.6c-.16-.7-.33-1.53-.5-2.41-1.1-5.53-2.48-12.42-8.1-16.16l-.51-.34c-24.44-16.27-38.38-25.33-41.41-26.92C181.86,7.83,158.05,1.53,131.95,.05c-.57-.03-1.15-.05-1.7-.05-7.77,0-14.19,3.34-18.58,9.66-4.62,6.64-8.13,13.78-10.46,18.5-.52,1.06-1.15,2.34-1.51,3-11.13,12.41-21.14,26.69-20.07,46.76,.14,2.59,.59,4.81,1.38,6.76l4.04,17.06,2.18,9.21,.14-.03c8.15,30.27,20.08,55,36.33,75.39,6.6,8.28,16.1,13.93,27.46,16.34,.91,.19,1.85,.29,2.8,.29,6.73,0,11.86-4.67,16.82-9.18,1.93-1.75,5.46-4.97,7.03-5.52,1.12,.02,2.28,.02,3.44,.02,.86,0,1.72,0,2.58,.01,.22,0,.44,0,.66,0,17.89,0,32.73-6.9,44.12-20.52,2.97-3.55,10.2-16.19,15.9-28.76,6.42-12.11,8.53-22.87,9.23-26.47h0l.02-.1c2.08-10.72,.68-42.63-.52-47.82Z"/><g><path class="cls-2" d="M239.81,114.18c-5.23,15.37-11.47,30.22-22.83,42.27-12.23,12.96-27.8,16.79-44.16,9.88-7.42-3.14-14.62-7.38-21-12.31-20.61-15.93-35.97-36.54-49.79-58.34-2.37-3.75-9.65-4.1-9.65-4.1,0,0,.19,1.09,.29,1.57,6.83,31.74,17.86,61.71,38.32,87.39,5.49,6.9,13.29,11.15,22.06,13,6.68,1.41,15.94-14.75,24.56-14.61,2.08,.03,4.17,.01,6.25,.03,15.18,.15,27.76-5.51,37.49-17.15,3.79-4.53,24.18-40.71,23.93-58.5-.01-1.03-.31-2.05-.68-4.36-1.89,6.01-3.25,10.66-4.81,15.24Z"/><path class="cls-5" d="M95.81,84.15c7.1-.21,14.27-.12,21.28-1.09,12.41-1.72,24.68-4.37,37.03-6.5-17.72-3.62-34.55-11.42-54.32-9.72,3.6-5.82,7.81-8.62,13.79-7.85,3.42,.45,6.81,1.29,10.16,2.14,24.23,6.08,48.32,12.83,72.73,18.09,13.65,2.94,27.63,5.78,41.77,4.97,4.57-.26,5.51-1.46,6.5-6.66,.71-3.76,.27-7.41-.53-10.89-1.02-4.41-3.06-8.58-4.66-12.86-.86,4.67-.52,8.84-.94,12.93-.7,6.85-4.42,10.39-11.26,10.6-3.95,.12-8.08-.16-11.86-1.22-16.36-4.61-32.63-9.57-48.92-14.42-1.16-.34,.61-1.74,2.46-1.75,20.99-.2,24.87,.18,24.87,.18,1.83,.05,5.29,.13,7.23-2.11,.66-.76,.95-1.57,1.1-2.09,.05-.67,.04-1.76-.45-2.9-1.23-2.85-19.67-11.8-26.97-14.98-7.31-3.19-14.83-5.86-23.35-9.12-.7-.27-.63-.84,.14-.85,7.21-.04,15.83,.51,25.38,2.36,14.97,2.9,26.93,7.98,35.39,12.4-.51-2.4-9.59-13.51-13.91-15.78-20.91-10.98-43.43-16.33-66.93-17.66-4.87-.28-8.92,1.1-12.04,5.59-6.51,9.37-6.14,11.58,4.97,14.89,10.64,3.17,21.54,5.46,32.2,8.54,7.92,2.29,15.64,5.24,23.45,7.9,.75,.37,.58,1.41-.41,1.24-9.59-2.22-19.13-4.78-28.8-6.59-12.43-2.32-24.96-4.15-37.49-5.89-1.97-.27-4.9,.41-6.14,1.78-10.38,11.5-19.06,23.73-18.17,40.52,.27,5.12,2.16,6.95,6.68,6.81Z"/><path class="cls-7" d="M164.04,133.12c1.1-.09,2.79-2.63,2.83-4.09,.27-8.82,.13-17.66,.13-27.46-2.5,1.2-4.23,1.91-5.84,2.83-8.78,4.98-17.7,6.75-27.22,1.84-1.9-.98-4.43-1.42-6.53-1.12-1.99,.29-4.49,1.45-5.44,3.03-.74,1.24,0,4.06,1.01,5.55,7.75,11.39,18.13,19.95,29.98,26.77,1.87,1.08,4.07,1.58,6.46,2.48,.16-1.46,.49-2.35,.3-3.11-.92-3.79-.47-6.31,4.31-6.72Z"/><path class="cls-6" d="M209.32,153.89c3.53-3.27,6.78-7.02,9.42-11.04,8.69-13.2,12-22.96,11.31-38.76-9.85,29.06-25.27,46.89-57.41,54.61,13.68,6.5,26.21,4.88,36.67-4.82Z"/><path class="cls-4" d="M201.88,112.06c.66-2.49,.6-5.45-3.22-4.66-5.02,1.03-9.91,2.68-15.73,4.3,2.66,4.75,5.86,7.99,10.74,7.92,4.48-.06,7.11-3.4,8.21-7.56Z"/></g><g><g><path class="cls-1" d="M32.12,267.51h-6.41l-19.29-29.19v29.19H0v-39.15H6.41l19.29,29.13v-29.13h6.41v39.15Z"/><path class="cls-1" d="M68.73,254.4h-23.68c.19,2.47,1.11,4.46,2.76,5.96s3.68,2.25,6.07,2.25c3.45,0,5.89-1.44,7.31-4.33h6.92c-.94,2.85-2.63,5.18-5.09,7-2.46,1.82-5.5,2.73-9.14,2.73-2.96,0-5.62-.67-7.96-2-2.34-1.33-4.18-3.21-5.51-5.62-1.33-2.42-2-5.22-2-8.41s.65-5.99,1.94-8.41c1.29-2.42,3.11-4.28,5.46-5.6,2.34-1.31,5.03-1.97,8.07-1.97s5.53,.64,7.82,1.91,4.07,3.07,5.34,5.37c1.27,2.31,1.91,4.96,1.91,7.96,0,1.16-.08,2.21-.22,3.15Zm-6.47-5.17c-.04-2.36-.88-4.25-2.53-5.68-1.65-1.42-3.69-2.14-6.13-2.14-2.21,0-4.11,.7-5.68,2.11s-2.51,3.31-2.81,5.71h17.15Z"/><path class="cls-1" d="M80.77,266.02c-2.36-1.33-4.22-3.21-5.57-5.62-1.35-2.42-2.03-5.22-2.03-8.41s.69-5.94,2.08-8.38c1.39-2.44,3.28-4.31,5.68-5.62,2.4-1.31,5.08-1.97,8.04-1.97s5.64,.66,8.04,1.97c2.4,1.31,4.29,3.19,5.68,5.62s2.08,5.23,2.08,8.38-.71,5.94-2.14,8.38c-1.43,2.44-3.37,4.32-5.82,5.65s-5.17,2-8.13,2-5.57-.67-7.93-2Zm12.57-4.75c1.44-.79,2.62-1.97,3.52-3.54,.9-1.58,1.35-3.49,1.35-5.74s-.43-4.15-1.29-5.71c-.86-1.55-2.01-2.73-3.43-3.51-1.43-.79-2.96-1.18-4.61-1.18s-3.18,.39-4.58,1.18c-1.41,.79-2.52,1.96-3.35,3.51-.83,1.56-1.24,3.46-1.24,5.71,0,3.34,.85,5.92,2.56,7.73,1.71,1.82,3.85,2.73,6.44,2.73,1.65,0,3.2-.39,4.64-1.18Z"/><path class="cls-1" d="M145.73,267.51h-9.62l-16.09-24.35v24.35h-9.62v-39.48h9.62l16.09,24.47v-24.47h9.62v39.48Z"/><path class="cls-1" d="M158.69,265.99c-2.46-1.31-4.39-3.19-5.79-5.62-1.4-2.44-2.11-5.29-2.11-8.55s.71-6.06,2.14-8.52c1.42-2.46,3.38-4.34,5.85-5.65s5.25-1.97,8.32-1.97,5.85,.66,8.32,1.97,4.42,3.2,5.85,5.65c1.43,2.46,2.14,5.3,2.14,8.52s-.72,6.07-2.17,8.52-3.41,4.34-5.91,5.65-5.28,1.97-8.35,1.97-5.84-.66-8.29-1.97Zm12.99-8.38c1.29-1.35,1.94-3.28,1.94-5.79s-.63-4.44-1.88-5.79-2.8-2.02-4.64-2.02-3.43,.67-4.67,2c-1.24,1.33-1.86,3.27-1.86,5.82s.61,4.44,1.83,5.79c1.22,1.35,2.75,2.03,4.58,2.03s3.4-.67,4.7-2.03Z"/><path class="cls-1" d="M237.88,239.33c2.31,2.36,3.46,5.64,3.46,9.84v18.34h-9.56v-17.04c0-2.02-.54-3.59-1.6-4.7-1.07-1.11-2.54-1.66-4.41-1.66s-3.35,.55-4.42,1.66c-1.07,1.11-1.6,2.67-1.6,4.7v17.04h-9.56v-17.04c0-2.02-.54-3.59-1.6-4.7-1.07-1.11-2.54-1.66-4.41-1.66s-3.35,.55-4.42,1.66c-1.07,1.11-1.6,2.67-1.6,4.7v17.04h-9.62v-31.38h9.62v3.94c.97-1.31,2.25-2.35,3.83-3.12,1.57-.77,3.36-1.15,5.34-1.15,2.36,0,4.47,.51,6.33,1.52s3.31,2.46,4.36,4.33c1.09-1.72,2.57-3.13,4.44-4.22,1.87-1.09,3.92-1.63,6.13-1.63,3.9,0,7,1.18,9.31,3.54Z"/><path class="cls-1" d="M248,243.27c1.22-2.44,2.88-4.31,4.98-5.62s4.44-1.97,7.03-1.97c2.21,0,4.15,.45,5.82,1.35,1.67,.9,2.95,2.08,3.85,3.54v-4.44h9.62v31.38h-9.62v-4.44c-.94,1.46-2.24,2.64-3.91,3.54-1.67,.9-3.61,1.35-5.82,1.35-2.55,0-4.88-.67-6.97-2-2.1-1.33-3.76-3.22-4.98-5.68-1.22-2.46-1.83-5.3-1.83-8.52s.61-6.06,1.83-8.49Zm19.69,2.87c-1.33-1.39-2.95-2.08-4.87-2.08s-3.53,.68-4.86,2.05c-1.33,1.37-2,3.25-2,5.65s.67,4.3,2,5.71c1.33,1.41,2.95,2.11,4.86,2.11s3.54-.69,4.87-2.08c1.33-1.39,2-3.28,2-5.68s-.67-4.29-2-5.68Z"/><path class="cls-1" d="M286.19,243.27c1.22-2.44,2.88-4.31,4.98-5.62s4.44-1.97,7.03-1.97c2.06,0,3.95,.43,5.65,1.29s3.05,2.02,4.02,3.49v-14.57h9.62v41.62h-9.62v-4.5c-.9,1.5-2.18,2.7-3.85,3.6-1.67,.9-3.61,1.35-5.82,1.35-2.59,0-4.93-.67-7.03-2-2.1-1.33-3.76-3.22-4.98-5.68-1.22-2.46-1.83-5.3-1.83-8.52s.61-6.06,1.83-8.49Zm19.69,2.87c-1.33-1.39-2.95-2.08-4.87-2.08s-3.54,.68-4.87,2.05c-1.33,1.37-2,3.25-2,5.65s.66,4.3,2,5.71c1.33,1.41,2.95,2.11,4.87,2.11s3.53-.69,4.87-2.08c1.33-1.39,2-3.28,2-5.68s-.67-4.29-2-5.68Z"/></g><g><circle class="cls-3" cx="331.47" cy="260.39" r="7.12"/><path d="M331.46,254.27c3.37,0,6.12,2.74,6.12,6.12s-2.74,6.12-6.12,6.12-6.12-2.74-6.12-6.12,2.74-6.12,6.12-6.12m0-1c-3.93,0-7.12,3.19-7.12,7.12s3.19,7.12,7.12,7.12,7.12-3.19,7.12-7.12-3.19-7.12-7.12-7.12h0Z"/></g></g></svg>