<svg width="1640" height="384" viewBox="0 0 1640 384" fill="none" xmlns="http://www.w3.org/2000/svg">
<path d="M518.788 257.433H495.336L424.812 150.729V257.433H401.36V114.34H424.812L495.336 220.835V114.34H518.788V257.433Z" fill="white"/>
<path d="M652.658 209.527H566.11C566.778 218.582 570.158 225.843 576.167 231.31C582.218 236.776 589.604 239.53 598.367 239.53C610.97 239.53 619.9 234.272 625.116 223.715H650.405C646.983 234.147 640.765 242.66 631.793 249.295C622.821 255.93 611.679 259.269 598.367 259.269C587.559 259.269 577.836 256.848 569.282 251.966C560.727 247.084 554.008 240.24 549.126 231.393C544.243 222.546 541.823 212.322 541.823 200.638C541.823 188.954 544.202 178.73 548.917 169.883C553.633 161.036 560.31 154.234 568.864 149.435C577.419 144.636 587.267 142.258 598.367 142.258C609.468 142.258 618.606 144.595 626.952 149.268C635.298 153.942 641.808 160.494 646.482 168.923C651.156 177.353 653.493 187.034 653.493 198.009C653.493 202.266 653.201 206.105 652.658 209.527ZM628.997 190.623C628.872 181.985 625.784 175.058 619.733 169.841C613.682 164.625 606.213 162.038 597.324 162.038C589.228 162.038 582.301 164.625 576.543 169.758C570.784 174.891 567.362 181.86 566.277 190.623H628.997Z" fill="white"/>
<path d="M696.642 251.966C688.004 247.084 681.201 240.24 676.277 231.393C671.353 222.546 668.891 212.322 668.891 200.638C668.891 188.954 671.437 178.897 676.486 170.008C681.535 161.12 688.463 154.234 697.268 149.435C706.031 144.636 715.837 142.258 726.687 142.258C737.537 142.258 747.302 144.678 756.107 149.435C764.87 154.234 771.797 161.078 776.889 170.008C781.938 178.938 784.483 189.121 784.483 200.638C784.483 212.156 781.896 222.379 776.68 231.268C771.464 240.198 764.37 247.084 755.398 251.924C746.426 256.765 736.494 259.227 725.686 259.227C714.878 259.227 705.321 256.807 696.683 251.924L696.642 251.966ZM742.586 234.606C747.844 231.727 752.143 227.429 755.439 221.67C758.736 215.911 760.363 208.901 760.363 200.68C760.363 192.459 758.778 185.49 755.648 179.815C752.476 174.139 748.303 169.841 743.087 166.962C737.871 164.083 732.279 162.622 726.228 162.622C720.177 162.622 714.627 164.083 709.453 166.962C704.32 169.841 700.23 174.139 697.226 179.815C694.221 185.49 692.719 192.459 692.719 200.68C692.719 212.865 695.849 222.296 702.067 228.973C708.284 235.608 716.171 238.946 725.602 238.946C731.653 238.946 737.287 237.527 742.586 234.606Z" fill="white"/>
<path d="M934.127 257.433H898.949L840.151 168.381V257.433H804.973V113.088H840.151L898.949 202.516V113.088H934.127V257.433Z" fill="white"/>
<path d="M981.533 251.883C972.561 247.084 965.508 240.24 960.334 231.31C955.201 222.421 952.614 211.989 952.614 200.054C952.614 188.119 955.201 177.895 960.417 168.882C965.634 159.91 972.769 153.024 981.783 148.225C990.839 143.426 1000.98 141.048 1012.2 141.048C1023.43 141.048 1033.57 143.426 1042.63 148.225C1051.68 153.024 1058.82 159.91 1063.99 168.882C1069.21 177.854 1071.79 188.244 1071.79 200.054C1071.79 211.864 1069.17 222.213 1063.87 231.185C1058.57 240.157 1051.39 247.042 1042.29 251.841C1033.19 256.64 1023.01 259.018 1011.75 259.018C1000.48 259.018 990.379 256.64 981.407 251.841L981.533 251.883ZM1029.02 221.253C1033.74 216.329 1036.12 209.276 1036.12 200.054C1036.12 190.832 1033.82 183.821 1029.23 178.855C1024.64 173.889 1018.96 171.469 1012.25 171.469C1005.53 171.469 999.685 173.889 995.178 178.772C990.672 183.654 988.376 190.748 988.376 200.054C988.376 209.36 990.588 216.287 995.053 221.253C999.518 226.219 1005.11 228.639 1011.83 228.639C1018.55 228.639 1024.26 226.177 1028.98 221.253H1029.02Z" fill="white"/>
<path d="M1271.06 154.401C1279.49 163.039 1283.7 175.016 1283.7 190.372V257.391H1248.73V195.088C1248.73 187.702 1246.77 181.943 1242.85 177.895C1238.92 173.847 1233.54 171.844 1226.7 171.844C1219.85 171.844 1214.47 173.889 1210.55 177.895C1206.62 181.943 1204.71 187.66 1204.71 195.088V257.391H1169.74V195.088C1169.74 187.702 1167.77 181.943 1163.89 177.895C1159.97 173.847 1154.59 171.844 1147.74 171.844C1140.9 171.844 1135.52 173.889 1131.59 177.895C1127.67 181.943 1125.75 187.66 1125.75 195.088V257.391H1090.57V142.633H1125.75V157.03C1129.3 152.231 1133.97 148.434 1139.73 145.638C1145.49 142.842 1152 141.423 1159.26 141.423C1167.9 141.423 1175.62 143.259 1182.38 146.973C1189.14 150.687 1194.48 155.945 1198.32 162.789C1202.28 156.488 1207.71 151.355 1214.55 147.349C1221.4 143.384 1228.87 141.381 1236.96 141.381C1251.23 141.381 1262.54 145.721 1271.01 154.318L1271.06 154.401Z" fill="white"/>
<path d="M1308.07 168.798C1312.54 159.91 1318.59 153.024 1326.26 148.225C1333.94 143.426 1342.5 141.048 1351.97 141.048C1360.07 141.048 1367.16 142.675 1373.25 145.972C1379.35 149.268 1384.06 153.567 1387.36 158.908V142.675H1422.54V257.433H1387.36V241.2C1383.94 246.541 1379.18 250.881 1373.09 254.136C1366.99 257.433 1359.9 259.06 1351.8 259.06C1342.5 259.06 1333.98 256.64 1326.31 251.757C1318.63 246.875 1312.58 239.99 1308.11 230.976C1303.65 222.004 1301.44 211.613 1301.44 199.845C1301.44 188.077 1303.65 177.728 1308.11 168.798H1308.07ZM1380.05 179.272C1375.17 174.223 1369.25 171.677 1362.28 171.677C1355.31 171.677 1349.34 174.181 1344.5 179.189C1339.62 184.196 1337.2 191.082 1337.2 199.845C1337.2 208.609 1339.62 215.577 1344.5 220.71C1349.38 225.843 1355.31 228.43 1362.28 228.43C1369.25 228.43 1375.21 225.885 1380.05 220.835C1384.94 215.786 1387.36 208.859 1387.36 200.054C1387.36 191.249 1384.94 184.363 1380.05 179.272Z" fill="white"/>
<path d="M1447.66 168.798C1452.12 159.91 1458.17 153.024 1465.85 148.225C1473.53 143.426 1482.08 141.048 1491.56 141.048C1499.11 141.048 1506 142.633 1512.21 145.763C1518.43 148.935 1523.36 153.149 1526.9 158.491V105.243H1562.08V257.433H1526.9V240.991C1523.61 246.458 1518.93 250.881 1512.8 254.136C1506.71 257.433 1499.61 259.06 1491.52 259.06C1482.04 259.06 1473.49 256.64 1465.81 251.757C1458.13 246.875 1452.08 239.99 1447.62 230.976C1443.15 222.004 1440.94 211.613 1440.94 199.845C1440.94 188.077 1443.15 177.728 1447.62 168.798H1447.66ZM1519.64 179.272C1514.76 174.223 1508.83 171.677 1501.86 171.677C1494.9 171.677 1488.93 174.181 1484.09 179.189C1479.21 184.196 1476.79 191.082 1476.79 199.845C1476.79 208.609 1479.21 215.577 1484.09 220.71C1488.97 225.843 1494.9 228.43 1501.86 228.43C1508.83 228.43 1514.8 225.885 1519.64 220.835C1524.52 215.786 1526.94 208.859 1526.94 200.054C1526.94 191.249 1524.52 184.363 1519.64 179.272Z" fill="white"/>
<path d="M1613.16 257.433C1627.54 257.433 1639.2 245.774 1639.2 231.393C1639.2 217.012 1627.54 205.354 1613.16 205.354C1598.78 205.354 1587.12 217.012 1587.12 231.393C1587.12 245.774 1598.78 257.433 1613.16 257.433Z" fill="url(#paint0_linear_3_86)"/>
<path d="M1613.16 209.568C1625.22 209.568 1635.03 219.375 1635.03 231.435C1635.03 243.495 1625.22 253.301 1613.16 253.301C1601.1 253.301 1591.29 243.495 1591.29 231.435C1591.29 219.375 1601.1 209.568 1613.16 209.568ZM1613.16 205.395C1598.8 205.395 1587.12 217.038 1587.12 231.435C1587.12 245.832 1598.76 257.474 1613.16 257.474C1627.56 257.474 1639.2 245.832 1639.2 231.435C1639.2 217.038 1627.56 205.395 1613.16 205.395Z" fill="black"/>
<path d="M328.305 122.372C328.017 121.073 327.692 119.486 327.367 117.826C325.275 107.4 322.677 94.3766 312.071 87.3416L311.097 86.6922C264.955 55.991 238.655 38.8907 232.919 35.8602C193.595 15.2244 148.644 3.31906 99.3628 0.505083C98.2805 0.43293 97.1982 0.396851 96.152 0.396851C81.5049 0.396851 69.3471 6.71027 61.0855 18.6156C52.391 31.1702 45.7529 44.6268 41.3516 53.5378C40.3775 55.5581 39.187 57.9391 38.5015 59.2018C17.5049 82.6156 -1.39927 109.601 0.621022 147.445C0.873559 152.316 1.7394 156.537 3.21854 160.216L10.8307 192.433L14.9435 209.822L15.196 209.75C30.6007 266.895 53.1126 313.542 83.7777 352.036C96.2242 367.657 114.154 378.336 135.62 382.882C137.352 383.242 139.119 383.423 140.887 383.423C153.586 383.423 163.255 374.62 172.635 366.106C176.278 362.787 182.952 356.726 185.911 355.68C188.039 355.68 190.204 355.68 192.405 355.716C194.028 355.716 195.651 355.716 197.275 355.716C197.708 355.716 198.105 355.716 198.538 355.716C232.305 355.716 260.337 342.692 281.803 317.006C287.394 310.295 301.067 286.449 311.818 262.746C323.94 239.874 327.908 219.599 329.243 212.78V212.6C333.212 192.361 330.578 132.149 328.305 122.336V122.372Z" fill="#030515"/>
<path d="M140.923 383.928C139.119 383.928 137.316 383.747 135.548 383.351C114.01 378.805 95.9717 368.054 83.4531 352.361C52.7518 313.831 30.3482 267.364 14.9074 210.327L14.6188 210.399L10.3978 192.577L2.74958 160.361C1.27044 156.681 0.404592 152.46 0.152056 147.517C-1.90431 109.204 17.2163 82.2909 38.1408 58.9493C38.7541 57.7948 39.9446 55.3777 40.8826 53.4656C45.32 44.4825 51.9582 30.9899 60.6887 18.4352C69.0585 6.38557 81.3246 0 96.1521 0C97.1983 0 98.2806 -4.40147e-06 99.399 0.108226C148.752 2.92221 193.739 14.8275 233.135 35.4994C238.871 38.4938 265.171 55.6302 311.349 86.3315L312.323 86.9808C323.11 94.1601 325.708 107.256 327.8 117.754L327.872 118.043C328.161 119.594 328.486 121.037 328.774 122.3C331.047 132.113 333.681 192.505 329.748 212.744V212.924C328.414 219.635 324.445 240.054 312.251 263.035C301.5 286.737 287.755 310.692 282.199 317.402C260.626 343.197 232.486 356.293 198.574 356.293H197.311C195.94 356.293 194.605 356.293 193.27 356.293H192.441C190.276 356.293 188.111 356.293 186.019 356.257C183.133 357.339 176.567 363.292 173.031 366.503C163.579 375.125 153.839 384 140.959 384L140.923 383.928ZM15.5568 209.245L15.665 209.678C31.0698 266.787 53.4373 313.29 84.1385 351.784C96.5489 367.333 114.371 377.939 135.692 382.449C137.388 382.809 139.119 382.99 140.887 382.99C153.442 382.99 163.038 374.259 172.31 365.781C176.206 362.21 182.7 356.329 185.73 355.283H185.875C188.003 355.283 190.168 355.283 192.369 355.283H193.198C194.569 355.283 195.904 355.283 197.275 355.283H198.538C232.161 355.283 260.048 342.331 281.478 316.717C287.034 310.079 300.707 286.196 311.422 262.53C323.543 239.657 327.512 219.346 328.81 212.672V212.492C332.779 192.325 330.145 132.185 327.872 122.444C327.584 121.218 327.295 119.738 326.971 118.187L326.898 117.899C324.842 107.545 322.245 94.6652 311.782 87.7024L310.808 87.053C264.666 56.3517 238.402 39.2514 232.702 36.257C193.415 15.6573 148.571 3.75197 99.3268 0.974065C98.2445 0.901911 97.1622 0.865839 96.1521 0.865839C81.6492 0.865839 69.6357 7.1071 61.4463 18.9042C52.7518 31.4228 46.1137 44.8794 41.7485 53.7542C40.7022 55.8828 39.5478 58.1917 38.8984 59.4543C18.01 82.7599 -0.966321 109.457 1.05397 147.445C1.30651 152.316 2.13628 156.428 3.61542 160.072L15.2682 209.281L15.5207 209.209L15.5568 209.245Z" fill="#030515"/>
<path d="M302.981 215.955C293.096 244.961 281.335 272.992 259.905 295.72C236.816 320.18 207.45 327.432 176.568 314.372C162.57 308.456 148.97 300.446 136.956 291.139C98.0654 261.051 69.0597 222.16 42.9763 181.033C38.5028 173.962 24.7576 173.276 24.7576 173.276C24.7576 173.276 25.1183 175.333 25.2987 176.235C38.2142 236.122 58.9943 292.69 97.6324 341.177C107.986 354.201 122.706 362.21 139.265 365.709C151.856 368.379 169.353 337.858 185.623 338.111C189.556 338.183 193.488 338.111 197.42 338.183C226.065 338.471 249.804 327.793 268.167 305.822C275.31 297.272 313.804 228.979 313.335 195.391C313.335 193.443 312.758 191.531 312.036 187.166C308.464 198.53 305.903 207.297 302.945 215.919L302.981 215.955Z" fill="url(#paint1_linear_3_86)"/>
<path d="M31.1791 159.278C44.5996 158.882 58.1284 159.062 71.3685 157.222C94.7823 153.975 117.943 148.961 141.285 144.956C107.842 138.101 76.0945 123.418 38.7552 126.593C45.5376 115.626 53.5106 110.322 64.8026 111.765C71.2603 112.595 77.6458 114.219 83.9953 115.806C129.741 127.278 175.197 140.013 221.267 149.935C247.026 155.49 273.434 160.83 300.095 159.315C308.717 158.809 310.485 156.573 312.361 146.724C313.695 139.617 312.866 132.726 311.35 126.16C309.438 117.826 305.578 109.962 302.548 101.88C300.924 110.683 301.574 118.548 300.78 126.268C299.445 139.184 292.446 145.894 279.531 146.255C272.063 146.471 264.27 145.966 257.127 143.946C226.246 135.251 195.544 125.908 164.807 116.744C162.642 116.095 165.962 113.461 169.461 113.425C209.073 113.064 216.397 113.786 216.397 113.786C219.86 113.858 226.39 114.038 230.034 109.781C231.26 108.338 231.838 106.823 232.126 105.849C232.234 104.586 232.198 102.53 231.296 100.365C228.987 94.9898 194.173 78.1059 180.392 72.0811C166.611 66.0563 152.397 61.0056 136.343 54.8726C135.008 54.3675 135.152 53.2852 136.595 53.2852C150.196 53.213 166.467 54.2593 184.505 57.7226C212.753 63.2063 235.337 72.7666 251.283 81.1003C250.309 76.5546 233.172 55.5941 225.019 51.301C185.551 30.593 143.053 20.4915 98.7146 17.9661C89.5151 17.4611 81.9029 20.0225 75.9863 28.5366C63.6842 46.2142 64.4057 50.3991 85.3662 56.6403C105.425 62.629 126.025 66.9222 146.155 72.7666C161.091 77.0958 175.666 82.6516 190.422 87.6662C191.828 88.3517 191.504 90.3359 189.664 90.0112C171.553 85.8263 153.551 80.9921 135.296 77.5648C111.847 73.1995 88.1802 69.7362 64.55 66.4532C60.8341 65.9481 55.3144 67.2108 52.9694 69.8083C33.3798 91.4904 17.001 114.616 18.6966 146.291C19.2016 155.959 22.7732 159.387 31.2873 159.17L31.1791 159.278Z" fill="url(#paint2_linear_3_86)"/>
<path d="M159.972 251.671C162.029 251.49 165.24 246.692 165.312 243.95C165.817 227.283 165.564 210.616 165.564 192.108C160.838 194.381 157.591 195.716 154.561 197.448C137.966 206.864 121.154 210.183 103.188 200.911C99.6162 199.071 94.818 198.241 90.8496 198.782C87.0976 199.324 82.3715 201.524 80.5677 204.483C79.1607 206.828 80.5677 212.131 82.4798 214.945C97.0908 236.446 116.68 252.573 139.048 265.452C142.584 267.472 146.732 268.446 151.242 270.142C151.531 267.4 152.144 265.705 151.819 264.262C150.087 257.118 150.953 252.356 159.936 251.599L159.972 251.671Z" fill="url(#paint3_linear_3_86)"/>
<path d="M245.439 290.886C252.114 284.717 258.247 277.645 263.225 270.069C279.604 245.176 285.881 226.741 284.583 196.906C265.967 251.742 236.889 285.402 176.244 299.977C202.075 312.243 225.705 309.176 245.439 290.886Z" fill="url(#paint4_linear_3_86)"/>
<path d="M231.405 211.951C232.632 207.261 232.559 201.669 225.308 203.148C215.856 205.096 206.62 208.199 195.617 211.265C200.632 220.248 206.656 226.345 215.892 226.201C224.334 226.093 229.313 219.779 231.405 211.915V211.951Z" fill="url(#paint5_linear_3_86)"/>
<defs>
<linearGradient id="paint0_linear_3_86" x1="1587.12" y1="231.393" x2="1639.2" y2="231.393" gradientUnits="userSpaceOnUse">
<stop stop-color="#2735D5"/>
<stop offset="0.3" stop-color="#7266F5"/>
<stop offset="0.38" stop-color="#8573FE"/>
<stop offset="0.62" stop-color="#D09DFD"/>
<stop offset="0.71" stop-color="#EDAEFD"/>
<stop offset="1" stop-color="#32EDFF"/>
</linearGradient>
<linearGradient id="paint1_linear_3_86" x1="24.7576" y1="269.601" x2="313.335" y2="269.601" gradientUnits="userSpaceOnUse">
<stop stop-color="#2735D5"/>
<stop offset="0.3" stop-color="#7266F5"/>
<stop offset="0.38" stop-color="#8573FE"/>
<stop offset="0.62" stop-color="#D09DFD"/>
<stop offset="0.71" stop-color="#EDAEFD"/>
<stop offset="1" stop-color="#32EDFF"/>
</linearGradient>
<linearGradient id="paint2_linear_3_86" x1="18.4801" y1="88.8207" x2="312.974" y2="88.8207" gradientUnits="userSpaceOnUse">
<stop stop-color="#2735D5"/>
<stop offset="0.3" stop-color="#7266F5"/>
<stop offset="0.38" stop-color="#8573FE"/>
<stop offset="0.62" stop-color="#D09DFD"/>
<stop offset="0.71" stop-color="#EDAEFD"/>
<stop offset="1" stop-color="#32EDFF"/>
</linearGradient>
<linearGradient id="paint3_linear_3_86" x1="80.0266" y1="231.179" x2="165.636" y2="231.179" gradientUnits="userSpaceOnUse">
<stop stop-color="#2735D5"/>
<stop offset="0.421607" stop-color="#7266F5"/>
<stop offset="0.57848" stop-color="#8573FE"/>
<stop offset="0.923599" stop-color="#D09DFD"/>
<stop offset="1" stop-color="#EDAEFD"/>
</linearGradient>
<linearGradient id="paint4_linear_3_86" x1="176.208" y1="252.139" x2="284.727" y2="252.139" gradientUnits="userSpaceOnUse">
<stop stop-color="#8573FE"/>
<stop offset="0.286458" stop-color="#D09DFD"/>
<stop offset="0.484375" stop-color="#EDAEFD"/>
<stop offset="1" stop-color="#32EDFF"/>
</linearGradient>
<linearGradient id="paint5_linear_3_86" x1="195.617" y1="214.548" x2="231.982" y2="214.548" gradientUnits="userSpaceOnUse">
<stop stop-color="#8573FE"/>
<stop offset="0.62" stop-color="#D09DFD"/>
<stop offset="0.842263" stop-color="#EDAEFD"/>
</linearGradient>
</defs>
</svg>
