<?xml version="1.0" encoding="UTF-8"?><svg id="Layer_1" xmlns="http://www.w3.org/2000/svg" xmlns:xlink="http://www.w3.org/1999/xlink" viewBox="0 0 137.54 137.54"><defs><style>.cls-1,.cls-2{fill:none;}.cls-3{clip-path:url(#clippath);}.cls-4{clip-path:url(#clippath-1);}.cls-5{fill:url(#New_Gradient_Swatch_2);}.cls-6,.cls-2{stroke:#808285;stroke-miterlimit:10;stroke-width:.25px;}.cls-7{opacity:.68;}.cls-8{fill:url(#New_Gradient_Swatch_2-5);}.cls-9{fill:url(#New_Gradient_Swatch_2-2);}.cls-10{fill:url(#New_Gradient_Swatch_2-4);}.cls-11{fill:url(#New_Gradient_Swatch_2-3);}</style><clipPath id="clippath"><rect class="cls-1" x="0" y="0" width="137.55" height="137.55" rx="17" ry="17"/></clipPath><linearGradient id="New_Gradient_Swatch_2" x1="25.77" y1="91.04" x2="113.53" y2="91.04" gradientTransform="matrix(1, 0, 0, 1, 0, 0)" gradientUnits="userSpaceOnUse"><stop offset="0" stop-color="#2735d5"/><stop offset=".3" stop-color="#7266f5"/><stop offset=".38" stop-color="#8573fe"/><stop offset=".62" stop-color="#d09dfd"/><stop offset=".71" stop-color="#edaefd"/><stop offset="1" stop-color="#32edff"/></linearGradient><linearGradient id="New_Gradient_Swatch_2-2" x1="23.86" y1="36.07" x2="113.42" y2="36.07" xlink:href="#New_Gradient_Swatch_2"/><linearGradient id="New_Gradient_Swatch_2-3" x1="42.58" y1="79.37" x2="68.62" y2="79.37" xlink:href="#New_Gradient_Swatch_2"/><linearGradient id="New_Gradient_Swatch_2-4" x1="71.83" y1="85.74" x2="104.83" y2="85.74" xlink:href="#New_Gradient_Swatch_2"/><linearGradient id="New_Gradient_Swatch_2-5" x1="77.73" y1="74.31" x2="88.8" y2="74.31" xlink:href="#New_Gradient_Swatch_2"/><clipPath id="clippath-1"><rect class="cls-1" x="157.54" y="0" width="137.55" height="137.55" rx="17" ry="17"/></clipPath></defs><rect x="0" y="0" width="137.55" height="137.55" rx="17" ry="17"/><g class="cls-7"><g class="cls-3"><g><path class="cls-2" d="M-69.22,214.71c-.63-4.88,1.7-9.99,.14-14.65-1.73-5.16-7.91-8.7-7.56-14.13,.31-4.79,5.43-7.47,8.83-10.87,5.85-5.85,6.73-15.99,1.99-22.77-1.53-2.18-3.57-4.07-4.5-6.57-2.04-5.49,2-11.71,.48-17.37-1.22-4.54-5.87-8.18-5.22-12.84,.55-3.92,4.77-6.29,8.69-6.79,3.92-.49,7.94,.27,11.85-.35,10.29-1.63,16.51-11.78,23.11-19.84,1.99-2.43,4.37-4.89,7.47-5.41,3.04-.52,6.08,.96,8.56,2.8,2.9,2.15,5.39,4.86,7.23,7.97,2.04,3.46,3.24,7.33,4.59,11.11,3.36,9.37,7.91,18.53,14.98,25.53,7.08,7,17.01,11.6,26.9,10.51,4.92-.54,9.65-2.44,14.6-2.65,4.95-.21,10.6,1.94,12.1,6.66,1.57,4.92-1.89,10.82,.81,15.23,3.26,5.35,11.94,3.25,16.91,7.07,3.66,2.81,4.32,8.2,3.2,12.68-.7,2.8-1.97,5.63-1.36,8.45,.8,3.67,4.41,5.87,7.07,8.51,5.99,5.94,8.78,16.01,16.95,18.1"/><path class="cls-2" d="M12.55-67.22c-.99,5.3-1.99,10.6-2.98,15.9-.42,2.23-.84,4.51-.49,6.76,.4,2.53,1.75,4.82,3.42,6.76,4.83,5.65,12.01,8.58,18.55,12.12,6.54,3.54,13.11,8.53,14.8,15.77,1.11,4.77,.19,10.54,3.79,13.86,2.81,2.59,7.14,2.39,10.9,1.77,13.34-2.21,26.1-7.85,36.72-16.22,1.92-1.51,3.8-3.15,5.06-5.24,1.08-1.79,1.66-3.85,2.67-5.68,2.65-4.8,8.29-7.66,13.76-7.32,5.47,.34,10.58,3.69,13.4,8.39,2.45,4.09,3.25,8.99,5.65,13.11,2.4,4.12,7.57,7.43,11.83,5.29,1.22-.61,2.2-1.59,3.31-2.38,8.71-6.15,22.38,1.12,30.84-5.37,9.02-6.92,4.38-23.42,13.25-30.52,3.66-2.93,8.75-3.4,12.67-5.97,3.2-2.1,5.45-5.6,6.02-9.39,.4-2.65,.02-5.37,.54-8,.52-2.62,2.37-5.32,5.05-5.49"/><path class="cls-2" d="M153.74,220.41c4.44-4.81,6.83-11.46,6.46-18-.37-6.54-3.49-12.88-8.45-17.16-2.83-2.44-6.36-4.41-7.86-7.83-1.98-4.51,.32-9.67,2.85-13.9s5.44-8.8,4.68-13.66c-.59-3.77-3.35-6.87-6.45-9.12-3.09-2.25-6.6-3.86-9.7-6.1-.88-.64-1.75-1.35-2.26-2.31-1.21-2.25,0-5.2,2.04-6.72,2.05-1.52,4.7-1.94,7.24-2.16,11.26-1.01,22.76,.8,33.17,5.21,7.73,3.28,15.38,8.07,23.75,7.45,3.99-.29,7.78-1.82,11.74-2.39,3.96-.57,8.5,.06,11,3.18,2.94,3.66,1.77,9.33-1.25,12.93-3.02,3.59-7.42,5.66-11.58,7.84-4.16,2.18-8.4,4.79-10.6,8.93-3.09,5.82-.77,13.89,4.93,17.18,3.61,2.09,8.46,2.63,10.64,6.18,1.99,3.24,.76,7.38,.45,11.18-.51,6.26,1.86,12.7,6.32,17.13-1.34-.64-2.68-1.29-4.03-1.93"/><path class="cls-2" d="M-20.62-61.84c-2.25,3.38-6.97,4.73-8.65,8.43-1.26,2.78-.4,6.1-1.32,9.01-.79,2.51-2.8,4.42-4.78,6.15-1.97,1.73-3.99,3.41-6.06,5.03-1.35,1.06-2.81,2.23-3.18,3.91-.57,2.6,1.71,4.9,2.33,7.49,.67,2.76-.58,5.57-1.67,8.19s-2.04,5.65-.83,8.22c.71,1.5,2.05,2.58,3.38,3.56,2.52,1.86,5.17,3.55,7.92,5.04,2.17,1.18,4.43,2.26,6.34,3.83,1.91,1.57,3.41,3.59,5.36,5.11,1.95,1.52,4.6,2.51,6.89,1.57,1.08-.44,1.96-1.27,2.77-2.11C-7.98,7.38-4.76,2.35-.8-2.03S8.17-10.26,14.03-11.05c1.67-.22,3.59-.31,4.61-1.64,.53-.69,.7-1.6,.69-2.48-.02-3.27-2.15-6.16-4.53-8.41s-5.12-4.18-7-6.85c-2.84-4.04-3.35-9.23-3.51-14.16-.12-3.92-.08-7.85-.04-11.77,.02-2.17,.08-4.46,1.19-6.32"/><path class="cls-2" d="M-17.02-61.56c-.25,1.68-1.12,3.26-2.4,4.36-1.56,1.34-3.7,2.01-4.87,3.69-1.98,2.82-.24,6.68-.52,10.11-.36,4.32-3.9,7.64-7.44,10.13-2.46,1.74-5.32,3.74-5.54,6.74-.22,2.89,2.18,5.45,2.18,8.35,0,3.64-3.74,6.57-3.45,10.19,.19,2.39,2.15,4.3,4.28,5.39C-32.66-1.5-30.27-.99-28.08,0c1.81,.81,3.47,1.95,4.88,3.34,1.01,1,1.99,2.18,3.38,2.46,2.33,.46,4.22-1.81,5.51-3.81C-10.57-3.77-6.35-9.84,.1-12.14c2.48-.88,5.59-1.5,6.48-3.98,.55-1.54-.04-3.26-.81-4.71-1.36-2.55-3.29-4.79-4.33-7.48-.87-2.25-1.07-4.69-1.25-7.1-.29-3.66-.57-7.31-.86-10.97-.3-3.79-.58-7.69,.55-11.31,.81-2.58,2.34-5.21,1.59-7.81"/><path class="cls-2" d="M-63.41,214.96c2.02-6.2-.15-13.07-3.7-18.54-1.2-1.85-2.58-3.63-3.34-5.71-.76-2.07-.8-4.57,.55-6.32,.92-1.19,2.34-1.87,3.63-2.66,4.95-3.04,8.37-8.34,9.4-14.05s-.26-11.75-3.28-16.71c-2.23-3.66-5.48-7.94-3.45-11.71,1.68-3.12,6.23-3.54,9.43-1.99,3.2,1.55,5.48,4.44,8.03,6.91,6.21,6.01,14.55,9.77,23.16,10.44,4.43,.34,8.91-.11,13.32,.48s8.95,2.44,11.31,6.21c2.03,3.24,2.11,7.3,2,11.12-.12,3.82-.33,7.81,1.23,11.3,1.56,3.49,5.57,6.23,9.18,4.96,1.46-.52,2.65-1.6,4.07-2.23,2.52-1.11,5.69-.55,7.68,1.36,3.15,3.03,2.82,8.1,2.04,12.4-.78,4.3-1.66,9.14,.85,12.72,1.13,1.62,2.86,2.77,3.88,4.47,1.02,1.69,.93,4.38-.9,5.13"/><path class="cls-2" d="M-9.03,138.55c-.1-.78-.19-1.59,.07-2.33,.57-1.64,2.54-2.27,3.69-3.56,1-1.13,1.32-2.69,1.85-4.1,.54-1.41,1.52-2.87,3.01-3.08,1.78-.26,3.25,1.35,4.19,2.88,1.24,2.02,2.24,4.25,4.01,5.82,1.04,.92,2.3,1.56,3.54,2.19,4.32,2.19,8.67,4.4,13.35,5.63,1.67,.44,3.41,.77,4.91,1.64,2.02,1.19,3.41,3.38,3.63,5.72,.3,3.22-1.5,6.22-2.19,9.38-.99,4.51,.25,9.47-1.64,13.68-1.29,2.87-4.03,5.05-7.12,5.66s-6.45-.35-8.75-2.5c-3.17-2.96-4.07-7.52-5.63-11.57-1.33-3.43-3.26-6.66-5.89-9.23-1.41-1.38-3.02-2.55-4.78-3.44-.91-.46-1.87-.85-2.85-1.14-.88-.26-2.21-.22-3-.64-1.49-.78-.08-3.23,.02-4.71,.14-2.1-.16-4.22-.42-6.3Z"/><path class="cls-2" d="M6.06,152.34c4.73,4.97,4.59,13,8.75,18.46,1.06,1.38,2.48,2.62,4.2,2.87,2.45,.35,4.81-1.46,5.84-3.71,1.03-2.25,1-4.83,.8-7.29-.15-1.89-.38-3.83,.08-5.67,.39-1.56,1.27-3.01,1.32-4.62,.05-1.67-.8-3.24-1.88-4.51-3.25-3.8-8.35-5.33-13.15-6.71-1.92-.55-3.87-1.13-5.48-2.31-1.56-1.15-2.69-2.8-4.16-4.06-.96-.82-2.21-1.5-3.45-1.24-1.12,.23-1.97,1.18-2.49,2.19-1.27,2.47-2.11,9.11,.09,11.31,1.03,1.03,3.07,1.26,4.36,1.83,1.91,.84,3.72,1.94,5.16,3.46Z"/><path class="cls-2" d="M-2.3,11.17C-.02,6.29,2.4,1,7.1-1.61c2.58-1.43,5.61-1.9,8.11-3.45,2.62-1.63,4.39-4.28,6.38-6.64,1.98-2.36,4.49-4.62,7.56-4.91,3.93-.38,7.48,2.65,9.3,6.16,1.82,3.51,2.38,7.5,3.55,11.28,1.17,3.77,3.21,7.61,6.78,9.28,3.81,1.78,8.66,.78,12.09,3.21,2.66,1.89,3.7,5.39,3.76,8.66,.15,8.28-4.76,15.9-5.42,24.16-.41,5.1,.83,10.2,2.63,14.99,1.18,3.13,2.62,6.24,2.81,9.57,.42,7.09-4.87,13.29-10.74,17.3-5.34,3.65-11.55,6.22-18.01,6.53-6.46,.31-13.17-1.84-17.69-6.46-3.14-3.21-5.82-7.84-10.3-8.04-3.95-.17-7.4,3.41-11.33,3.03-3.92-.38-6.35-4.47-7.4-8.26-1.05-3.79-1.49-7.99-4.09-10.95-1.26-1.44-3.03-2.58-3.56-4.42-.37-1.28-.04-2.66-.18-3.99-.4-3.8-4.48-6.68-4.21-10.49,.1-1.42,.81-2.71,1.51-3.94,3.17-5.65,5.97-11.84,9.53-17.23,1.31-1.98,3.57-3.13,5.07-4.99,1.85-2.29,3.19-4.95,4.43-7.6Z"/><path class="cls-2" d="M-14.84,45.96c-.39-3.01-.77-6.16,.26-9.02,1.62-4.52,6.26-7.13,9.25-10.88C-2.61,22.65-1.31,18.37,.3,14.31,1.91,10.26,4.06,6.14,7.78,3.87c2.01-1.23,4.36-1.84,6.33-3.13,1.7-1.11,3.04-2.67,4.51-4.08,2.74-2.64,5.97-4.77,9.47-6.27,1.26-.54,2.69-1,3.97-.53,1.17,.43,1.96,1.53,2.49,2.66,2.37,4.99,1.17,11.25,4.08,15.95,4.06,6.58,14.48,7.47,17.57,14.56,3.18,7.31-3.78,15.5-2.5,23.37,.31,1.9,1.09,3.69,1.73,5.51,3.13,9,2.34,19.67-3.52,27.18-5.86,7.51-17.19,10.78-25.52,6.16-6.05-3.35-10.17-10.25-16.95-11.62-3.25-.66-6.6,.1-9.89,.55-1.4,.19-2.95,.3-4.1-.53-.6-.43-1.01-1.07-1.39-1.71-1.28-2.16-2.31-4.47-3.06-6.86-.66-2.09-.81-4.31-1.87-6.16-2.39-4.17-3.35-8.21-3.97-12.97Z"/><path class="cls-2" d="M-9.4,46.83c-.97-3.66-1.7-7.78,.25-11.03,1.56-2.59,4.47-3.99,6.78-5.93C-.03,27.91,1.76,25.3,2.75,22.41c1.2-3.51,1.36-7.62,3.96-10.27,2.39-2.43,6.16-2.9,8.88-4.96,2.27-1.73,3.59-4.4,5.45-6.56,1.86-2.16,4.86-3.9,7.49-2.78,1.75,.74,2.81,2.56,3.29,4.4s.5,3.76,.83,5.63c.91,5.13,4.33,9.75,8.96,12.13,2.9,1.49,6.42,2.29,8.25,4.99,1.54,2.28,1.4,5.32,.7,7.99-.69,2.67-1.86,5.23-2.19,7.96-.7,5.78,2.4,11.35,2.72,17.16,.34,6.13-2.43,12-5.65,17.23-.75,1.22-1.56,2.46-2.7,3.33-1.23,.95-2.76,1.41-4.27,1.83-2.26,.62-4.62,1.18-6.93,.76-4.36-.79-7.28-4.73-10.54-7.73-4.41-4.05-10.11-6.65-16.05-7.4-2.15-.27-5.83,.57-7.6-.88-1.64-1.34-2.36-4.97-3.07-6.84-1.44-3.79-2.68-7.66-3.72-11.58Z"/><path class="cls-2" d="M-3.86,51c.56,2.55,1.44,5.15,3.29,6.99,3.88,3.88,10.3,3.13,15.38,5.18,4.54,1.84,7.78,5.82,11.46,9.05,1.91,1.67,4.12,3.22,6.65,3.44,2.18,.19,4.35-.64,6.16-1.87,1.83-1.24,3.46-3.09,3.63-5.29,.08-1.08-.19-2.15-.59-3.16-2.27-5.72-8.24-8.92-13.76-11.64-5.52-2.72-11.49-5.91-13.79-11.61-.7-1.74-1.01-3.61-1.75-5.33-1.45-3.35-4.61-5.9-8.19-6.61-1.14-.23-2.37-.27-3.44,.21-2.6,1.18-4.98,5.95-5.67,8.64-.98,3.84,.03,8.2,.6,12Z"/><path class="cls-2" d="M.94,51.02c1.35,2.22,3.65,3.69,6.03,4.73,2.38,1.03,4.91,1.69,7.29,2.73,4.26,1.87,7.92,4.9,12.11,6.91,.9,.43,1.88,.83,2.88,.74s2.01-.79,2.12-1.79c.09-.83-.44-1.6-1-2.23-2.92-3.27-7.12-5.05-10.79-7.45-4.34-2.84-8.11-6.75-10.01-11.58-.97-2.45-1.57-5.57-4.06-7-1.7-.97-4.3-.75-5.39,1.03-.91,1.5-.52,3.77-.52,5.42,0,2.94-.27,5.82,1.33,8.46Z"/><path class="cls-2" d="M37.18,65.38c1.14-.02,2.15,.98,2.34,2.11,.19,1.13-.33,2.3-1.17,3.08-.84,.78-1.95,1.21-3.07,1.42-.77,.15-1.6,.2-2.33-.08-2.24-.86-.92-1.94,.22-2.82,1.42-1.1,2.69-2.48,4.02-3.7Z"/><path class="cls-2" d="M10.89,16.25c2.18-1.54,5.26-1.44,7.28-3.18,1.52-1.31,2.09-3.38,3.01-5.17,.92-1.79,2.66-3.54,4.64-3.18,1.41,.26,2.44,1.54,2.91,2.89,.47,1.35,.52,2.81,.75,4.23,.77,4.61,3.74,8.8,7.82,11.07,2.54,1.41,5.67,2.3,7.06,4.85,1.56,2.87,.15,6.34-.63,9.51-.85,3.46-.89,7.11-.12,10.58,.2,.91,.46,1.83,.33,2.76-.27,1.96-2.31,3.34-4.28,3.35-1.98,.02-3.82-1.05-5.27-2.4-1.45-1.35-2.59-2.98-3.91-4.46-1.77-1.98-3.87-3.66-6.19-4.97-1.76-.99-3.69-1.8-5.03-3.3-1.45-1.61-2.02-3.8-3.07-5.69-1.01-1.83-2.49-3.4-4.25-4.54-1.34-.86-3.2-1.31-3.96-2.85-1.37-2.76,.57-7.87,2.91-9.52Z"/><path class="cls-2" d="M14.48,19.51c.69-.33,1.44-.49,2.16-.75,1.84-.67,3.42-2.03,4.36-3.75,.61-1.11,1.06-2.47,2.21-2.99,1.15-.52,2.6,.13,3.2,1.23,.45,.82,.5,1.79,.66,2.71,.63,3.64,3.23,6.88,6.65,8.27,1.29,.53,2.72,.84,3.72,1.8,1.04,1.01,1.4,2.55,1.4,4,0,1.45-.29,2.89-.31,4.34-.05,3.19,1.19,6.28,1.3,9.47,0,.25,0,.5-.07,.74-.29,.89-1.46,1.08-2.4,1.11-1.05,.03-2.16,.05-3.07-.46-1.22-.68-1.77-2.11-2.61-3.23-1.79-2.37-4.86-3.27-7.41-4.8-.77-.46-1.5-1-2.06-1.69-.48-.6-.81-1.29-1.2-1.95-.61-1.03-1.35-1.97-2.09-2.91-1.45-1.84-3.08-3.55-4.51-5.39-1.36-1.74-2.46-4.55,.06-5.76Z"/><path class="cls-2" d="M20.02,27.24c-.58-.6-1.16-1.24-1.5-2-.35-.76-.44-1.68-.06-2.43,.25-.49,.66-.86,1.07-1.22,.86-.76,1.71-1.51,2.57-2.27,.22-.2,.46-.4,.74-.49,.74-.24,1.48,.35,1.97,.95,1.78,2.19,2.64,5.27,5.09,6.68,1.52,.87,3.62,1.07,4.44,2.62,.68,1.28,.12,2.87,.37,4.3,.18,1.03,.77,1.94,1.07,2.93,.3,1,.2,2.27-.67,2.83-.84,.54-1.98,.16-2.76-.45-.78-.62-1.39-1.45-2.24-1.97-1.99-1.24-3.8-1.44-4.98-3.66-1.23-2.31-3.3-3.95-5.11-5.81Z"/><path class="cls-2" d="M29.56,33.51c.19,.22,.43,.42,.71,.46,.54,.08,1.01-.49,1.01-1.04s-.33-1.04-.68-1.46c-1.51-1.79-3.78-2.96-4.82-5.05-.31-.63-.51-1.33-.94-1.88-.44-.55-1.25-.9-1.85-.55-2.09,1.23,.88,4.36,2.14,4.85,2.42,.96,2.83,2.83,4.43,4.66Z"/><path class="cls-2" d="M47.08,54.59c.18,.35,.16,.77,.15,1.16l-.08,1.76c-.02,.55-.05,1.1,.07,1.63,.12,.57,.39,1.1,.6,1.65,.47,1.24,.59,2.61,.36,3.91-.05,.3-.13,.61-.34,.83-.16,.16-.37,.26-.6,.3-.69,.12-1.39-.33-1.75-.93-.36-.6-.45-1.33-.49-2.03-.05-1.01-.13-1.89-.44-2.85-.25-.76-.52-1.47-.38-2.28,.15-.83,1.96-5.04,2.9-3.16Z"/><path class="cls-2" d="M2.01,106.98c.83,2.06,2.07,3.93,3.29,5.78,2.17,3.29,4.35,6.59,6.52,9.88,1.98,3,4.02,6.06,6.93,8.16,2.1,1.51,4.54,2.45,6.96,3.37,1.93,.73,3.87,1.47,5.91,1.77,2.26,.33,4.57,.1,6.83-.23,1.68-.24,3.38-.55,4.92-1.27,1.97-.93,3.55-2.5,5.09-4.04,.79-.79,1.61-1.61,1.99-2.66,.36-.99,.29-2.07,.22-3.12-.32-4.52-.8-9.28-3.44-12.97-1.03-1.44-2.35-2.65-3.67-3.85-1.8-1.64-3.62-3.29-5.72-4.53-7.02-4.15-16.56-3.48-22.47-9.1-2.54-2.41-4.19-5.83-7.27-7.51-4.76-2.6-11.07,.37-12.09,5.75-.46,2.42,1.3,4.42,2.52,6.34,1.66,2.62,2.34,5.39,3.49,8.23Z"/><path class="cls-2" d="M11.62,95.36c3.41,3.03,7.05,5.93,11.31,7.57,2.25,.87,4.62,1.37,6.84,2.3,1.92,.8,3.69,1.91,5.42,3.05,2.24,1.47,4.44,3,6.6,4.59,1.74,1.28,3.53,2.69,4.33,4.7,.64,1.6,.57,3.38,.4,5.1-.13,1.32-.33,2.66-.98,3.81-1.69,2.99-5.66,3.61-9.09,3.89-1.45,.12-2.94,.24-4.35-.11-1.36-.34-2.58-1.09-3.78-1.82-3.06-1.89-6.14-3.8-8.75-6.26-1.31-1.23-2.5-2.6-3.68-3.96-2.62-3.02-5.25-6.04-7.87-9.07-3.23-3.72-6.08-7.86-6.4-12.91-.18-2.78-.21-5.25,3.36-4.82,2.59,.31,4.77,2.27,6.64,3.94Z"/><path class="cls-2" d="M9.36,98.09c2.09,2.14,4.23,4.28,6.79,5.83,2.38,1.43,5.05,2.3,7.66,3.25,6.87,2.51,13.82,6.05,17.7,12.26,.49,.78,.93,1.64,.93,2.56,0,1.73-1.64,3.12-3.35,3.38-1.71,.27-3.43-.33-5.01-1.05-8.47-3.85-14.78-11.13-22.11-16.85-2.08-1.63-5.07-3.65-6.19-6.15-1.36-3.04,.68-6.19,3.59-3.23Z"/><path class="cls-2" d="M27.13,115.73c1.18,1.35,2.26,2.81,3.69,3.89,1.77,1.35,3.96,2.02,6.13,2.51,.25,.06,.53,.11,.75-.03,.19-.11,.28-.33,.33-.54,.34-1.46-.92-2.78-2.1-3.7-2.98-2.33-6.25-4.27-9.5-6.2-1.18-.7-3.34-2.29-4.74-1.83,.45,2.13,4.05,4.32,5.45,5.91Z"/><path class="cls-2" d="M68.46,37.5c1.19-2.91,2.82-5.66,3.53-8.73,.76-3.26,.41-6.77-.97-9.82-1.18-2.61-3.16-5.32-2.31-8.06,.56-1.83,2.29-3.08,4.1-3.69,1.81-.62,3.74-.72,5.62-1.06,3.43-.61,6.68-1.97,9.9-3.32,3.97-1.67,8.03-3.39,11.19-6.32,3.92-3.64,6.07-8.79,9.5-12.9,3.44-4.1,9.36-7.17,14.07-4.62,3.38,1.83,4.85,5.85,5.78,9.58,.94,3.73,1.75,7.76,4.52,10.43,3.97,3.83,10.75,3.62,14.5,7.67,2.97,3.21,3.11,8.14,2.22,12.42-.89,4.28-2.63,8.42-2.81,12.78-.32,7.56,3.99,14.4,7.01,21.34,2.51,5.77,4.18,12.3,2.34,18.31-2.37,7.75-10.27,12.86-18.3,13.92-8.03,1.05-16.13-1.29-23.59-4.44-6.12-2.59-12.15-5.79-18.77-6.43-4.41-.43-8.89,.31-13.29-.25-16.32-2.09-19.33-24.42-14.24-36.82Z"/><path class="cls-2" d="M101.99,2.22c5.22-5.65,7.55-13.81,13.74-18.38,.64-.47,1.34-.91,2.13-1.03,1.51-.23,2.99,.79,3.79,2.09,.8,1.3,1.09,2.85,1.41,4.34,1.29,5.93,3.79,12.08,8.94,15.28,3.02,1.87,6.85,2.67,9.04,5.47,2.87,3.68,1.61,8.93,.98,13.55-.71,5.15-.45,10.43,.77,15.48,.4,1.68,.92,3.42,.59,5.12-.24,1.24-.91,2.36-1.73,3.33-3.08,3.67-8.02,5.28-12.79,5.69-4.77,.41-9.58-.21-14.37-.12-4.79,.09-9.8,.99-13.54,3.98-3.01,2.4-4.97,5.97-8.17,8.11-4.37,2.92-10.55,2.48-14.79-.62s-6.51-8.51-6.32-13.76c.18-4.87,2.25-9.44,3.89-14.03,1.64-4.59,2.86-9.66,1.33-14.29-.81-2.45-3.14-6.3-.69-8.58,1.64-1.53,5.59-1.57,7.67-2.12,6.64-1.75,13.36-4.35,18.12-9.5Z"/><path class="cls-2" d="M78.92,55.99c.74,1.65,1.8,3.26,3.39,4.12,2.65,1.44,6.03,.4,8.43-1.42,2.4-1.82,4.18-4.34,6.42-6.36,3.49-3.16,8.12-5.04,12.82-5.22,2.21-.09,4.41,.19,6.61,.34,4.01,.27,8.06,.1,12.04-.49,1.55-.23,3.15-.55,4.38-1.52,2.1-1.66,2.5-4.68,2.3-7.35-.27-3.61-1.32-7.2-.91-10.8,.23-1.96,.88-3.84,1.1-5.8,.48-4.31-1.33-8.81-4.66-11.58-1.3-1.08-2.79-1.9-4.1-2.96-2.4-1.96-4.11-4.74-4.78-7.77-.28-1.28-.39-2.63-1.01-3.78-1.4-2.62-5.55-3.16-7.58-.99-1.6,1.72-1.7,4.32-2.6,6.49-.92,2.22-2.69,3.97-4.41,5.66-2.87,2.81-5.89,5.7-9.71,6.91-2.9,.92-6.03,.79-8.99,1.51-2.96,.72-5.99,2.73-6.35,5.76-.24,2.06,.82,4.04,1.04,6.1,.21,1.88-.29,3.76-.77,5.59-.62,2.32-1.24,4.64-1.86,6.95-.43,1.63-1.34,2.8-1.86,4.33-1.31,3.84-.6,8.69,1.03,12.31Z"/><path class="cls-2" d="M86.67,20.29c1.1-1.03,2.77-1.03,4.28-1.1,7.67-.36,15.06-4.61,19.23-11.06,.81-1.25,1.52-2.6,2.55-3.68,1.03-1.08,2.48-1.9,3.96-1.74,1.52,.17,2.76,1.31,3.64,2.56,.89,1.25,1.55,2.66,2.57,3.8,1.28,1.42,3.05,2.33,4.27,3.8,1.95,2.34,2.15,5.66,1.85,8.69-.1,1.07-.26,2.15-.1,3.21,.16,1.02,.6,1.97,.95,2.95,.85,2.35,1.19,4.89,.98,7.38-.19,2.32-.95,4.75-2.78,6.19-1.47,1.16-3.42,1.53-5.29,1.64-5.71,.34-11.53-1.27-17.11,.02-4.61,1.07-8.55,4.03-12.06,7.22-1.28,1.16-2.54,2.38-4.05,3.21-1.51,.83-3.35,1.25-4.99,.69-2.3-.79-3.63-3.33-3.72-5.76-.1-2.43,.78-4.78,1.69-7.03,1.52-3.79,3.16-7.62,3.71-11.69,.22-1.6,.15-2.92-.23-4.47-.4-1.6-.72-3.57,.63-4.83Z"/><path class="cls-2" d="M89.34,35.43c-1.78,2.86-4.01,5.58-4.65,8.89-.2,1.06-.23,2.18,.15,3.19,.38,1.01,1.23,1.88,2.28,2.09,1.31,.26,2.64-.53,3.5-1.56,.86-1.03,1.39-2.29,2.11-3.42,2.38-3.74,6.72-5.85,11.08-6.63,4.36-.78,8.83-.41,13.26-.23,1.81,.07,3.65,.11,5.39-.4,1.74-.51,3.38-1.64,4.07-3.32,.75-1.83,.24-3.93-.55-5.75-.79-1.81-1.87-3.53-2.3-5.46-.4-1.79-.23-3.67-.58-5.48-.4-2.06-1.5-3.97-3.07-5.36-.93-.82-2.11-1.47-3.34-1.36-.88,.08-1.68,.54-2.38,1.09-2.39,1.86-3.83,4.7-6.09,6.71-1.19,1.06-2.59,1.87-3.97,2.67-1.46,.84-2.94,1.69-4.57,2.12-1.28,.33-2.61,.4-3.9,.68-1.09,.24-2.66,.53-3.59,1.19-1.13,.8-.56,1.59-.45,2.73,.27,2.68-1.01,5.4-2.39,7.61Z"/><path class="cls-2" d="M90.41,39.71c-.26,.45-.53,.93-.56,1.45-.03,.52,.28,1.11,.79,1.2,.67,.13,1.18-.56,1.55-1.14,1.11-1.74,2.57-3.25,4.26-4.43,4.81-3.35,11.04-3.75,16.9-3.52,1.82,.07,3.69,.2,5.44-.34,1.75-.53,3.38-1.88,3.66-3.69,.21-1.36-.37-2.72-1.08-3.9-.72-1.18-1.59-2.27-2.09-3.56-.34-.89-.49-1.85-.86-2.73-.37-.88-1.04-1.72-1.97-1.93-.85-.19-1.73,.19-2.39,.76-.65,.57-1.12,1.31-1.62,2.02-2.49,3.52-6.1,6.43-10.34,7.24-1.53,.29-3.12,.29-4.63,.73-1.56,.45-1.75,.94-2.3,2.33-1.29,3.28-3.01,6.46-4.77,9.51Z"/><path class="cls-2" d="M104.72,28.97c-1.86,.26-3.92,.25-5.33,1.49-.24,.21-.46,.46-.52,.77-.16,.73,.65,1.38,1.4,1.36,.75-.01,1.42-.45,2.06-.83,3.82-2.27,8.46-3.14,12.84-2.4,1.06,.18,2.33,.37,3.03-.43,.62-.71,.37-1.9-.33-2.52-1.58-1.4-4.68-.67-6.43,.07-2.27,.96-4.21,2.14-6.72,2.49Z"/><path class="cls-2" d="M118.03,75.68c1.58,1.12,3.05,2.4,4.77,3.3,2.64,1.39,5.71,1.79,8.69,1.61,2.98-.18,5.89-.9,8.77-1.66,3.19-.84,6.6-1.87,8.61-4.49,1.93-2.52,2.12-5.95,1.85-9.11-.22-2.47-.67-4.94-1.64-7.23-.6-1.43-1.41-2.8-2.57-3.82-1.16-1.02-2.71-1.67-4.25-1.51-2,.2-3.62,1.64-5.33,2.69-2.72,1.67-5.93,2.42-9.12,2.58-3.19,.16-6.38-.25-9.53-.76-2.2-.36-4.42-.77-6.65-.7-2.23,.07-4.52,.67-6.22,2.12-.96,.82-1.69,1.87-2.36,2.94-1.2,1.92-3.91,7.11-.66,8.52,1.16,.5,2.73,.33,3.97,.56,1.94,.36,3.86,.94,5.69,1.68,2.12,.86,4.13,1.96,6,3.29Z"/><path class="cls-2" d="M111.57,61.06c2.14-.12,4.27,.17,6.4,.4,6.25,.68,12.87,.76,18.47-2.1,1.55-.79,3.11-1.83,4.84-1.73,1.39,.07,2.67,.9,3.53,1.99s1.35,2.44,1.68,3.79c.85,3.48,.58,7.52-1.86,10.15-2.29,2.46-5.88,3.13-9.23,3.39-1.93,.15-3.86,.21-5.8,.18-1.55-.02-3.11-.11-4.59-.55-1.1-.33-2.13-.84-3.16-1.35-2.4-1.2-4.8-2.39-7.2-3.59-2.11-1.05-4.75-1.94-6.55-3.51-1.2-1.05-1.25-2.48-.94-3.99,.45-2.2,2.33-2.96,4.41-3.08Z"/><path class="cls-2" d="M133.59,73.8c2.23,.02,4.55-.19,6.47-1.33,1.92-1.14,3.31-3.42,2.79-5.59-.44-1.81-2.11-3.15-3.91-3.62-1.81-.47-3.72-.21-5.53,.24-1.81,.45-3.58,1.09-5.42,1.39-4.22,.69-8.52-.42-12.8-.33-1.99,.04-3.97,1.38-1.85,3.06,1.82,1.45,4.22,2.48,6.35,3.35,4.4,1.81,9.15,2.78,13.91,2.82Z"/><path class="cls-2" d="M129.14,70.89c2.27,.51,4.78,.64,6.81-.51,.59-.34,1.18-.87,1.16-1.55-.01-.61-.52-1.11-1.05-1.42-1.42-.83-3.18-.82-4.8-.57-1.62,.25-3.23,.72-4.87,.74-1.44,.01-3.42-.61-4.77,.02-1,.47-1.07,1.02-.21,1.5,.82,.46,2.14,.39,3.05,.59,1.58,.33,3.1,.86,4.68,1.21Z"/><path class="cls-2" d="M52.53,114.78c.55,4.7-.36,9.89,2.27,13.83,2.68,4.01,8.18,5.3,11.05,9.17,1.8,2.43,2.33,5.57,2.47,8.59,.11,2.36,.04,4.8,.97,6.96,1.12,2.59,3.61,4.46,6.34,5.17,2.73,.71,5.67,.35,8.31-.63,2.4-.89,4.68-2.3,7.24-2.47,4.78-.32,9.64,3.72,14,1.73,2.66-1.22,3.98-4.42,3.77-7.34-.21-2.92-1.64-5.61-3.21-8.08-2.56-4.03-5.56-7.78-8.93-11.17-.85-.85-1.74-1.71-2.26-2.79-.48-1.02-.6-2.16-.68-3.29-.2-2.77-.22-5.62,.63-8.27,1.4-4.4,5.13-8.27,4.61-12.86-.18-1.62-.9-3.12-1.61-4.59-1.68-3.48-3.39-7.02-5.95-9.92-1.47-1.66-3.18-3.08-4.89-4.49-2.16-1.78-4.43-3.62-7.17-4.19-4.87-1.01-9.56,2.23-13.1,5.72s-6.91,7.59-11.67,9c-2.21,.65-4.6,.67-6.75,1.52-1.39,.55-3.66,2.04-3.23,3.8,.35,1.45,2.6,2.89,3.5,4.07,2.32,3.04,3.84,6.7,4.28,10.51Z"/><path class="cls-2" d="M56.07,111.3c.08,2.35-.38,4.69-.5,7.04-.12,2.35,.16,4.84,1.54,6.75,1.14,1.58,2.89,2.58,4.48,3.71,5.86,4.16,9.95,10.72,11.1,17.81,.26,1.59,.42,3.3,1.44,4.54,.76,.91,1.89,1.43,3.04,1.73,5.54,1.46,11.41-1.56,17.06-.64,1.95,.32,4.1,1.08,5.79,.05,1.49-.9,1.97-2.93,1.58-4.63-.39-1.7-1.47-3.15-2.51-4.54-1.91-2.54-3.81-5.08-5.72-7.61-1.49-1.98-3.01-4.02-3.75-6.39-2.38-7.62,3.88-15.54,2.9-23.46-.54-4.36-3.21-8.11-5.79-11.66-.99-1.36-1.98-2.73-2.97-4.09-1.04-1.43-2.1-2.88-3.52-3.93-1.42-1.05-3.28-1.66-4.98-1.17-2.55,.73-3.83,3.49-5.29,5.7-2.91,4.41-7.72,7.51-12.94,8.32-2.36,.37-5.26,.85-3.95,3.76,1.34,2.98,2.88,5.29,2.99,8.71Z"/><path class="cls-2" d="M69.39,99.13c2.82-1.83,4.5-4.93,6.06-7.91,.18-.35,.38-.72,.69-.96,.74-.58,1.89-.23,2.53,.46,.64,.7,.91,1.64,1.24,2.52,.76,2.02,1.93,3.89,3.41,5.46,1.16,1.23,2.53,2.3,3.29,3.81,.85,1.66,.84,3.65,.47,5.48-.37,1.83-1.07,3.58-1.55,5.38-1.51,5.69-.77,11.76,.77,17.44,.54,1.98,1.18,3.94,2.12,5.76,.73,1.41,1.64,2.73,2.15,4.22,.52,1.49,.59,3.26-.3,4.56-.87,1.28-2.46,1.85-3.96,2.22-2.08,.51-4.36,.78-6.28-.17-2.97-1.47-3.91-5.15-4.82-8.33-1.15-3.98-2.87-8-6.06-10.65-2.76-2.29-6.54-3.53-8.35-6.63-2.66-4.58-.06-10.54-1.37-15.51-.7-2.65-.65-3.69,2.11-4.45,2.66-.73,5.48-1.18,7.83-2.71Z"/><path class="cls-2" d="M73.88,100.54c.87-1.18,1.95-2.68,3.38-2.36,1.68,.38,1.77,2.77,2.93,4.05,.51,.56,1.22,.89,1.74,1.44,1.12,1.18,1.05,3.06,.62,4.63-.72,2.63-2.22,4.99-2.95,7.61-.95,3.38-.56,7.01,.33,10.41,.89,3.4,2.26,6.65,3.33,9.99,.24,.76,.47,1.56,.39,2.35-.08,.8-.55,1.6-1.31,1.85-.82,.27-1.73-.19-2.27-.87-.54-.67-.8-1.52-1.08-2.34-1.83-5.32-5.21-10.1-9.63-13.59-1.22-.97-2.54-1.86-3.47-3.11-1.39-1.89-1.63-4.26-1.76-6.53-.07-1.19-.07-2.38-.19-3.57-.09-.89-.71-2.42-.43-3.28,.51-1.58,3.75-1.72,5.07-2.34,2.09-.98,3.95-2.47,5.32-4.34Z"/><path class="cls-2" d="M75.43,107.24c1-.43,2.39-.19,2.82,.8,.28,.65,.07,1.43-.32,2.02s-.95,1.06-1.45,1.57c-1.07,1.12-1.86,2.51-2.26,4.01-.29,1.1-.49,2.4-1.48,2.96-.9,.51-2.1,.1-2.77-.68-1.27-1.48-2.11-5.68-.18-6.81,.88-.52,1.8-.46,2.66-1.16,1.06-.87,1.66-2.15,2.98-2.72Z"/><path class="cls-2" d="M98.3,91.2c2.26,3.62,4.59,7.53,4.45,11.79-.2,6.06-5.4,11.43-4.45,17.42,1.08,6.88,9.51,10.3,11.79,16.88,.88,2.55,.99,5.75,3.28,7.16,.7,.43,1.53,.62,2.33,.8,1.8,.39,3.67,.74,5.48,.35,3.95-.85,6.39-5.08,6.71-9.12,.17-2.11-.1-4.24,0-6.35,.1-2.12,.61-4.33,2.08-5.86,1.46-1.52,3.64-2.16,5.13-3.65,.99-1,1.6-2.3,2.1-3.62,1.29-3.44,1.92-7.24,1.06-10.81-.75-3.12-2.59-5.88-4.69-8.32-1.89-2.21-4.04-4.23-6.58-5.65-2.4-1.34-5.08-2.09-7.55-3.3-1.71-.84-3.32-1.89-5.09-2.6-1.66-.66-3.43-1-5.13-1.58-2.79-.94-5.34-2.49-8.09-3.56-1.77-.69-8.78-3.45-8.49,.28,.11,1.47,1.25,2.91,2.03,4.08,1.24,1.86,2.44,3.74,3.62,5.63Z"/><path class="cls-2" d="M105.52,109.13c-.51,1.71-1.25,3.35-1.71,5.07-.37,1.38-.57,2.8-.58,4.23,0,.9,.05,1.8,.35,2.65,.76,2.15,2.84,3.48,4.49,5.05,2.24,2.14,3.82,4.97,4.47,8,.25,1.17,.36,2.37,.76,3.5,.4,1.13,1.13,2.21,2.24,2.66,1.15,.47,2.51,.16,3.53-.54,1.02-.7,1.75-1.76,2.33-2.85,1.26-2.35,1.96-4.98,2.04-7.64,.04-1.26-.06-2.53,.18-3.76,1.03-5.24,7.66-8,8.53-13.26,.31-1.85-.17-3.74-.83-5.5-2.84-7.54-9.28-13.63-16.97-16.05-1.55-.49-3.14-.83-4.68-1.36-2.38-.81-4.91-3.06-7.36-3.36-1.69-.21-3.09,.98-2.4,2.62,.68,1.62,2.54,2.84,3.52,4.3,1.43,2.11,2.24,4.73,2.65,7.22,.49,3,.33,6.11-.54,9.02Z"/><path class="cls-2" d="M108.15,112.9c-.69,1.52-1.59,3.05-1.54,4.72,.09,2.69,2.53,4.59,4.26,6.65,1.24,1.48,2.2,3.21,2.78,5.05,.41,1.28,.78,2.78,1.99,3.35,1.62,.75,3.46-.87,3.93-2.59,.47-1.73,.15-3.58,.52-5.33,.58-2.78,2.76-4.88,4.42-7.19,3.03-4.23,4.36-10.05,2.05-14.71-1.65-3.32-4.86-5.6-8.18-7.26-3.28-1.64-10.61-4.51-9.44,1.7,1.02,5.44,1.59,10.35-.8,15.6Z"/><path class="cls-2" d="M111.62,114.49c-.42,.95-.88,1.96-.68,2.97,.1,.5,.35,.96,.61,1.4,1.15,2.03,2.3,4.07,3.45,6.1,.09,.17,.19,.34,.34,.46,.57,.47,1.44-.05,1.84-.67,1.59-2.44,.23-5.89,1.54-8.49,.89-1.76,2.83-2.76,3.93-4.4,1.45-2.16,1.15-5.16-.17-7.4-1.41-2.41-9.46-9.54-10-3.01-.14,1.64,1.01,3.27,1.08,4.94,.11,2.76-.84,5.6-1.94,8.09Z"/><path class="cls-2" d="M70.3,73.61c.4-.23,.81-.44,1.26-.5,.59-.08,1.18,.1,1.75,.3,.51,.19,1.01,.39,1.5,.62,.59,.27,1.21,.62,1.46,1.23,.33,.8-.2,1.78-.99,2.14-.8,.35-1.73,.19-2.57,.42-.76,.21-1.39,.72-1.97,1.25-.4,.37-.79,.76-1.29,.98-.5,.21-1.14,.2-1.52-.19-.32-.32-.38-.81-.39-1.27-.01-.92,.06-2.1,.5-2.93,.47-.9,1.41-1.56,2.27-2.05Z"/><path class="cls-2" d="M136.6,89.21c.54,.16,1.08,.39,1.46,.82,.37,.42,.53,1.08,.24,1.57-.26,.44-.79,.63-1.29,.75-.21,.05-.44,.1-.58,.26-.17,.19-.19,.48-.31,.7-.19,.33-.61,.46-.98,.54-1.51,.33-3.77-.55-3.03-2.49,.64-1.69,2.86-2.64,4.49-2.15Z"/></g></g></g><g><path class="cls-6" d="M118.09,46.28c-.09-.4-.19-.88-.29-1.38-.63-3.17-1.42-7.13-4.65-9.27l-.29-.2c-14.03-9.34-22.03-14.54-23.77-15.45-11.96-6.28-25.63-9.9-40.61-10.75-.33-.02-.66-.03-.98-.03-4.46,0-8.15,1.92-10.67,5.54-2.65,3.81-4.67,7.91-6,10.62-.3,.61-.66,1.34-.87,1.72-6.39,7.12-12.13,15.32-11.52,26.83,.08,1.48,.34,2.76,.79,3.88l2.32,9.79,1.25,5.29,.08-.02c4.68,17.37,11.53,31.57,20.85,43.27,3.79,4.75,9.24,8,15.76,9.38,.52,.11,1.06,.17,1.6,.17,3.87,0,6.81-2.68,9.65-5.27,1.11-1.01,3.14-2.85,4.04-3.17,.64,0,1.31,.01,1.97,.01,.49,0,.99,0,1.48,0,.13,0,.25,0,.38,0,10.27,0,18.79-3.96,25.32-11.78,1.7-2.04,5.85-9.29,9.13-16.5,3.68-6.95,4.89-13.12,5.3-15.19h0v-.06c1.2-6.15,.4-24.47-.29-27.45Z"/><g><path class="cls-5" d="M110.38,74.73c-3,8.82-6.58,17.35-13.1,24.26-7.02,7.44-15.96,9.64-25.34,5.67-4.26-1.8-8.39-4.24-12.05-7.07-11.83-9.14-20.64-20.97-28.57-33.48-1.36-2.15-5.54-2.35-5.54-2.35,0,0,.11,.63,.17,.9,3.92,18.21,10.25,35.41,22,50.16,3.15,3.96,7.63,6.4,12.66,7.46,3.83,.81,9.15-8.47,14.09-8.39,1.2,.02,2.39,0,3.59,.02,8.71,.08,15.93-3.16,21.52-9.84,2.18-2.6,13.88-23.37,13.73-33.58,0-.59-.18-1.18-.39-2.5-1.09,3.45-1.87,6.12-2.76,8.74Z"/><path class="cls-9" d="M27.73,57.5c4.08-.12,8.19-.07,12.22-.63,7.12-.99,14.17-2.51,21.26-3.73-10.17-2.08-19.83-6.55-31.18-5.58,2.06-3.34,4.48-4.95,7.92-4.5,1.96,.26,3.91,.74,5.83,1.23,13.91,3.49,27.73,7.36,41.74,10.38,7.83,1.69,15.86,3.32,23.97,2.85,2.62-.15,3.16-.84,3.73-3.82,.41-2.16,.16-4.25-.31-6.25-.58-2.53-1.76-4.93-2.67-7.38-.5,2.68-.3,5.07-.54,7.42-.4,3.93-2.53,5.96-6.46,6.08-2.27,.07-4.64-.09-6.81-.7-9.39-2.64-18.73-5.49-28.08-8.28-.66-.2,.35-1,1.41-1.01,12.04-.11,14.27,.11,14.27,.11,1.05,.03,3.04,.08,4.15-1.21,.38-.44,.55-.9,.63-1.2,.03-.39,.02-1.01-.26-1.66-.7-1.64-11.29-6.77-15.48-8.6-4.19-1.83-8.51-3.37-13.4-5.23-.4-.15-.36-.48,.08-.49,4.14-.02,9.08,.29,14.57,1.35,8.59,1.67,15.46,4.58,20.31,7.11-.29-1.38-5.5-7.76-7.98-9.06-12-6.3-24.92-9.37-38.41-10.14-2.8-.16-5.12,.63-6.91,3.21-3.74,5.38-3.53,6.64,2.85,8.55,6.1,1.82,12.36,3.13,18.48,4.9,4.54,1.32,8.98,3.01,13.46,4.54,.43,.21,.33,.81-.23,.71-5.51-1.28-10.98-2.75-16.53-3.78-7.14-1.33-14.33-2.38-21.52-3.38-1.13-.16-2.81,.24-3.52,1.02-5.96,6.6-10.94,13.62-10.43,23.26,.16,2.94,1.24,3.99,3.83,3.91Z"/><path class="cls-11" d="M66.89,85.6c.63-.05,1.6-1.51,1.63-2.35,.15-5.06,.08-10.14,.08-15.76-1.44,.69-2.43,1.1-3.35,1.62-5.04,2.86-10.16,3.87-15.62,1.06-1.09-.56-2.54-.82-3.75-.64-1.14,.16-2.58,.83-3.12,1.74-.43,.71,0,2.33,.58,3.18,4.45,6.54,10.4,11.45,17.21,15.36,1.07,.62,2.34,.91,3.71,1.42,.09-.84,.28-1.35,.17-1.78-.53-2.18-.27-3.62,2.47-3.85Z"/><path class="cls-10" d="M92.88,97.52c2.02-1.88,3.89-4.03,5.41-6.33,4.99-7.57,6.89-13.18,6.49-22.25-5.66,16.68-14.5,26.91-32.95,31.34,7.85,3.73,15.04,2.8,21.05-2.77Z"/><path class="cls-8" d="M88.61,73.51c.38-1.43,.35-3.13-1.85-2.68-2.88,.59-5.69,1.54-9.03,2.47,1.52,2.73,3.36,4.58,6.16,4.55,2.57-.03,4.08-1.95,4.71-4.34Z"/></g></g><g class="cls-7"><g class="cls-4"><g><path class="cls-2" d="M20.79,48.16c-.16-6.28,5.52-11.1,11.11-13.97,5.59-2.87,11.96-5.07,15.62-10.18,3.11-4.34,3.65-10.03,3.27-15.35-.38-5.33-1.57-10.6-1.5-15.94,.02-1.77,.25-3.68,1.47-4.96,2.55-2.67,7.4-.82,10.45-2.89,1.04-.71,1.75-1.8,2.67-2.66,3.11-2.91,8.01-2.65,12.14-1.6,9.22,2.35,17.63,7.68,27.07,8.89,1.12,.14,2.33,.21,3.31-.35,.95-.54,1.5-1.58,1.87-2.61,1.49-4.14,.76-8.69,.54-13.08-.22-4.39,.3-9.28,3.54-12.25,2.58-2.37,6.42-3.06,8.82-5.61,2.72-2.88,2.86-7.3,4.65-10.83,1.42-2.82,3.84-4.98,6.2-7.07,3.14-2.78,6.28-5.57,9.41-8.35"/><path class="cls-2" d="M21.16,38.28c.75-4.17,5.2-6.37,8.98-8.28,7.64-3.86,15.2-9.99,16.32-18.48,.76-5.8-1.66-11.51-2.19-17.33-.34-3.71,.42-8.02,3.61-9.94,2.51-1.52,5.85-1.1,8.35-2.64,.95-.59,1.72-1.43,2.57-2.16,4.76-4.16,11.75-4.84,17.95-3.6,6.2,1.24,11.92,4.14,17.79,6.47,2.42,.96,5.34,1.78,7.47,.28,1.14-.8,1.79-2.13,2.14-3.47,.85-3.27,.14-6.72-.17-10.09s-.07-7.11,2.22-9.59c2.85-3.08,7.73-3.1,11.23-5.4,2.06-1.36,3.58-3.52,4.16-5.92,.52-2.18,.28-4.47,.56-6.69,.28-2.23,1.28-4.6,3.34-5.49"/><path class="cls-2" d="M22.34,28.81c4.47-4.6,11.49-6.47,15.01-11.83,2.7-4.12,2.7-9.43,2.12-14.33s-1.65-9.86-.75-14.7c.89-4.85,4.43-9.67,9.34-10.11,1.71-.15,3.49,.22,5.11-.33,2.37-.8,3.68-3.25,5.48-4.98,2.76-2.64,6.79-3.57,10.61-3.53,7.37,.07,14.3,3.23,20.99,6.32,2.25,1.04,4.99,2.05,7.06,.68,2.71-1.8,1.9-5.85,1.5-9.07-.41-3.3,.06-6.93,2.29-9.39,3-3.3,8.34-3.7,11.2-7.12,1.79-2.14,2.25-5.3,1.14-7.86-.7-1.62-1.97-3-2.36-4.73-.39-1.73,.79-4,2.54-3.7"/><path class="cls-2" d="M37.71-65.04c1.22,4.97,2.45,9.94,3.67,14.91,.67,2.73,1.41,5.58,3.29,7.67,1.38,1.53,3.34,2.6,4.19,4.48,1.01,2.23,.08,4.91-1.41,6.85-3.58,4.64-10.03,6.55-13.11,11.53-1.93,3.12-2.23,6.97-2.1,10.64,.1,2.81,.42,5.62,.96,8.38,.43,2.21,1,4.41,1.04,6.66,.03,2.25-.54,4.62-2.11,6.23-1.36,1.4-3.27,2.07-5.14,2.64-2.17,.66-4.42,1.23-6.68,1.13-2.27-.1-4.6-.96-6.02-2.73"/><path class="cls-2" d="M33.13-63.73c.46,8.12,3.2,16.1,7.82,22.79,1.19,1.72,2.55,3.48,2.73,5.56,.29,3.32-2.5,6.1-5.38,7.79s-6.18,2.91-8.26,5.52c-1.78,2.23-2.39,5.17-2.6,8.01-.24,3.21-.03,6.45,.62,9.6,.6,2.91,1.55,6.04,.31,8.74-.87,1.88-2.71,3.2-4.7,3.77-3.84,1.11-8.31-.52-10.54-3.85"/><path class="cls-2" d="M20.99,66.39c.1-7.15,1.17-14.69,5.62-20.29,7.03-8.87,20.88-10.91,26.37-20.81,4.28-7.71,1.86-17.19,.99-25.97-.23-2.32-.1-5.13,1.91-6.31,2.82-1.65,6.73,1.48,9.56-.17,2.61-1.52,2.59-6.24,5.57-6.77,1.07-.19,2.14,.31,3.07,.87,4.04,2.43,7.18,6.31,8.71,10.77,2.8,8.18,.31,17.91,4.83,25.28,2.28,3.72,6.22,6.56,7.13,10.82,.76,3.54-.79,7.1-1.85,10.56-1.4,4.55-1.93,9.73,.4,13.88,4,7.14,14.71,8.51,18.27,15.87,2.89,5.98-.55,13.46-5.94,17.34s-12.2,5.05-18.74,6.19c-6.54,1.14-13.36,2.48-18.57,6.6-3.95,3.12-6.68,7.73-7.52,12.69-.5,2.95-.53,6.38-2.83,8.3-.75,.63-1.69,1.02-2.63,1.29-4.24,1.19-8.75,.02-12.96-1.27-4.21-1.29-8.58-2.71-12.93-2.03-4.35,.68-8.61,4.28-8.35,8.67-.48-.99-.97-1.98-1.45-2.97"/><path class="cls-2" d="M23.14,62.98c1.37-5.38,3.38-10.79,7.18-14.84,6.15-6.55,15.92-8.49,22.57-14.54,4.82-4.37,7.68-10.83,7.69-17.33,0-5.32-1.78-10.48-2.12-15.79-.04-.57-.03-1.2,.34-1.63,.38-.43,1.03-.51,1.6-.52,3.34-.07,7.52,.54,9.27-2.31,.74-1.2,.84-2.84,1.97-3.69,2-1.51,4.65,.94,5.56,3.27,3.21,8.17,.6,17.7,3.63,25.94,2.27,6.17,7.63,11.39,7.67,17.97,.04,5.2-3.37,10.24-2.23,15.32,1.16,5.16,6.4,8.09,10.42,11.52,2.32,1.98,4.35,4.3,6,6.85,2.44,3.77,3.91,9.08,1.01,12.51-1,1.17-2.38,1.94-3.75,2.64-4.4,2.25-9.03,4.06-13.78,5.41-4.47,1.26-9.06,2.12-13.41,3.75-4.34,1.64-8.52,4.17-11.09,8.04-1.91,2.88-2.81,6.29-4.28,9.41-1.47,3.12-3.81,6.17-7.16,7-5.58,1.37-10.47-3.78-15.97-5.44-6.11-1.84-13.34,1.35-16.09,7.11"/><path class="cls-2" d="M37.34,111.89c1.98,1.72,4.02,3.47,6.49,4.35,2.47,.88,5.49,.7,7.38-1.12,1.42-1.37,1.97-3.38,2.59-5.25,1.35-4.06,3.36-7.98,6.4-11,4.26-4.23,10.16-6.36,15.98-7.85,5.82-1.49,11.82-2.48,17.29-4.98,1.47-.67,2.94-1.49,3.89-2.81,1.26-1.75,1.36-4.15,.69-6.21-.67-2.05-2.01-3.82-3.46-5.42-5.21-5.78-12.35-10.06-20.1-10.75-3.54-.32-7.23,.09-10.52-1.23-2.58-1.03-4.65-3.02-6.99-4.51-3.77-2.4-8.47-3.49-12.81-2.46-4.83,1.15-8.79,4.82-11.18,9.17-2.39,4.35-3.35,9.34-3.77,14.29-.69,8.27,.06,16.59,.82,24.85,.18,1.98-.26,7.09,1.3,8.37,.54,.44,2.15,.25,2.84,.5,1.18,.42,2.24,1.25,3.17,2.07Z"/><path class="cls-2" d="M64.43,15.48c-.13-1.76-.42-3.56-.01-5.28,.41-1.72,1.77-3.37,3.53-3.44,1.71-.07,3.14,1.33,4.02,2.8,2.42,4.06,2.4,9.12,4.22,13.49,1.73,4.16,5.14,7.82,5.22,12.33,.08,4.66-3.48,9.39-1.57,13.64,.4,.89,1.03,1.69,1.21,2.66,.36,1.96-1.32,3.76-3.17,4.51-3.17,1.28-6.83,.47-9.91-1.02-3.08-1.48-5.82-3.6-8.9-5.1-2.05-1-12.11-2.1-12.4-4.4-.26-2.04,7.24-5.81,8.75-7.27,6.06-5.88,9.64-14.43,9.01-22.91Z"/><path class="cls-2" d="M34.17,76.28c.07-1.74,.13-3.5,.57-5.18,.69-2.69,2.28-5.06,3.83-7.36,1.55-2.29,3.26-4.72,5.86-5.68,2.35-.87,5-.34,7.3,.64,2.3,.98,4.41,2.39,6.7,3.38,7.03,3.03,15.23,1.92,22.45,4.46,2.53,.89,4.89,2.22,7.23,3.54,.82,.47,1.67,.94,2.28,1.66,.68,.79,1.02,1.81,1.26,2.83,.63,2.66,.42,5.91-1.79,7.5-1.85,1.33-4.36,1.01-6.64,1.08-3.5,.11-6.88,1.27-10.18,2.45-3.7,1.32-7.4,2.7-10.78,4.71-3.37,2.01-6.43,4.7-8.31,8.15-1.7,3.12-2.52,6.94-5.37,9.06-3.26,2.44-8.06,1.59-11.41-.73-.95-.66-1.85-1.45-2.38-2.48-.8-1.56-.6-4.1-.71-5.83-.16-2.46-.24-4.93-.26-7.39-.04-4.94,.14-9.87,.33-14.81Z"/><path class="cls-2" d="M37.45,81.16c.1-2.87,.31-5.76,1.11-8.51s2.24-5.39,4.46-7.21c3.25-2.67,8.08-3.25,11.87-1.42,1.17,.56,2.23,1.32,3.38,1.91,2.61,1.32,5.58,1.7,8.48,2.05l6.72,.82c2.17,.26,4.36,.53,6.45,1.16,1.45,.44,2.9,1.07,3.93,2.18,1.04,1.11,1.58,2.77,1.05,4.19-.64,1.72-2.55,2.56-4.28,3.16-4.95,1.72-10.05,3.02-14.9,4.99-4.85,1.97-9.54,4.7-12.85,8.76-1.54,1.89-2.78,4.06-4.62,5.67-1.83,1.61-4.54,2.58-6.74,1.51-1.4-.68-2.34-2.06-2.96-3.5-1.98-4.58-1.27-10.9-1.1-15.77Z"/><path class="cls-2" d="M41.81,75.82c.45-2.9,1.45-6.06,4-7.51,1.91-1.08,4.29-.94,6.39-.32,2.1,.62,4.05,1.67,6.13,2.38,5.78,1.98,12.1,1.16,18.17,1.9,.62,.07,1.29,.2,1.68,.68,.25,.31,.34,.72,.34,1.12,.03,1.51-.98,2.89-2.24,3.71-1.26,.82-2.76,1.2-4.23,1.55-6.91,1.67-14.08,3.34-19.7,7.68-1.3,1.01-2.52,2.16-3.36,3.58-.52,.88-.9,1.86-1.55,2.64-.65,.79-1.7,1.37-2.69,1.09-2.27-.65-2.81-5.42-3.07-7.42-.48-3.68-.44-7.43,.13-11.1Z"/><path class="cls-2" d="M64.16,33.44c.65-1.37,1.25-2.76,1.7-4.21,1.34-4.36,1.21-9,1.43-13.56,.04-.72,.15-1.57,.78-1.93,.5-.28,1.17-.12,1.61,.26s.69,.93,.89,1.47c.91,2.49,.96,5.23,1.91,7.7,.62,1.63,1.62,3.1,2.36,4.69,1.49,3.22,1.87,6.94,1.06,10.39-.52,2.22-1.52,4.47-1.01,6.69,.36,1.58,1.48,3.04,1.25,4.64-.28,1.93-2.51,3.08-4.45,2.85-1.94-.23-3.6-1.45-5.11-2.67-1.51-1.23-3.05-2.55-4.93-3.05-1.4-.38-2.89-.27-4.29-.65-.72-.19-1.48-.51-2.07-.97-.87-.68-.91-.76-.13-1.43,1.11-.95,2.61-1.45,3.74-2.5,2.29-2.14,3.94-4.91,5.28-7.72Z"/><path class="cls-2" d="M21.29,138.58c2.6-7.1,11.29-11.3,18.47-8.94,2.44,.8,4.63,2.23,7.08,2.99,4.73,1.48,10.22,.2,13.8-3.22,2.13-2.03,3.57-4.68,5.54-6.87,1.97-2.19,4.84-3.97,7.72-3.39,3.67,.74,5.56,4.77,6.59,8.36,1.83,6.36,2.74,12.95,3.48,19.53,.3,2.65,.64,5.47,2.34,7.52,.88,1.06,2.06,1.83,2.99,2.84,2.14,2.33,2.71,5.96,1.4,8.83-1.2,2.62-3.67,4.39-5.89,6.24-3.39,2.83-6.46,6.23-8,10.37-1.54,4.14-1.32,9.12,1.38,12.61,2.21,2.86,6.07,5.01,6.12,8.63,.05,3.24-3.06,5.51-5.83,7.2-.18,.11-.44,.2-.57,.04-.13-.16,.32-.29,.22-.11"/><path class="cls-2" d="M22.22,143.87c.26-3.24,1.89-6.36,4.42-8.41,2.52-2.06,5.9-3.03,9.13-2.62,3.77,.47,7.11,2.68,10.8,3.57,4.07,.98,8.45,.29,12.22-1.54,3.77-1.83,6.94-4.74,9.44-8.11,.65-.88,1.3-1.83,2.29-2.28,1.5-.7,3.36,0,4.45,1.24,1.09,1.24,1.56,2.91,1.86,4.53,.76,4.06,.7,8.22,1.15,12.33,.45,4.1,1.5,8.31,4.12,11.5,1.27,1.54,2.99,3.14,2.71,5.11-.16,1.13-.96,2.05-1.75,2.86-2.16,2.22-4.58,4.27-7.45,5.43-4.29,1.72-9.09,1.28-13.69,1.78-9.52,1.02-18.35,6.26-24.52,13.59-2.8,3.33-5.2,7.17-8.92,9.42-3.53,2.14-7.86,2.57-11.98,2.26,.32-.78,.47-1.64,.42-2.49"/><path class="cls-2" d="M23.44,149.73c.46-3.34,1.98-6.58,4.49-8.83,2.51-2.25,6.03-3.43,9.35-2.83,1.92,.35,3.68,1.25,5.52,1.9,7.88,2.82,17.28,.79,23.3-5.03,1.18-1.14,2.49-2.52,4.13-2.38,1.57,.13,2.7,1.7,2.96,3.25,.26,1.56-.1,3.14-.26,4.71-.46,4.45,.74,9.06,3.32,12.72,.73,1.03,1.59,2.05,1.81,3.3,.19,1.08-.14,2.21-.74,3.13-2.04,3.1-6.33,3.47-10.02,3.87-14.12,1.56-27.72,8.63-36.44,19.85-1.01,1.3-1.98,2.67-3.35,3.59-2.07,1.38-4.72,1.5-7.2,1.38-.74-.04-1.76-.49-1.47-1.18"/><path class="cls-2" d="M49.1,76.96c.27-.46,.62-.89,1.07-1.17,.8-.5,1.8-.5,2.74-.47,.89,.02,1.79,.04,2.68,.06,.32,0,.64,.02,.93,.14,.68,.29,.96,1.19,.73,1.89-.24,.7-.87,1.21-1.56,1.49-.69,.27-1.44,.35-2.17,.44-.74,.09-1.49,.21-2.14,.57-.77,.41-2.35,1.76-3,.47-.44-.87,.29-2.67,.72-3.41Z"/><path class="cls-2" d="M67.85,75.71c.4,0,.83,.02,1.16,.26,.46,.34,.52,1.08,.17,1.53-.35,.45-1.04,.57-1.55,.32-.43-.21-.73-.64-1.17-.84-1.88-.85,.41-1.24,1.4-1.26Z"/><path class="cls-2" d="M37.79,49.3c.45,.02,.96,.2,1.13,.62,.15,.38-.04,.83-.33,1.12-.69,.68-3.24,3-3.72,1.19-.45-1.68,1.45-3,2.92-2.93Z"/><path class="cls-2" d="M66.4,39.91c.16,.67,.62,1.22,.98,1.81,.33,.55,.59,1.14,.74,1.76,.11,.44,.2,.92,.54,1.22,.41,.35,1.06,.28,1.52,0,.58-.35,.96-1.01,.98-1.68,.05-1.22-.97-2.26-1.1-3.48-.13-1.3,.77-2.66,.26-3.87-.52-1.24-2.06-1.88-2.45-.35-.37,1.5-1.87,2.95-1.48,4.58Z"/><path class="cls-2" d="M75.31-.34c.14,.48,.22,.97,.39,1.43,.18,.48,.46,.93,.49,1.44,.03,.54-.25,1.08-.71,1.36-1.78,1.1-3.26-2.03-3.33-3.43-.12-2.26,2.42-3.3,3.16-.8Z"/><path class="cls-2" d="M85.36,60.8c.25,.07,.55,.1,.72-.09,.08-.08,.11-.2,.12-.31,.05-.42-.15-.81-.43-1.14-.16-.19-.35-.37-.53-.54-.5-.45-3-2.43-2.94-.72,.05,1.35,1.96,2.52,3.06,2.81Z"/><path class="cls-2" d="M88.32,214.71c-.63-4.88,1.7-9.99,.14-14.65-1.73-5.16-7.91-8.7-7.56-14.13,.31-4.79,5.43-7.47,8.83-10.87,5.85-5.85,6.73-15.99,1.99-22.77-1.53-2.18-3.57-4.07-4.5-6.57-2.04-5.49,2-11.71,.48-17.37-1.22-4.54-5.87-8.18-5.22-12.84,.55-3.92,4.77-6.29,8.69-6.79,3.92-.49,7.94,.27,11.85-.35,10.29-1.63,16.51-11.78,23.11-19.84,1.99-2.43,4.37-4.89,7.47-5.41,3.04-.52,6.08,.96,8.56,2.8,2.9,2.15,5.39,4.86,7.23,7.97,2.04,3.46,3.24,7.33,4.59,11.11,3.36,9.37,7.91,18.53,14.98,25.53,7.08,7,17.01,11.6,26.9,10.51,4.92-.54,9.65-2.44,14.6-2.65,4.95-.21,10.6,1.94,12.1,6.66,1.57,4.92-1.89,10.82,.81,15.23,3.26,5.35,11.94,3.25,16.91,7.07,3.66,2.81,4.32,8.2,3.2,12.68-.7,2.8-1.97,5.63-1.36,8.45,.8,3.67,4.41,5.87,7.07,8.51,5.99,5.94,8.78,16.01,16.95,18.1"/><path class="cls-2" d="M136.93-61.84c-2.25,3.38-6.97,4.73-8.65,8.43-1.26,2.78-.4,6.1-1.32,9.01-.79,2.51-2.8,4.42-4.78,6.15-1.97,1.73-3.99,3.41-6.06,5.03-1.35,1.06-2.81,2.23-3.18,3.91-.57,2.6,1.71,4.9,2.33,7.49,.67,2.76-.58,5.57-1.67,8.19s-2.04,5.65-.83,8.22c.71,1.5,2.05,2.58,3.38,3.56,2.52,1.86,5.17,3.55,7.92,5.04,2.17,1.18,4.43,2.26,6.34,3.83,1.91,1.57,3.41,3.59,5.36,5.11,1.95,1.52,4.6,2.51,6.89,1.57,1.08-.44,1.96-1.27,2.77-2.11,4.12-4.24,7.34-9.26,11.3-13.64s8.97-8.23,14.83-9.02c1.67-.22,3.59-.31,4.61-1.64,.53-.69,.7-1.6,.69-2.48-.02-3.27-2.15-6.16-4.53-8.41s-5.12-4.18-7-6.85c-2.84-4.04-3.35-9.23-3.51-14.16-.12-3.92-.08-7.85-.04-11.77,.02-2.17,.08-4.46,1.19-6.32"/><path class="cls-2" d="M140.53-61.56c-.25,1.68-1.12,3.26-2.4,4.36-1.56,1.34-3.7,2.01-4.87,3.69-1.98,2.82-.24,6.68-.52,10.11-.36,4.32-3.9,7.64-7.44,10.13-2.46,1.74-5.32,3.74-5.54,6.74-.22,2.89,2.18,5.45,2.18,8.35,0,3.64-3.74,6.57-3.45,10.19,.19,2.39,2.15,4.3,4.28,5.39,2.14,1.09,4.52,1.6,6.71,2.58,1.81,.81,3.47,1.95,4.88,3.34,1.01,1,1.99,2.18,3.38,2.46,2.33,.46,4.22-1.81,5.51-3.81,3.73-5.75,7.95-11.83,14.41-14.13,2.48-.88,5.59-1.5,6.48-3.98,.55-1.54-.04-3.26-.81-4.71-1.36-2.55-3.29-4.79-4.33-7.48-.87-2.25-1.07-4.69-1.25-7.1-.29-3.66-.57-7.31-.86-10.97-.3-3.79-.58-7.69,.55-11.31,.81-2.58,2.34-5.21,1.59-7.81"/><path class="cls-2" d="M91.62,13.06c1.39,1.89,3.54,3.04,5.34,4.55,3.01,2.52,5.06,6.26,5.23,10.19,.17,3.89-1.43,7.6-2.48,11.35-1.05,3.75-1.46,8.08,.78,11.26,3.23,4.59,10.56,4.83,13.58,9.57,.64,1.01,1.05,2.17,1.8,3.1,2.04,2.51,5.88,2.51,9,1.68,2.12-.56,4.2-1.43,5.85-2.86,1.65-1.44,2.84-3.5,2.88-5.69,.04-2.82-1.74-5.3-3.33-7.63-1.59-2.33-3.11-5.09-2.47-7.84,.67-2.87,3.41-4.65,5.61-6.6,3.19-2.82,5.69-7.02,4.84-11.19-.76-3.72-3.99-6.47-7.45-8.03-3.46-1.56-7.26-2.2-10.83-3.49-3.57-1.29-7.11-3.43-8.7-6.87-1.04-2.25-1.16-4.86-2.39-7.01-1.28-2.22-3.66-3.68-6.19-4.12-3.14-.55-6,.45-8.79,1.8-1.8,.87-4.07,1.3-4.61,3.5-.5,2.07,.15,4.74,.29,6.83,.17,2.61,.44,5.36,2.04,7.53Z"/><path class="cls-2" d="M94.36,.97c.91-1.95,3.24-2.79,5.38-3.06,.59-.07,1.19-.12,1.76,.05,.73,.22,1.32,.76,1.77,1.37,1.51,2.04,1.72,4.77,2.94,7,1.52,2.77,4.41,4.47,7.26,5.83,3.6,1.72,7.35,3.12,11.15,4.32,1.51,.48,3.05,.93,4.4,1.77,1.35,.83,2.5,2.12,2.79,3.68,.53,2.86-1.85,5.32-3.77,7.5-2.53,2.87-4.67,6.45-4.43,10.27,.26,4.24,3.4,7.97,3.37,12.22-.01,1.97-.79,3.99-2.33,5.21-1.54,1.23-3.87,1.5-5.5,.4-1.93-1.3-2.52-4.06-4.55-5.19-2.33-1.29-5.51,.15-7.8-1.21-1.43-.84-2.11-2.59-2.16-4.24-.04-1.66,.44-3.27,.85-4.88,1.16-4.56,1.72-9.32,1.06-13.97-.66-4.65-2.6-9.2-5.93-12.52-2.05-2.05-5.41-3.88-6.51-6.69-.37-.95-.25-1.98-.24-2.98,.02-1.6-.18-3.38,.51-4.87Z"/><path class="cls-2" d="M111.96,21.27c1.82-1.29,4.26-1.51,6.41-.93,1.69,.46,3.29,1.39,5.04,1.45,.69,.02,1.38-.09,2.06-.05,.69,.05,1.41,.29,1.8,.86,.18,.26,.27,.57,.32,.89,.24,1.55-.61,3.08-1.67,4.23-1.06,1.16-2.37,2.08-3.38,3.28-1.72,2.04-2.47,4.76-2.48,7.42s.69,5.28,1.6,7.79c.45,1.24,.97,2.51,.87,3.82-.1,1.31-1.04,2.68-2.35,2.74-1.05,.05-1.97-.72-2.57-1.57-.6-.86-1.02-1.85-1.71-2.64-.89-1.01-2.23-1.61-3.57-1.6-.66,0-1.32,.14-1.97,.02-1.45-.27-2.39-1.8-2.52-3.27-.13-1.47,.35-2.92,.73-4.35,.92-3.47,1.31-7.11,1.09-10.69-.17-2.81-.3-5.58,2.31-7.42Z"/><path class="cls-2" d="M112.81,32.82c-.22-1.11-.6-2.18-.78-3.3s-.13-2.33,.47-3.29c1.14-1.82,3.73-2.04,5.81-1.56,1.23,.28,2.59,.93,2.83,2.16,.23,1.14-.6,2.18-1.26,3.14-2.1,3.05-2.85,7-2.03,10.61,.18,.81,.44,1.61,.39,2.44-.25,3.97-5.29,.83-5.88-1.45-.27-1.04,.15-2.15,.33-3.17,.34-1.84,.46-3.74,.1-5.58Z"/><path class="cls-2" d="M76.66,104.02c1.23-.52,2.57-.68,3.9-.82,4.32-.47,8.75-.86,12.67-2.75,.67-.32,1.34-.7,2.07-.84,.73-.14,1.57-.01,2.08,.54,.61,.67,.53,1.76,.06,2.53-.48,.77-1.26,1.29-2.03,1.76-1.76,1.07-3.62,2.02-5.63,2.44-2.51,.52-5.25,.22-7.5,1.43-1.89,1.01-3.1,2.91-4.54,4.49-1.45,1.58-3.53,2.96-5.61,2.43-2.12-.55-2.61-3.99-1.63-5.68,1.28-2.21,3.81-4.54,6.17-5.53Z"/><path class="cls-2" d="M115.6,81.41c-1.35,2.45-2.99,4.79-3.78,7.47-.23,.78-.38,1.62-.09,2.38,.42,1.13,1.76,1.75,2.96,1.6,1.2-.14,2.25-.9,3.05-1.82,.79-.91,1.38-1.99,2.04-3,2.38-3.63,6.02-6.63,10.3-7.38,2.37-.42,4.9-.16,7.1-1.14,.77-.34,1.48-.84,2.01-1.51,.48-.61,.79-1.35,.99-2.1,.78-2.99-.24-6.38-2.54-8.44-1.35-1.21-3.23-1.97-5-1.55-2.12,.51-3.49,2.52-5.29,3.77-1.23,.85-2.7,1.35-4.19,1.42-2.1,.1-5.65-.33-5.63,2.72,.01,2.84-.51,5.03-1.91,7.58Z"/><path class="cls-2" d="M118.22,83.22c1.27-1.52,1.91-3.45,2.51-5.33,.24-.76,.48-1.52,.86-2.21,.38-.69,.93-1.32,1.64-1.67,.55-.27,1.17-.35,1.76-.49,.88-.21,1.74-.55,2.52-1.02,.87-.51,1.65-1.16,2.57-1.56,.77-.33,1.62-.48,2.46-.42,.93,.07,1.95,.49,2.23,1.38,.14,.42,.08,.89-.08,1.31-.53,1.45-2.06,2.27-3.54,2.7-1.48,.43-3.06,.6-4.4,1.35-.99,.55-1.8,1.39-2.54,2.25-.99,1.15-1.91,2.38-2.99,3.46-.53,.53-1.1,1.03-1.73,1.44-.45,.29-1.6,1.11-2.14,.74-.71-.49,.56-1.56,.86-1.92Z"/><path class="cls-2" d="M105.77,62.92c.22-.07,.36-.3,.42-.53,.18-.68-.11-1.4-.55-1.95-.46-.58-2.52-2.07-3.05-.86-.47,1.09,.67,1.62,1.32,2.16,.45,.38,1.16,1.4,1.86,1.17Z"/><path class="cls-2" d="M117.22,68.44c.19,.08,.39,.16,.52,.32,.27,.3,.19,.8-.07,1.1-.26,.3-.67,.45-1.07,.51-1.22,.21-2.86-.21-3.57-1.3-.87-1.32,.55-1.93,1.65-1.61,.87,.25,1.71,.63,2.54,.97Z"/><path class="cls-2" d="M94.14,214.96c2.02-6.2-.15-13.07-3.7-18.54-1.2-1.85-2.58-3.63-3.34-5.71-.76-2.07-.8-4.57,.55-6.32,.92-1.19,2.34-1.87,3.63-2.66,4.95-3.04,8.37-8.34,9.4-14.05s-.26-11.75-3.28-16.71c-2.23-3.66-5.48-7.94-3.45-11.71,1.68-3.12,6.23-3.54,9.43-1.99,3.2,1.55,5.48,4.44,8.03,6.91,6.21,6.01,14.55,9.77,23.16,10.44,4.43,.34,8.91-.11,13.32,.48s8.95,2.44,11.31,6.21c2.03,3.24,2.11,7.3,2,11.12-.12,3.82-.33,7.81,1.23,11.3,1.56,3.49,5.57,6.23,9.18,4.96,1.46-.52,2.65-1.6,4.07-2.23,2.52-1.11,5.69-.55,7.68,1.36,3.15,3.03,2.82,8.1,2.04,12.4-.78,4.3-1.66,9.14,.85,12.72,1.13,1.62,2.86,2.77,3.88,4.47,1.02,1.69,.93,4.38-.9,5.13"/><path class="cls-2" d="M88.37,117.48c0-1.08,.14-2.23,.8-3.08,1.36-1.75,4.01-1.48,6.2-1.24,8.85,.97,18.25-1.55,24.71-7.68,3.09-2.93,5.43-6.58,7.35-10.38,.77-1.53,1.5-3.12,2.7-4.33,2.82-2.85,8.11-2.61,10.67,.48,2.37,2.86,2.21,7.03,3.85,10.36,1.69,3.42,5.15,5.69,6.92,9.06,2.49,4.74,1.09,10.72-1.86,15.19-1.71,2.59-3.92,4.91-4.96,7.83-1.39,3.9-.65,8.71-3.43,11.78-2.33,2.58-6.28,2.86-9.71,2.32-4.7-.74-9.12-2.68-13.38-4.8-2.39-1.19-4.78-2.47-6.68-4.34-1.61-1.59-2.82-3.55-4.4-5.17-1.73-1.78-3.91-3.12-6.28-3.86-2.83-.89-6.53-.85-8.75-3.04-2.36-2.33-3.75-5.8-3.78-9.09Z"/><path class="cls-2" d="M94.23,119.35c-.29-.93-.24-2.03,.38-2.79,1.04-1.27,3-1.02,4.62-.76,6.72,1.1,14.01,.37,19.64-3.47,2.53-1.73,4.63-4.01,6.7-6.28,1.76-1.94,3.52-3.91,4.81-6.19,.59-1.05,1.09-2.19,1.95-3.04s2.19-1.38,3.29-.88c.89,.41,1.4,1.37,1.64,2.33,.24,.95,.27,1.95,.56,2.89,1.34,4.44,7.42,5.86,9.2,10.14,1.12,2.7,.19,5.83-1.24,8.38-1.43,2.55-3.36,4.84-4.44,7.55-.62,1.56-.94,3.23-1.35,4.86-.55,2.15-1.27,4.29-2.49,6.15-1.22,1.86-2.98,3.43-5.11,4.07-3.25,.99-6.76-.28-9.76-1.87-1.57-.83-3.1-1.76-4.45-2.92-2.86-2.45-4.81-5.83-7.73-8.22-2.2-1.8-4.85-2.96-7.46-4.09-1.87-.81-3.74-1.62-5.62-2.43-1.64-.71-2.58-1.66-3.14-3.45Z"/><path class="cls-2" d="M107.98,123.47c-1.75-.52-3.57-.78-5.24-1.5-.65-.28-1.34-.73-1.44-1.43-.11-.75,.55-1.44,1.27-1.64,.73-.21,1.5-.06,2.25,.07,4.16,.72,8.62,.77,12.39-1.11,5.8-2.9,8.64-9.61,13.74-13.62,.3-.24,.63-.47,1.01-.56,1.09-.24,2.03,.83,2.44,1.87,.2,.5,.34,1.02,.59,1.49,1.49,2.81,5.97,2.79,7.53,5.56,.75,1.33,.6,3.01,0,4.41s-1.61,2.58-2.58,3.75c-1.49,1.78-2.96,3.64-3.7,5.84-.79,2.37-.68,5.03-1.85,7.25-1.1,2.09-3.29,3.51-5.62,3.87-2.33,.36-4.77-.3-6.72-1.61-1.48-1-2.7-2.34-3.89-3.67-2.93-3.25-5.77-7.67-10.16-8.97Z"/><path class="cls-2" d="M124.29,118.59c2.5-2.33,4.16-5.46,5.1-8.74,.17-.6,.37-1.27,.92-1.58,.82-.46,1.84,.24,2.33,1.05,.49,.81,.76,1.79,1.5,2.38,1.11,.89,2.9,.58,3.89,1.6,.57,.58,.72,1.48,.56,2.28s-.58,1.52-1.04,2.2c-1.66,2.48-3.82,4.66-5.07,7.37-.69,1.49-1.09,3.11-1.84,4.58s-1.96,2.83-3.56,3.18c-1.45,.31-2.95-.25-4.25-.96-2.61-1.43-4.85-3.54-6.45-6.05-.51-.79-2.02-2.68-.98-3.42,.51-.36,1.43-.28,2.02-.38,.8-.14,1.59-.36,2.35-.65,1.68-.64,3.22-1.62,4.53-2.85Z"/><path class="cls-2" d="M128.35,118.07c.38-1.08,.62-2.31,1.52-3.03,.57-.45,1.31-.62,2.03-.7,.64-.07,1.34-.07,1.89,.27,.9,.55,1.08,1.84,.73,2.83-.35,.99-1.1,1.78-1.77,2.6-1.69,2.05-2.97,4.43-4.77,6.38-.86,.93-1.98,1.81-3.25,1.73-.9-.06-1.69-.59-2.39-1.14-.6-.47-2.28-1.79-1.47-2.58,.29-.29,1.23-.34,1.63-.48,.53-.19,1.04-.43,1.52-.72,1.98-1.15,3.58-2.98,4.35-5.15Z"/><path class="cls-2" d="M155.25,11.17c2.28-4.88,4.69-10.17,9.4-12.78,2.58-1.43,5.61-1.9,8.11-3.45,2.62-1.63,4.39-4.28,6.38-6.64,1.98-2.36,4.49-4.62,7.56-4.91,3.93-.38,7.48,2.65,9.3,6.16,1.82,3.51,2.38,7.5,3.55,11.28,1.17,3.77,3.21,7.61,6.78,9.28,3.81,1.78,8.66,.78,12.09,3.21,2.66,1.89,3.7,5.39,3.76,8.66,.15,8.28-4.76,15.9-5.42,24.16-.41,5.1,.83,10.2,2.63,14.99,1.18,3.13,2.62,6.24,2.81,9.57,.42,7.09-4.87,13.29-10.74,17.3-5.34,3.65-11.55,6.22-18.01,6.53-6.46,.31-13.17-1.84-17.69-6.46-3.14-3.21-5.82-7.84-10.3-8.04-3.95-.17-7.4,3.41-11.33,3.03-3.92-.38-6.35-4.47-7.4-8.26-1.05-3.79-1.49-7.99-4.09-10.95-1.26-1.44-3.03-2.58-3.56-4.42-.37-1.28-.04-2.66-.18-3.99-.4-3.8-4.48-6.68-4.21-10.49,.1-1.42,.81-2.71,1.51-3.94,3.17-5.65,5.97-11.84,9.53-17.23,1.31-1.98,3.57-3.13,5.07-4.99,1.85-2.29,3.19-4.95,4.43-7.6Z"/></g></g></g></svg>