<?xml version="1.0" encoding="UTF-8"?><svg id="Layer_1" xmlns="http://www.w3.org/2000/svg" xmlns:xlink="http://www.w3.org/1999/xlink" viewBox="0 0 392.81 92.02"><defs><style>.cls-1{fill:#231f20;}.cls-2{fill:url(#New_Gradient_Swatch_2);}.cls-3{fill:url(#New_Gradient_Swatch_2-6);}.cls-4{fill:url(#New_Gradient_Swatch_2-5);}.cls-5{fill:url(#New_Gradient_Swatch_2-2);}.cls-6{fill:url(#New_Gradient_Swatch_2-4);}.cls-7{fill:url(#New_Gradient_Swatch_2-3);}</style><linearGradient id="New_Gradient_Swatch_2" x1="5.82" y1="64.66" x2="75.16" y2="64.66" gradientTransform="matrix(1, 0, 0, 1, 0, 0)" gradientUnits="userSpaceOnUse"><stop offset="0" stop-color="#2735d5"/><stop offset=".3" stop-color="#7266f5"/><stop offset=".38" stop-color="#8573fe"/><stop offset=".62" stop-color="#d09dfd"/><stop offset=".71" stop-color="#edaefd"/><stop offset="1" stop-color="#32edff"/></linearGradient><linearGradient id="New_Gradient_Swatch_2-2" x1="4.32" y1="21.23" x2="75.07" y2="21.23" xlink:href="#New_Gradient_Swatch_2"/><linearGradient id="New_Gradient_Swatch_2-3" x1="19.1" y1="55.44" x2="39.67" y2="55.44" xlink:href="#New_Gradient_Swatch_2"/><linearGradient id="New_Gradient_Swatch_2-4" x1="42.21" y1="60.47" x2="68.28" y2="60.47" xlink:href="#New_Gradient_Swatch_2"/><linearGradient id="New_Gradient_Swatch_2-5" x1="46.88" y1="51.44" x2="55.62" y2="51.44" xlink:href="#New_Gradient_Swatch_2"/><linearGradient id="New_Gradient_Swatch_2-6" x1="380.33" y1="55.45" x2="392.81" y2="55.45" xlink:href="#New_Gradient_Swatch_2"/></defs><g><path class="cls-1" d="M78.76,29.29c-.07-.32-.15-.69-.23-1.09-.5-2.51-1.12-5.63-3.67-7.33l-.23-.15c-11.08-7.38-17.4-11.49-18.78-12.21C46.39,3.55,35.6,.69,23.76,.02c-.26-.01-.52-.02-.77-.02-3.52,0-6.44,1.51-8.43,4.38-2.09,3.01-3.69,6.25-4.74,8.39-.24,.48-.52,1.06-.68,1.36C4.09,19.76-.45,26.23,.04,35.33c.06,1.17,.27,2.18,.63,3.07l1.83,7.74,.99,4.18,.06-.02c3.7,13.72,9.11,24.94,16.47,34.18,2.99,3.76,7.3,6.32,12.45,7.41,.41,.09,.84,.13,1.27,.13,3.05,0,5.38-2.12,7.63-4.16,.87-.79,2.48-2.26,3.19-2.5,.51,0,1.03,0,1.56,0,.39,0,.78,0,1.17,0,.1,0,.2,0,.3,0,8.11,0,14.84-3.13,20.01-9.3,1.35-1.61,4.63-7.34,7.21-13.04,2.91-5.49,3.87-10.37,4.18-12h0v-.04c.95-4.86,.32-19.33-.23-21.68Z"/><g><path class="cls-2" d="M72.67,51.77c-2.37,6.97-5.2,13.7-10.35,19.17-5.54,5.88-12.61,7.62-20.02,4.48-3.37-1.42-6.63-3.35-9.52-5.58-9.34-7.22-16.31-16.57-22.57-26.45-1.08-1.7-4.37-1.86-4.37-1.86,0,0,.09,.5,.13,.71,3.1,14.39,8.1,27.98,17.38,39.63,2.49,3.13,6.03,5.06,10,5.9,3.03,.64,7.23-6.69,11.13-6.63,.95,.02,1.89,0,2.84,.02,6.88,.07,12.59-2.5,17-7.78,1.72-2.06,10.96-18.46,10.85-26.53,0-.47-.14-.93-.31-1.98-.86,2.73-1.47,4.83-2.18,6.91Z"/><path class="cls-5" d="M7.37,38.16c3.22-.09,6.47-.06,9.65-.5,5.63-.78,11.19-1.98,16.79-2.95-8.03-1.64-15.66-5.18-24.63-4.41,1.63-2.64,3.54-3.91,6.25-3.56,1.55,.2,3.09,.59,4.61,.97,10.99,2.76,21.91,5.82,32.98,8.2,6.19,1.33,12.53,2.62,18.94,2.26,2.07-.12,2.5-.66,2.95-3.02,.32-1.71,.12-3.36-.24-4.94-.46-2-1.39-3.89-2.11-5.83-.39,2.12-.24,4.01-.43,5.86-.32,3.11-2,4.71-5.11,4.8-1.79,.05-3.67-.07-5.38-.55-7.42-2.09-14.79-4.34-22.18-6.54-.52-.16,.28-.79,1.12-.8,9.52-.09,11.28,.08,11.28,.08,.83,.02,2.4,.06,3.28-.96,.3-.34,.43-.71,.5-.95,.02-.31,.02-.8-.2-1.31-.56-1.29-8.92-5.35-12.23-6.79-3.31-1.45-6.73-2.66-10.59-4.13-.32-.12-.29-.38,.06-.38,3.27-.02,7.18,.23,11.51,1.07,6.79,1.32,12.21,3.62,16.05,5.62-.23-1.09-4.35-6.13-6.31-7.16-9.48-4.98-19.69-7.4-30.35-8.01-2.21-.13-4.04,.5-5.46,2.54-2.95,4.25-2.79,5.25,2.25,6.75,4.82,1.44,9.76,2.47,14.6,3.87,3.59,1.04,7.09,2.38,10.63,3.58,.34,.17,.26,.64-.18,.56-4.35-1.01-8.67-2.17-13.06-2.99-5.64-1.05-11.32-1.88-17-2.67-.89-.12-2.22,.19-2.78,.81-4.71,5.21-8.64,10.76-8.24,18.37,.12,2.32,.98,3.15,3.03,3.09Z"/><path class="cls-7" d="M38.31,60.36c.5-.04,1.27-1.19,1.29-1.85,.12-4,.06-8.01,.06-12.45-1.13,.54-1.92,.87-2.65,1.28-3.98,2.26-8.02,3.06-12.34,.83-.86-.44-2.01-.65-2.96-.51-.9,.13-2.04,.66-2.47,1.37-.34,.56,0,1.84,.46,2.52,3.51,5.16,8.22,9.04,13.59,12.14,.85,.49,1.84,.72,2.93,1.12,.07-.66,.22-1.06,.14-1.41-.42-1.72-.21-2.86,1.95-3.05Z"/><path class="cls-6" d="M58.84,69.78c1.6-1.48,3.07-3.18,4.27-5,3.94-5.98,5.44-10.41,5.13-17.58-4.47,13.18-11.46,21.26-26.03,24.76,6.2,2.95,11.88,2.21,16.63-2.19Z"/><path class="cls-4" d="M55.47,50.81c.3-1.13,.27-2.47-1.46-2.11-2.27,.47-4.49,1.21-7.13,1.95,1.2,2.16,2.66,3.62,4.87,3.59,2.03-.03,3.23-1.54,3.72-3.43Z"/></g></g><g><path class="cls-1" d="M124.32,61.69h-5.62l-16.9-25.57v25.57h-5.62V27.4h5.62l16.9,25.52V27.4h5.62V61.69Z"/><path class="cls-1" d="M156.4,50.21h-20.74c.16,2.17,.97,3.91,2.41,5.22,1.45,1.31,3.22,1.97,5.32,1.97,3.02,0,5.16-1.26,6.41-3.79h6.06c-.82,2.5-2.31,4.54-4.46,6.13-2.15,1.59-4.82,2.39-8.01,2.39-2.59,0-4.92-.58-6.97-1.75-2.05-1.17-3.66-2.81-4.83-4.93-1.17-2.12-1.75-4.57-1.75-7.37s.57-5.25,1.7-7.37c1.13-2.12,2.73-3.75,4.78-4.9,2.05-1.15,4.41-1.72,7.07-1.72s4.85,.56,6.85,1.68c2,1.12,3.56,2.69,4.68,4.71,1.12,2.02,1.68,4.34,1.68,6.97,0,1.02-.07,1.94-.2,2.76Zm-5.67-4.53c-.03-2.07-.77-3.73-2.22-4.98-1.45-1.25-3.24-1.87-5.37-1.87-1.94,0-3.6,.62-4.98,1.85-1.38,1.23-2.2,2.9-2.46,5h15.03Z"/><path class="cls-1" d="M166.94,60.38c-2.07-1.17-3.7-2.81-4.88-4.93-1.18-2.12-1.77-4.57-1.77-7.37s.61-5.21,1.82-7.34c1.21-2.13,2.87-3.78,4.98-4.93,2.1-1.15,4.45-1.72,7.05-1.72s4.94,.58,7.05,1.72c2.1,1.15,3.76,2.79,4.98,4.93,1.21,2.14,1.82,4.58,1.82,7.34s-.62,5.21-1.87,7.34c-1.25,2.14-2.95,3.79-5.1,4.95s-4.53,1.75-7.12,1.75-4.88-.58-6.95-1.75Zm11.01-4.16c1.26-.69,2.29-1.72,3.08-3.1,.79-1.38,1.18-3.06,1.18-5.03s-.38-3.64-1.13-5c-.76-1.36-1.76-2.39-3.01-3.08-1.25-.69-2.59-1.04-4.04-1.04s-2.78,.35-4.02,1.04c-1.23,.69-2.21,1.72-2.93,3.08s-1.08,3.03-1.08,5c0,2.92,.75,5.18,2.24,6.78,1.49,1.59,3.38,2.39,5.64,2.39,1.45,0,2.8-.34,4.07-1.04Z"/><path class="cls-1" d="M223.85,61.69h-8.43l-14.09-21.34v21.34h-8.43V27.1h8.43l14.09,21.43V27.1h8.43V61.69Z"/><path class="cls-1" d="M235.21,60.36c-2.15-1.15-3.84-2.79-5.08-4.93-1.23-2.13-1.85-4.63-1.85-7.49s.62-5.31,1.87-7.47c1.25-2.15,2.96-3.8,5.12-4.95,2.17-1.15,4.6-1.72,7.29-1.72s5.12,.57,7.29,1.72c2.17,1.15,3.88,2.8,5.12,4.95,1.25,2.15,1.87,4.64,1.87,7.47s-.63,5.31-1.9,7.46-2.99,3.8-5.17,4.95c-2.18,1.15-4.62,1.72-7.32,1.72s-5.12-.57-7.27-1.72Zm11.38-7.34c1.13-1.18,1.7-2.87,1.7-5.08s-.55-3.89-1.65-5.08-2.46-1.77-4.07-1.77-3.01,.58-4.09,1.75c-1.08,1.17-1.63,2.87-1.63,5.1s.53,3.89,1.6,5.08,2.41,1.77,4.02,1.77,2.98-.59,4.11-1.77Z"/><path class="cls-1" d="M304.59,37c2.02,2.07,3.03,4.94,3.03,8.62v16.06h-8.38v-14.93c0-1.77-.47-3.15-1.41-4.12-.94-.97-2.23-1.45-3.87-1.45s-2.93,.49-3.87,1.45c-.94,.97-1.4,2.34-1.4,4.12v14.93h-8.38v-14.93c0-1.77-.47-3.15-1.4-4.12-.94-.97-2.23-1.45-3.87-1.45s-2.93,.49-3.87,1.45c-.94,.97-1.4,2.34-1.4,4.12v14.93h-8.43v-27.5h8.43v3.45c.85-1.15,1.97-2.06,3.35-2.73,1.38-.67,2.94-1.01,4.68-1.01,2.07,0,3.92,.44,5.54,1.33s2.9,2.15,3.82,3.79c.95-1.51,2.25-2.74,3.89-3.7,1.64-.95,3.43-1.43,5.37-1.43,3.42,0,6.13,1.04,8.16,3.1Z"/><path class="cls-1" d="M313.46,40.45c1.07-2.13,2.52-3.78,4.36-4.93,1.84-1.15,3.89-1.72,6.16-1.72,1.94,0,3.64,.39,5.1,1.18,1.46,.79,2.59,1.82,3.38,3.1v-3.89h8.43v27.5h-8.43v-3.89c-.82,1.28-1.96,2.32-3.42,3.1-1.46,.79-3.16,1.18-5.1,1.18-2.23,0-4.27-.58-6.11-1.75-1.84-1.17-3.29-2.82-4.36-4.98-1.07-2.15-1.6-4.64-1.6-7.46s.53-5.3,1.6-7.44Zm17.25,2.51c-1.17-1.21-2.59-1.82-4.26-1.82s-3.1,.6-4.26,1.8c-1.17,1.2-1.75,2.85-1.75,4.95s.58,3.77,1.75,5c1.17,1.23,2.59,1.85,4.26,1.85s3.1-.61,4.26-1.82c1.17-1.21,1.75-2.87,1.75-4.98s-.58-3.76-1.75-4.98Z"/><path class="cls-1" d="M346.91,40.45c1.07-2.13,2.52-3.78,4.36-4.93,1.84-1.15,3.89-1.72,6.16-1.72,1.81,0,3.46,.38,4.95,1.13,1.49,.76,2.67,1.77,3.52,3.05v-12.76h8.43V61.69h-8.43v-3.94c-.79,1.31-1.91,2.37-3.38,3.15-1.46,.79-3.16,1.18-5.1,1.18-2.27,0-4.32-.58-6.16-1.75-1.84-1.17-3.29-2.82-4.36-4.98-1.07-2.15-1.6-4.64-1.6-7.46s.53-5.3,1.6-7.44Zm17.25,2.51c-1.17-1.21-2.59-1.82-4.26-1.82s-3.1,.6-4.26,1.8c-1.17,1.2-1.75,2.85-1.75,4.95s.58,3.77,1.75,5c1.17,1.23,2.59,1.85,4.26,1.85s3.1-.61,4.26-1.82c1.17-1.21,1.75-2.87,1.75-4.98s-.58-3.76-1.75-4.98Z"/></g><g><circle class="cls-3" cx="386.57" cy="55.45" r="6.24"/><path d="M386.57,50.22c2.89,0,5.24,2.35,5.24,5.24s-2.35,5.24-5.24,5.24-5.24-2.35-5.24-5.24,2.35-5.24,5.24-5.24m0-1c-3.44,0-6.24,2.79-6.24,6.24s2.79,6.24,6.24,6.24,6.24-2.79,6.24-6.24-2.79-6.24-6.24-6.24h0Z"/></g></svg>