<svg width="21" height="20" viewBox="0 0 21 20" fill="none" xmlns="http://www.w3.org/2000/svg">
<path fill-rule="evenodd" clip-rule="evenodd" d="M11.4621 11.6667H13.7536C13.9448 11.6667 14.1114 11.5365 14.1578 11.3511L14.7828 8.85106C14.8139 8.72658 14.786 8.59471 14.707 8.49358C14.628 8.39245 14.5069 8.33333 14.3786 8.33333H11.4621V6.66667C11.4621 6.20643 11.8352 5.83333 12.2955 5.83333H14.3788C14.6089 5.83333 14.7954 5.64679 14.7954 5.41667V2.91667C14.7954 2.68655 14.6089 2.5 14.3788 2.5H12.2955C9.99426 2.5 8.12878 4.36548 8.12878 6.66667V8.33333H6.04545C5.81533 8.33333 5.62878 8.51988 5.62878 8.75V11.25C5.62878 11.4801 5.81533 11.6667 6.04545 11.6667H8.12878V17.0833C8.12878 17.3135 8.31533 17.5 8.54545 17.5H11.0455C11.2756 17.5 11.4621 17.3135 11.4621 17.0833V11.6667Z" stroke="white" stroke-width="1.5" stroke-linecap="round" stroke-linejoin="round"/>
</svg>
