<svg width="25" height="24" viewBox="0 0 25 24" fill="none" xmlns="http://www.w3.org/2000/svg">
<path fill-rule="evenodd" clip-rule="evenodd" d="M8.28384 3H17.2928C19.7748 3 21.7878 5.012 21.7878 7.496V16.505C21.7878 18.987 19.7758 21 17.2918 21H8.28384C5.80084 21 3.78784 18.988 3.78784 16.504V7.496C3.78784 5.013 5.79984 3 8.28384 3V3Z" stroke="white" stroke-width="1.5" stroke-linecap="round" stroke-linejoin="round"/>
<path d="M17.7368 6.71298C17.5508 6.71398 17.3998 6.86498 17.3998 7.05098C17.3998 7.23698 17.5518 7.38798 17.7378 7.38798C17.9238 7.38798 18.0748 7.23698 18.0748 7.05098C18.0758 6.86398 17.9238 6.71298 17.7368 6.71298" stroke="white" stroke-width="1.5" stroke-linecap="round" stroke-linejoin="round"/>
<path d="M15.3335 9.45444C16.7393 10.8603 16.7393 13.1397 15.3335 14.5456C13.9276 15.9515 11.6482 15.9515 10.2423 14.5456C8.83639 13.1397 8.83639 10.8603 10.2423 9.45444C11.6482 8.04855 13.9276 8.04855 15.3335 9.45444" stroke="white" stroke-width="1.5" stroke-linecap="round" stroke-linejoin="round"/>
</svg>
