<svg width="21" height="20" viewBox="0 0 21 20" fill="none" xmlns="http://www.w3.org/2000/svg">
<path fill-rule="evenodd" clip-rule="evenodd" d="M6.4621 2.5H13.9654C16.0346 2.5 17.7121 4.1775 17.7121 6.24667V13.7542C17.7121 15.8225 16.0346 17.5 13.9654 17.5H6.45876C4.3896 17.5 2.7121 15.8225 2.7121 13.7533V6.25C2.7121 4.17917 4.39126 2.5 6.4621 2.5V2.5Z" stroke="white" stroke-width="1.5" stroke-linecap="round" stroke-linejoin="round"/>
<path d="M6.97874 9.25V13.75" stroke="white" stroke-width="1.5" stroke-linecap="round" stroke-linejoin="round"/>
<path d="M9.97797 13.75V11.125C9.97797 10.0892 10.8171 9.25 11.853 9.25V9.25C12.8888 9.25 13.728 10.0892 13.728 11.125V13.75" stroke="white" stroke-width="1.5" stroke-linecap="round" stroke-linejoin="round"/>
<path d="M6.97712 6.53167C6.87378 6.53167 6.78962 6.61583 6.79045 6.71917C6.79045 6.8225 6.87462 6.90667 6.97795 6.90667C7.08128 6.90667 7.16545 6.8225 7.16545 6.71917C7.16545 6.615 7.08128 6.53167 6.97712 6.53167" stroke="white" stroke-width="1.5" stroke-linecap="round" stroke-linejoin="round"/>
</svg>
